<?xml version="1.0" standalone="no"?>
<!DOCTYPE svg PUBLIC "-//W3C//DTD SVG 1.1//EN" "http://www.w3.org/Graphics/SVG/1.1/DTD/svg11.dtd" >
<svg xmlns="http://www.w3.org/2000/svg">
<metadata></metadata>
<defs>
<font id="newjunepromediumregular" horiz-adv-x="1208" >
<font-face units-per-em="2048" ascent="1597" descent="-451" />
<missing-glyph horiz-adv-x="530" />
<glyph unicode="IJ" horiz-adv-x="1304" d="M152 0v1524h208v-1524h-208zM535 33l26 174q148 -35 215 -35q97 0 138.5 52.5t41.5 168.5v1131h205v-1145q0 -187 -97.5 -286t-272.5 -99q-90 0 -256 39z" />
<glyph unicode="ij" horiz-adv-x="1017" d="M131 1446q0 57 32 91t89 34q55 0 87 -34t32 -91q0 -58 -32 -92.5t-87 -34.5q-56 0 -88.5 34.5t-32.5 92.5zM158 0v1116h188v-1116h-188zM498 -217q96 3 136 54t40 159v1120h188v-1126q0 -176 -94 -268.5t-270 -92.5v154zM647 1446q0 57 32 91t87 34q56 0 87.5 -33.5 t31.5 -91.5t-31.5 -92.5t-87.5 -34.5q-55 0 -87 34.5t-32 92.5z" />
<glyph unicode="&#x27;n" horiz-adv-x="1196" d="M127 1389l55 208h197l-70 -251q-22 -72 -94 -72q-54 0 -77.5 33.5t-10.5 81.5zM143 0v920q0 124 125 155q191 51 357 51q220 0 324 -109.5t104 -291.5v-725h-187v707q0 119 -59 185t-199 66q-111 0 -276 -43v-915h-189z" />
<glyph unicode="ff" horiz-adv-x="1482" d="M39 940v160h176v108q0 178 95 269.5t272 91.5q110 0 206 -21.5t228 -66.5q89 86 246 86q77 0 241 -37l-24 -160q-135 33 -205 33q-93 0 -131.5 -48.5t-38.5 -160.5v-94h346v-160h-346v-940h-184v940h-519v-940h-186v940h-176zM401 1100h519v108q0 83 16 135 q-196 68 -344 68q-102 0 -146.5 -51.5t-44.5 -165.5v-94z" />
<glyph unicode="fi" horiz-adv-x="1259" d="M39 940v160h176v108q0 175 90 267t254 92q73 0 242 -35l-25 -162q-143 35 -207 35q-91 0 -128.5 -49.5t-39.5 -161.5v-94h705v-1100h-193v940h-512v-940h-186v940h-176zM891 1456q0 57 32 91t87 34t86.5 -34t31.5 -91t-31.5 -91t-86.5 -34t-87 34t-32 91z" />
<glyph unicode="fl" horiz-adv-x="1249" d="M39 940v160h176v108q0 175 91 268t257 93q94 0 350 -39l193 47v-1577h-191v1370q-223 35 -340 35q-94 0 -134 -49.5t-40 -161.5v-94h347v-160h-347v-940h-186v940h-176z" />
<glyph unicode="ffi" horiz-adv-x="1964" d="M39 940v160h176v108q0 178 95 269.5t272 91.5q110 0 206 -21.5t228 -66.5q89 86 246 86q72 0 241 -35l-24 -162q-143 35 -205 35q-92 0 -130 -49.5t-40 -161.5v-94h704v-1100h-192v940h-512v-940h-184v940h-519v-940h-186v940h-176zM401 1100h519v108q0 83 16 135 q-196 68 -344 68q-102 0 -146.5 -51.5t-44.5 -165.5v-94zM1593 1456q0 57 32 91t87 34t87 -34t32 -91t-32 -91t-87 -34t-87 34t-32 91z" />
<glyph unicode="&#xd;" horiz-adv-x="530" />
<glyph unicode=" "  horiz-adv-x="530" />
<glyph unicode="&#x09;" horiz-adv-x="530" />
<glyph unicode="&#xa0;" horiz-adv-x="530" />
<glyph unicode="!" horiz-adv-x="446" d="M106 106q0 59 32 92t89 33q56 0 87.5 -33.5t31.5 -91.5t-31.5 -91t-87.5 -33q-57 0 -89 33t-32 91zM131 461v1063h191v-1028z" />
<glyph unicode="&#x22;" horiz-adv-x="788" d="M117 1563h194l-18 -435h-160zM477 1563h195l-19 -435h-157z" />
<glyph unicode="#" d="M33 422l26 160h205l68 342h-217l24 157h223l84 443h170l-84 -443h269l84 443h168l-84 -443h207l-27 -157h-207l-65 -342h217l-25 -160h-223l-78 -422h-170l80 422h-275l-81 -422h-172l81 422h-198zM434 582h275l65 342h-272z" />
<glyph unicode="$" d="M96 102l39 181l105 -37q257 -88 413 -88q73 0 134 24t104 82t43 142q0 94 -49 149.5t-160 81.5l-266 63q-170 41 -263.5 141t-93.5 261q0 102 35.5 183.5t96.5 132.5t136 79t158 31v248h170v-252q133 -15 320 -78l102 -35l-39 -180l-104 37q-242 88 -404 88 q-56 0 -105 -14t-89 -42.5t-63 -77t-23 -112.5q0 -92 49 -147.5t160 -81.5l264 -64q358 -88 358 -403q0 -100 -35 -180.5t-95.5 -131.5t-135.5 -80t-160 -34v-252h-170v254q-124 13 -329 78z" />
<glyph unicode="%" horiz-adv-x="1269" d="M70 1042v246q0 117 62 182.5t179 65.5t177.5 -64.5t60.5 -183.5v-241q0 -121 -60.5 -185.5t-177.5 -64.5t-179 64t-62 181zM174 0l766 1524h154l-762 -1524h-158zM207 1044q0 -131 102 -131q105 0 105 131v242q0 131 -105 131q-102 0 -102 -131v-242zM723 236v247 q0 117 62.5 181.5t179.5 64.5t177 -64.5t60 -183.5v-241q0 -120 -60 -185t-177 -65t-179.5 64.5t-62.5 181.5zM860 240q0 -131 103 -131q104 0 104 131v241q0 131 -104 131q-103 0 -103 -131v-241z" />
<glyph unicode="&#x26;" horiz-adv-x="1456" d="M100 383q0 84 23.5 152t68.5 117t94.5 83.5t116.5 65.5q-93 103 -135.5 181t-42.5 187q0 93 34 166t93.5 119t136.5 70t166 24q182 0 294 -92.5t112 -263.5q0 -54 -12 -101t-29.5 -83t-49 -69.5t-60 -56.5t-72.5 -48t-77 -40.5t-83 -37.5l362 -402q109 157 109 385v176 h176v-182q0 -302 -170 -506l207 -227h-234l-100 109q-190 -134 -446 -134q-229 0 -355.5 116.5t-126.5 291.5zM293 387q0 -49 17 -92.5t51 -80t92.5 -58t134.5 -21.5q193 0 330 96l-406 451q-105 -54 -162 -122t-57 -173zM406 1169q0 -75 37.5 -139.5t129.5 -157.5 q59 24 97.5 42.5t83 47.5t70.5 59t43.5 73t17.5 94q0 93 -58.5 151t-173.5 58q-123 0 -185 -62.5t-62 -165.5z" />
<glyph unicode="'" horiz-adv-x="442" d="M117 1563h209l-19 -435h-172z" />
<glyph unicode="(" horiz-adv-x="604" d="M76 698q0 206 30 359.5t75.5 241t113 140t129.5 69t137 16.5v-156q-39 -3 -71.5 -14t-76.5 -52.5t-74 -109t-51.5 -195t-21.5 -299.5q0 -130 11 -236t28.5 -176.5t44 -123t51.5 -81t56.5 -46.5t54 -23.5t49.5 -7.5v-156q-47 0 -90.5 8.5t-93.5 33.5t-91.5 64t-81.5 105.5 t-67.5 153t-44 210.5t-16.5 275z" />
<glyph unicode=")" horiz-adv-x="604" d="M51 4q27 2 49 7.5t53.5 23.5t56 46.5t51 81t44 123t28.5 176.5t11 236q0 172 -21.5 299.5t-51.5 195t-73.5 109t-76 52.5t-70.5 14v156q52 0 97 -8t95.5 -31t91.5 -60.5t80 -101.5t65 -148.5t41.5 -206t15.5 -270.5q0 -151 -17 -275.5t-44.5 -210.5t-67.5 -152.5 t-82 -105.5t-92 -64t-93.5 -33.5t-89.5 -8.5v156z" />
<glyph unicode="*" d="M137 1161l58 178l340 -139l-29 363h196l-28 -363l340 137l57 -178l-358 -86l239 -282l-161 -111l-187 317l-188 -315l-160 111l240 282z" />
<glyph unicode="+" d="M113 520v166h397v424h178v-424h406v-166h-406v-426h-178v426h-397z" />
<glyph unicode="," horiz-adv-x="446" d="M70 -139l96 372h203l-115 -417q-22 -72 -96 -72q-53 0 -76 33.5t-12 83.5z" />
<glyph unicode="-" horiz-adv-x="854" d="M115 549v172h624v-172h-624z" />
<glyph unicode="." horiz-adv-x="446" d="M104 109q0 59 32 93t89 34q55 0 87 -34t32 -93q0 -60 -31.5 -93.5t-87.5 -33.5q-57 0 -89 33.5t-32 93.5z" />
<glyph unicode="/" horiz-adv-x="849" d="M20 0l629 1524h180l-622 -1524h-187z" />
<glyph unicode="0" d="M127 483v551q0 238 126 372t359 134q234 0 353.5 -133t119.5 -377v-541q0 -244 -119.5 -378t-351.5 -134q-234 0 -360.5 133.5t-126.5 372.5zM315 489q0 -346 293 -346q291 0 291 346v541q0 344 -291 344q-293 0 -293 -344v-541z" />
<glyph unicode="1" d="M127 0v168h442v1184h-86q-156 0 -233 -41l-41 164q46 24 126 36.5t152 12.5h125q77 0 118.5 -39.5t41.5 -110.5v-1206h361v-168h-1006z" />
<glyph unicode="2" d="M115 113q0 63 47 110l510 484q121 112 173 200.5t52 198.5q0 133 -79.5 194.5t-211.5 61.5t-360 -68l-92 -28l-33 170l92 28q247 74 408 74q97 0 178.5 -24t148 -74t104.5 -135.5t38 -198.5q0 -126 -61.5 -248t-209.5 -260l-473 -436h748v-162h-871q-52 0 -80 31t-28 82z " />
<glyph unicode="3" d="M92 88l37 168l96 -29q253 -73 393 -73q152 0 232 63t80 174q0 102 -82 193l-98 102h-293v160h293l75 104q64 86 64 195q0 103 -67.5 161t-211.5 58q-111 0 -358 -68l-92 -26l-35 168l92 26q258 74 404 74q224 0 341 -99t117 -286q0 -146 -88 -264l-84 -115l103 -108 q110 -116 110 -271q0 -190 -134 -300.5t-359 -110.5q-169 0 -439 77z" />
<glyph unicode="4" d="M66 389q0 44 36 100l625 965q52 82 145 82q127 0 127 -125v-971h175v-161h-175v-279h-186v279h-639q-54 0 -81 29.5t-27 80.5zM283 440h530v822z" />
<glyph unicode="5" d="M115 82l32 168l95 -27q234 -67 352 -67q167 0 251.5 89t84.5 244q0 324 -338 324q-111 0 -270 -43l-140 -41v795h871v-176h-701v-412q162 43 275 43q234 0 362.5 -122t128.5 -368q0 -232 -138.5 -368.5t-377.5 -136.5q-147 0 -395 71z" />
<glyph unicode="6" d="M119 502v549q0 217 129.5 351t353.5 134q146 0 397 -70l91 -26l-35 -168l-92 26q-246 66 -353 66q-153 0 -227 -82t-74 -231v-129q181 57 314 57q247 0 372 -125.5t125 -361.5q0 -109 -31.5 -200t-92.5 -159.5t-156 -106.5t-215 -38q-235 0 -370.5 140.5t-135.5 373.5z M309 508q0 -166 83 -260t237 -94q145 0 222 89t77 244q0 322 -330 322q-93 0 -289 -49v-252z" />
<glyph unicode="7" d="M125 1356v168h883q58 0 89 -28.5t31 -80.5q0 -48 -26 -106l-541 -1309h-211l572 1356h-797z" />
<glyph unicode="8" d="M86 387q0 157 109 275l100 108l-82 115q-86 119 -86 264q0 181 127.5 286t347.5 105q225 0 353 -104.5t128 -286.5q0 -145 -86 -264l-82 -115l101 -108q108 -117 108 -275q0 -190 -137 -298.5t-377 -108.5q-241 0 -382.5 109t-141.5 298zM274 385q0 -110 87 -175t245 -65 q160 0 245 65t85 175q0 104 -82 195l-94 102h-309l-95 -102q-82 -91 -82 -195zM313 1143q0 -101 66 -197l72 -104h309l74 104q63 97 63 197q0 102 -73.5 164.5t-219.5 62.5q-145 0 -218 -63t-73 -164z" />
<glyph unicode="9" d="M94 1030q0 225 129 365.5t367 140.5q235 0 369.5 -140t134.5 -372v-551q0 -216 -130 -350.5t-352 -134.5q-153 0 -397 69l-92 27l35 168l92 -27q246 -65 354 -65q151 0 225 82t74 231v129q-179 -57 -311 -57q-248 0 -373 124.5t-125 360.5zM287 1034q0 -153 77 -236 t252 -83q94 0 287 49v254q0 165 -82.5 258.5t-234.5 93.5q-145 0 -222 -90t-77 -246z" />
<glyph unicode=":" horiz-adv-x="446" d="M104 109q0 59 32 93t89 34q55 0 87 -34t32 -93q0 -60 -31.5 -93.5t-87.5 -33.5q-57 0 -89 33.5t-32 93.5zM104 977q0 60 32 93.5t89 33.5q56 0 87.5 -33.5t31.5 -93.5q0 -59 -32 -93t-87 -34q-57 0 -89 34t-32 93z" />
<glyph unicode=";" horiz-adv-x="446" d="M70 -139l94 372h205l-115 -417q-22 -72 -96 -72q-53 0 -76 33.5t-12 83.5zM147 977q0 60 31.5 93.5t87.5 33.5q57 0 89 -33.5t32 -93.5q0 -59 -32 -93t-89 -34q-55 0 -87 34t-32 93z" />
<glyph unicode="&#x3c;" d="M100 604q0 93 88 127l924 363v-203l-805 -291l805 -289v-194l-924 358q-88 31 -88 129z" />
<glyph unicode="=" d="M113 354v168h981v-168h-981zM113 700v168h981v-168h-981z" />
<glyph unicode="&#x3e;" d="M98 117v194l805 289l-805 291v203l924 -363q88 -36 88 -127q0 -98 -90 -129z" />
<glyph unicode="?" horiz-adv-x="942" d="M61 1450l91 27q164 53 327 53q182 0 291 -91.5t109 -252.5q0 -109 -39 -185.5t-119 -158.5l-178 -187v-161l-183 -33v129q0 70 13 106t59 84l146 154q67 71 92.5 121t25.5 125q0 89 -59.5 135.5t-165.5 46.5q-122 0 -283 -45l-94 -27zM334 106q0 58 31.5 91.5t87.5 33.5 q55 0 86.5 -33t31.5 -92q0 -58 -31 -91t-87 -33t-87.5 33t-31.5 91z" />
<glyph unicode="@" horiz-adv-x="1910" d="M178 719q0 178 61.5 331t169 261t259.5 169.5t327 61.5q213 0 383 -90t266.5 -252.5t96.5 -368.5q0 -225 -122.5 -370.5t-285.5 -145.5q-49 0 -110 26t-88 26q-39 0 -121 -16.5t-135 -16.5q-162 0 -247 96.5t-85 249.5q0 120 48.5 220t147.5 163t232 63q60 0 196 -16 l9 68h149l-94 -697q3 -3 16 -11.5t40 -19t52 -10.5q94 0 171 108t77 286q0 127 -45.5 233t-125 178t-189 112t-236.5 40q-195 0 -347 -87.5t-234 -241.5t-82 -349q0 -130 39.5 -241t111.5 -192t180 -127t240 -46q98 0 245.5 40t217.5 40q72 0 129 -35l102 -60l-57 -112 l-100 47q-38 18 -84 18q-48 0 -120.5 -18.5t-163 -37t-181.5 -18.5q-164 0 -300 58t-225.5 158.5t-138.5 235.5t-49 290zM702 676q0 -97 48.5 -156t146.5 -59q38 0 190 26l68 500q-96 12 -180 12q-70 0 -123.5 -26.5t-85.5 -72.5t-48 -102.5t-16 -121.5z" />
<glyph unicode="A" horiz-adv-x="1421" d="M29 0l534 1434q37 104 154 104q119 0 153 -102l525 -1436h-217l-121 326h-697l-120 -326h-211zM412 489h596l-293 836z" />
<glyph unicode="B" horiz-adv-x="1398" d="M152 150v1226q0 69 42 108.5t117 39.5h510q196 0 306 -94.5t110 -276.5q0 -131 -88 -262l-84 -117l109 -110q120 -120 120 -277q0 -181 -122 -284t-341 -103h-518q-74 0 -117.5 41t-43.5 109zM354 164h475q128 0 196.5 58.5t68.5 160.5q0 106 -86 192l-105 111h-549v-522 zM354 846h545l78 108q61 94 61 195q0 213 -233 213h-451v-516z" />
<glyph unicode="C" horiz-adv-x="1374" d="M104 758q0 192 52.5 342t146 243t217.5 141t273 48q159 0 405 -76l111 -35l-35 -178l-115 35q-229 72 -354 72q-230 0 -356.5 -146t-126.5 -446q0 -299 127.5 -444.5t357.5 -145.5q119 0 352 70l115 36l35 -180l-111 -33q-249 -77 -405 -77q-121 0 -225 28.5t-190 89.5 t-146.5 151t-94 218.5t-33.5 286.5z" />
<glyph unicode="D" horiz-adv-x="1501" d="M152 150v1224q0 68 43.5 109t117.5 41h394q315 0 501.5 -204t186.5 -562q0 -178 -50.5 -321.5t-142.5 -239t-220 -146.5t-282 -51h-387q-74 0 -117.5 41t-43.5 109zM360 172h334q235 0 364.5 153.5t129.5 432.5q0 276 -134.5 437t-373.5 161h-320v-1184z" />
<glyph unicode="E" horiz-adv-x="1267" d="M152 150v1224q0 68 43.5 109t117.5 41h844v-170h-797v-492h701v-168h-701v-524h803v-170h-850q-74 0 -117.5 41t-43.5 109z" />
<glyph unicode="F" horiz-adv-x="1198" d="M152 0v1374q0 68 43.5 109t117.5 41h824v-172h-777v-518h711v-166h-711v-668h-208z" />
<glyph unicode="G" horiz-adv-x="1492" d="M104 758q0 192 54.5 341.5t152 243t227 141.5t285.5 48q158 0 424 -78l115 -35l-37 -178l-121 35q-251 72 -375 72q-245 0 -379.5 -146.5t-134.5 -445.5q0 -300 141.5 -451t385.5 -151q144 0 327 36v390h-360v163h397q73 0 116.5 -40.5t43.5 -108.5v-383 q0 -127 -133 -168q-201 -59 -399 -59q-159 0 -290 46.5t-230.5 138.5t-154.5 242.5t-55 346.5z" />
<glyph unicode="H" horiz-adv-x="1468" d="M152 0v1524h206v-666h752v666h207v-1524h-207v690h-752v-690h-206z" />
<glyph unicode="I" horiz-adv-x="514" d="M152 0v1524h208v-1524h-208z" />
<glyph unicode="J" horiz-adv-x="802" d="M33 33l26 174q148 -35 215 -35q97 0 139 52.5t42 168.5v1131h204v-1145q0 -187 -97.5 -286t-272.5 -99q-90 0 -256 39z" />
<glyph unicode="K" horiz-adv-x="1363" d="M152 0v1524h202v-846l690 846h254l-448 -531l465 -993h-221l-398 831l-198 -231q-37 -45 -47 -57t-36.5 -49.5t-34.5 -60t-17 -59.5t-9 -77v-297h-202z" />
<glyph unicode="L" horiz-adv-x="1191" d="M152 150v1374h210v-1346h742v-178h-791q-74 0 -117.5 41t-43.5 109z" />
<glyph unicode="M" horiz-adv-x="1794" d="M152 0v1393q0 73 43.5 107t115.5 34q143 0 181 -123l405 -1169l426 1171q42 121 172 121q66 0 106.5 -34.5t40.5 -104.5v-1395h-186v1266l-434 -1188q-26 -86 -129 -86q-106 0 -133 86l-424 1190v-1268h-184z" />
<glyph unicode="N" horiz-adv-x="1517" d="M152 0v1401q0 67 38.5 102t104.5 35q55 0 90.5 -24t63.5 -72l731 -1159v1241h186v-1397q0 -68 -37.5 -102.5t-105.5 -34.5q-55 0 -90.5 24t-61.5 72l-733 1159v-1245h-186z" />
<glyph unicode="O" horiz-adv-x="1632" d="M104 758q0 182 52.5 328.5t147 244t226.5 149.5t291 52q157 0 287 -51.5t223 -149t144 -244t51 -329.5q0 -368 -195.5 -571t-519.5 -203q-322 0 -514.5 204t-192.5 570zM313 758q0 -290 136 -450.5t372 -160.5q234 0 365 159t131 452q0 288 -135.5 447t-370.5 159 q-236 0 -367 -158.5t-131 -447.5z" />
<glyph unicode="P" horiz-adv-x="1304" d="M152 0v1374q0 68 43.5 109t117.5 41h447q203 0 330 -127t127 -342q0 -217 -131.5 -342t-348.5 -125h-385v-588h-200zM352 752h379q138 0 217.5 80.5t79.5 224.5q0 140 -78 221.5t-207 81.5h-391v-608z" />
<glyph unicode="Q" horiz-adv-x="1630" d="M104 758q0 182 52.5 328.5t147 244t226.5 149.5t291 52q320 0 511.5 -203.5t191.5 -568.5q0 -246 -100.5 -417t-282.5 -249q16 -8 44 -20t104.5 -31.5t140.5 -19.5h67v-162h-74q-77 0 -145.5 14.5t-119.5 34.5t-99.5 40.5t-108 35t-123.5 14.5q-161 0 -293 49t-228 142.5 t-149 238.5t-53 328zM313 758q0 -289 135.5 -442.5t372.5 -153.5q235 0 365.5 152.5t130.5 443.5q0 288 -135.5 447t-370.5 159q-236 0 -367 -158.5t-131 -447.5z" />
<glyph unicode="R" horiz-adv-x="1370" d="M152 0v1376q0 69 42 108.5t117 39.5h498q205 0 319.5 -107t114.5 -309q0 -152 -119 -303l-112 -143l311 -662h-221l-277 604h-467v-604h-206zM358 766h512l80 111q94 127 94 227q0 120 -60 189t-189 69h-437v-596z" />
<glyph unicode="S" horiz-adv-x="1314" d="M115 106l41 183l112 -37q268 -92 447 -92q57 0 108 14.5t93 43t67 77t25 111.5q0 93 -53.5 149t-170.5 82l-286 65q-377 81 -377 402q0 108 40.5 192t109.5 135t155 77t184 26q125 0 235.5 -21.5t252.5 -66.5l108 -37l-43 -182l-110 37q-262 92 -439 92q-59 0 -110 -14 t-92 -42.5t-64.5 -76.5t-23.5 -111q0 -93 52 -148t169 -81l286 -66q186 -39 282.5 -137.5t96.5 -265.5q0 -107 -40.5 -191t-109.5 -135t-156 -77.5t-185 -26.5q-127 0 -242 21t-254 65z" />
<glyph unicode="T" horiz-adv-x="1280" d="M61 1352v172h1158v-172h-476v-1352h-208v1352h-474z" />
<glyph unicode="U" horiz-adv-x="1482" d="M141 545v979h207v-977q0 -193 99 -294t294 -101q394 0 394 395v977h206v-979q0 -268 -156.5 -421t-443.5 -153q-288 0 -444 152t-156 422z" />
<glyph unicode="V" horiz-adv-x="1386" d="M29 1524h217l448 -1301l453 1301h211l-524 -1438q-34 -98 -148 -98q-109 0 -143 98z" />
<glyph unicode="W" horiz-adv-x="1894" d="M45 1524h199l225 -1291l352 1203q25 88 131 88q104 0 129 -88l344 -1205l230 1293h194l-268 -1428q-24 -112 -147 -112t-150 104l-338 1188l-346 -1188q-27 -102 -147 -102q-123 0 -142 112z" />
<glyph unicode="X" horiz-adv-x="1449" d="M82 0l514 768l-506 756h238l403 -611l397 611h232l-500 -752l508 -772h-238l-403 629l-412 -629h-233z" />
<glyph unicode="Y" horiz-adv-x="1363" d="M18 1524h234l440 -690l424 690h230l-553 -871v-653h-211v649z" />
<glyph unicode="Z" horiz-adv-x="1335" d="M104 121q0 51 37 100l842 1135h-852v168h971q60 0 89.5 -32.5t29.5 -88.5q0 -51 -37 -100l-838 -1135h881v-168h-1004q-60 0 -89.5 32.5t-29.5 88.5z" />
<glyph unicode="[" horiz-adv-x="604" d="M145 -133v1657h414v-156h-229v-1345h229v-156h-414z" />
<glyph unicode="\" horiz-adv-x="849" d="M20 1524h181l628 -1524h-184z" />
<glyph unicode="]" horiz-adv-x="604" d="M51 23h230v1345h-230v156h414v-1657h-414v156z" />
<glyph unicode="^" d="M115 88l366 940q30 86 121 86q90 0 121 -84l371 -942h-203l-291 797l-289 -797h-196z" />
<glyph unicode="_" horiz-adv-x="1024" d="M-4 -188h1032v-154h-1032v154z" />
<glyph unicode="`" horiz-adv-x="1089" d="M352 1563h262l162 -154q31 -31 31 -68q0 -28 -21.5 -50.5t-58.5 -22.5t-74 32z" />
<glyph unicode="a" horiz-adv-x="1228" d="M96 297q0 74 24 132.5t65 96.5t99 63t123 35.5t140 10.5h311v113q0 215 -244 215q-129 0 -350 -62l-92 -27l-33 160l92 27q233 69 394 69q186 0 299.5 -92.5t113.5 -285.5v-559l136 -80l-74 -136l-101 60q-46 22 -95 22q-26 0 -52 -6l-76 -20q-184 -47 -305 -47 q-177 0 -276 82.5t-99 228.5zM283 305q0 -83 56 -124.5t161 -41.5q106 0 248 37l112 27v286h-313q-129 0 -196.5 -43.5t-67.5 -140.5z" />
<glyph unicode="b" horiz-adv-x="1224" d="M143 197v1345l185 37v-512q179 57 307 57q246 0 369.5 -146t123.5 -423q0 -258 -138.5 -410.5t-379.5 -152.5q-151 0 -342 49q-125 35 -125 156zM328 195q171 -39 274 -39q174 0 256 107t82 294q0 401 -330 401q-83 0 -282 -51v-712z" />
<glyph unicode="c" horiz-adv-x="1079" d="M96 559q0 273 138 421t370 148q116 0 316 -55l92 -26l-31 -164l-92 24q-204 54 -273 54q-325 0 -325 -402q0 -401 327 -401q79 0 271 51l92 27l31 -166l-92 -25q-207 -57 -316 -57q-235 0 -371.5 142.5t-136.5 428.5z" />
<glyph unicode="d" horiz-adv-x="1224" d="M96 555q0 271 130.5 420t373.5 149q102 0 297 -57v475l184 37v-1382q0 -63 -31.5 -100.5t-95.5 -55.5q-205 -49 -346 -49q-244 0 -378 147t-134 416zM285 557q0 -188 82 -294.5t256 -106.5q102 0 274 39v712q-189 48 -283 51q-329 0 -329 -401z" />
<glyph unicode="e" horiz-adv-x="1198" d="M96 557q0 146 41.5 258.5t113 180.5t162 102.5t195.5 34.5q233 0 368.5 -139t135.5 -408q0 -101 -96 -101h-729q7 -164 105.5 -246.5t256.5 -82.5q121 0 305 55l111 35l33 -158l-109 -35q-207 -65 -350 -65q-249 0 -396 145.5t-147 423.5zM287 635h637q0 72 -19 134 t-56.5 110.5t-100 76t-144.5 27.5q-140 0 -224.5 -93.5t-92.5 -254.5z" />
<glyph unicode="f" horiz-adv-x="780" d="M39 940v160h176v108q0 175 90 267t254 92q78 0 242 -37l-25 -160q-135 33 -207 33q-91 0 -129.5 -49t-38.5 -160v-94h347v-160h-347v-940h-186v940h-176z" />
<glyph unicode="g" horiz-adv-x="1230" d="M96 762q0 173 126.5 262.5t346.5 89.5h117q140 0 213 21l246 67l39 -151l-232 -66q4 -3 11 -8.5t24.5 -25t30.5 -43t24 -62.5t11 -82q0 -172 -124 -260t-349 -88q-35 0 -64.5 2.5t-41.5 5.5l-13 2q24 -24 24 -74q0 -57 -47 -114h371q173 0 263.5 -72t90.5 -193 q0 -342 -575 -342q-99 0 -182 16t-151.5 49.5t-107 92.5t-38.5 139q0 114 77 213l105 127q39 47 39 94q0 36 -17 61.5t-59 55.5q-32 23 -55 44t-49 55t-40 80.5t-14 103.5zM274 762q0 -117 79 -167t222 -50q137 0 218 52.5t81 164.5q0 211 -299 211q-301 0 -301 -211z M283 -66q0 -85 86.5 -124t234.5 -39q387 0 387 196q0 56 -47 89.5t-145 33.5h-455q-61 -64 -61 -156z" />
<glyph unicode="h" horiz-adv-x="1173" d="M143 0v1542l187 37v-514q193 59 307 59q111 0 192 -31t126.5 -87.5t66 -126t20.5 -156.5v-723h-184v713q0 241 -248 241q-95 0 -280 -49v-905h-187z" />
<glyph unicode="i" horiz-adv-x="501" d="M131 1446q0 57 32 91t89 34q55 0 87 -34t32 -91q0 -58 -32 -92.5t-87 -34.5q-56 0 -88.5 34.5t-32.5 92.5zM158 0v1116h188v-1116h-188z" />
<glyph unicode="j" horiz-adv-x="516" d="M-4 -217q96 3 136 54t40 159v1120h188v-1126q0 -176 -94 -268.5t-270 -92.5v154zM145 1446q0 57 32 91t87 34q56 0 87.5 -33.5t31.5 -91.5t-31.5 -92.5t-87.5 -34.5q-55 0 -87 34.5t-32 92.5z" />
<glyph unicode="k" horiz-adv-x="1142" d="M143 0v1542l185 37v-1040l522 577h237l-360 -385l379 -731h-217l-307 588l-119 -121q-70 -68 -102.5 -127t-32.5 -154v-186h-185z" />
<glyph unicode="l" horiz-adv-x="479" d="M143 0v1540l193 39v-1579h-193z" />
<glyph unicode="m" horiz-adv-x="1775" d="M143 0v920q0 63 31 99t94 56q155 51 318 51q189 0 284 -92q206 92 375 92q197 0 292 -103t95 -282v-741h-186v725q0 112 -50.5 171.5t-170.5 59.5q-70 0 -128 -14t-143 -45q31 -70 31 -158v-739h-186v725q0 111 -52 172t-172 61q-109 0 -245 -43v-915h-187z" />
<glyph unicode="n" horiz-adv-x="1196" d="M143 0v920q0 124 125 155q191 51 357 51q220 0 324 -109.5t104 -291.5v-725h-187v707q0 119 -59 185t-199 66q-111 0 -276 -43v-915h-189z" />
<glyph unicode="o" horiz-adv-x="1253" d="M96 559q0 270 144 419.5t391 149.5q245 0 385.5 -149t140.5 -420q0 -272 -143.5 -421.5t-390.5 -149.5q-245 0 -386 150.5t-141 420.5zM289 559q0 -202 89.5 -310t252.5 -108q162 0 249 108.5t87 309.5q0 198 -90 308t-254 110q-162 0 -248 -109.5t-86 -308.5z" />
<glyph unicode="p" horiz-adv-x="1224" d="M143 -381v1301q0 125 125 155q206 51 348 51q244 0 378 -148t134 -415q0 -272 -130 -421.5t-373 -149.5q-104 0 -297 59v-395zM328 209q186 -48 282 -51q330 0 330 403q0 187 -82 293.5t-256 106.5q-102 0 -274 -39v-713z" />
<glyph unicode="q" horiz-adv-x="1224" d="M96 561q0 260 138.5 412.5t379.5 152.5q143 0 340 -51q127 -30 127 -155v-1266l-184 -35v432q-177 -59 -309 -59q-245 0 -368.5 146t-123.5 423zM285 561q0 -193 77.5 -298t251.5 -105q81 0 283 51v713q-171 39 -274 39q-174 0 -256 -106.5t-82 -293.5z" />
<glyph unicode="r" horiz-adv-x="745" d="M143 0v920q0 119 125 155q110 31 203 40t250 9v-170q-238 0 -391 -41v-913h-187z" />
<glyph unicode="s" horiz-adv-x="1124" d="M115 80l30 160l95 -27q228 -66 366 -66q94 0 154.5 40.5t60.5 121.5q0 61 -42.5 98t-137.5 52l-217 39q-146 25 -224.5 101t-78.5 198q0 82 32 147t87.5 104.5t126 59.5t151.5 20q106 0 196 -15.5t206 -49.5l90 -27l-33 -164l-94 29q-224 66 -365 66q-93 0 -154 -40 t-61 -120q0 -62 42 -99.5t136 -54.5l217 -37q148 -25 227 -101t79 -196q0 -82 -32.5 -147t-88.5 -105t-126.5 -60.5t-150.5 -20.5q-106 0 -196.5 16t-204.5 51z" />
<glyph unicode="t" horiz-adv-x="851" d="M39 940v160h172v268l184 37v-305h369v-160h-369v-580q0 -110 38.5 -159t131.5 -49q72 0 203 32l25 -161q-169 -35 -246 -35q-167 0 -251.5 90.5t-84.5 267.5v594h-172z" />
<glyph unicode="u" horiz-adv-x="1196" d="M143 393v723h187v-706q0 -118 58.5 -184t197.5 -66q112 0 278 41v915h189v-919q0 -125 -127 -156q-192 -49 -355 -49q-220 0 -324 109.5t-104 291.5z" />
<glyph unicode="v" horiz-adv-x="1122" d="M45 1116h207l305 -930l317 930h203l-381 -1042q-37 -94 -145 -94q-109 0 -143 94z" />
<glyph unicode="w" horiz-adv-x="1634" d="M63 1116h197l166 -917l279 850q24 75 112 75q89 0 113 -75l276 -854l174 921h189l-223 -1030q-10 -51 -46 -78.5t-92 -27.5q-109 0 -139 98l-254 790l-266 -792q-28 -94 -139 -94q-57 0 -93.5 26.5t-46.5 77.5z" />
<glyph unicode="x" horiz-adv-x="1142" d="M57 0l400 561l-391 555h225l289 -420l276 420h219l-377 -543l396 -573h-224l-297 434l-297 -434h-219z" />
<glyph unicode="y" horiz-adv-x="1107" d="M45 1116h211l334 -928l282 928h205l-422 -1253q-79 -236 -325 -236q-89 0 -232 39l27 160q148 -37 199 -37q69 0 104.5 31.5t48.5 89.5l15 51z" />
<glyph unicode="z" horiz-adv-x="1103" d="M96 111q0 51 39 100l651 754h-663v151h782q54 0 81.5 -29.5t27.5 -80.5q0 -52 -39 -101l-649 -753h688v-152h-809q-53 0 -81 30.5t-28 80.5z" />
<glyph unicode="{" horiz-adv-x="593" d="M117 633v121q143 0 143 102q0 37 -26.5 102.5t-53 145t-26.5 149.5q0 127 79.5 199t212.5 72h103v-160h-88q-62 0 -96.5 -32.5t-34.5 -98.5q0 -71 48 -199.5t48 -183.5q0 -106 -82 -156q82 -53 82 -157q0 -55 -48 -183.5t-48 -199.5q0 -66 34.5 -98.5t96.5 -32.5h88v-160 h-103q-133 0 -212.5 71.5t-79.5 198.5q0 70 26.5 149.5t53 145t26.5 102.5q0 103 -143 103z" />
<glyph unicode="|" horiz-adv-x="471" d="M150 -369v1932h174v-1932h-174z" />
<glyph unicode="}" horiz-adv-x="593" d="M55 23h88q62 0 96.5 32.5t34.5 98.5q0 71 -48 199.5t-48 183.5q0 104 82 157q-82 50 -82 156q0 55 48 183.5t48 199.5q0 66 -34.5 98.5t-96.5 32.5h-88v160h103q133 0 213 -72t80 -199q0 -55 -16.5 -117.5t-37 -107.5t-37 -93t-16.5 -79q0 -102 143 -102v-121 q-143 0 -143 -103q0 -31 16.5 -79t37 -93t37 -107.5t16.5 -117.5q0 -127 -80 -198.5t-213 -71.5h-103v160z" />
<glyph unicode="~" d="M82 555q52 133 135.5 194.5t181.5 61.5q102 0 191 -63l115 -84q52 -41 104 -41t94 36.5t82 131.5l131 -86q-51 -133 -133.5 -194.5t-179.5 -61.5q-105 0 -191 63l-116 86q-51 39 -103 39t-95.5 -36.5t-82.5 -131.5z" />
<glyph unicode="&#xa1;" horiz-adv-x="446" d="M106 1036q0 58 31.5 91.5t87.5 33.5q57 0 89 -33t32 -92t-32 -93t-89 -34q-55 0 -87 34t-32 93zM131 -381v1028l191 35v-1063h-191z" />
<glyph unicode="&#xa2;" d="M129 559q0 242 109 385.5t299 175.5v260h172v-260q83 -7 243 -49l90 -27l-30 -163l-92 24q-188 53 -271 53q-325 0 -325 -399t327 -399q77 0 269 51l92 25l30 -164l-90 -27q-160 -42 -243 -49v-266h-172v268q-192 27 -300 167t-108 394z" />
<glyph unicode="&#xa3;" d="M57 80q0 36 19 59t57 23q68 0 118.5 15.5t79 39.5t45.5 59.5t22 68.5t5 75q0 69 -26 137h-260v148h190q-98 162 -130 240t-32 190q0 187 127.5 295t331.5 108q162 0 402 -72l90 -28l-33 -170l-92 28q-225 68 -353 68q-143 0 -211.5 -63.5t-68.5 -172.5q0 -23 1 -41.5 t5.5 -40t6.5 -34t12.5 -38t15.5 -37.5t23 -46t26 -49t34 -62.5t40 -72.5h385v-148h-326q23 -70 23 -139q0 -151 -90 -254h305q99 0 147 37.5t49 128.5h152q0 -158 -88.5 -245t-255.5 -87h-670q-38 0 -57 22t-19 58z" />
<glyph unicode="&#xa4;" horiz-adv-x="1024" d="M41 178l102 111q-96 110 -96 284q0 180 98 283l-104 111l86 86l104 -103q111 97 279 97q170 0 278 -97l107 103l86 -86l-104 -111q96 -110 96 -283q0 -177 -96 -284l104 -111l-86 -84l-107 103q-111 -97 -278 -97q-171 0 -279 97l-104 -103zM182 573q0 -138 95 -237.5 t233 -99.5t233 99.5t95 237.5q0 137 -96 237.5t-232 100.5q-138 0 -233 -100t-95 -238z" />
<glyph unicode="&#xa5;" d="M49 1524h225l338 -637l330 637h221l-379 -664h330v-145h-401v-142h401v-147h-401v-426h-209v426h-406v147h406v142h-406v145h332z" />
<glyph unicode="&#xa6;" horiz-adv-x="471" d="M150 -369v770h174v-770h-174zM150 795v768h174v-768h-174z" />
<glyph unicode="&#xa7;" d="M111 657v394q0 218 131 351.5t360 133.5q149 0 397 -70l93 -26l-35 -168l-92 26q-250 66 -355 66q-157 0 -234 -82t-77 -231v-129q181 57 313 57q488 0 488 -479v-396q0 -217 -132 -351t-360 -134q-157 0 -397 68l-92 26l35 170l92 -26q236 -66 354 -66q157 0 234 82 t77 231v129q-187 -59 -313 -59q-487 0 -487 483zM299 657q0 -152 74 -233.5t250 -81.5q91 0 288 51v109q0 150 -73.5 230.5t-249.5 80.5q-92 0 -289 -51v-105z" />
<glyph unicode="&#xa8;" horiz-adv-x="1097" d="M272 1446q0 57 31.5 91t85.5 34q55 0 86 -33.5t31 -91.5t-31 -91.5t-86 -33.5q-54 0 -85.5 34t-31.5 91zM672 1446q0 58 30.5 91.5t85.5 33.5q54 0 85.5 -34t31.5 -91t-31.5 -91t-85.5 -34q-55 0 -85.5 33.5t-30.5 91.5z" />
<glyph unicode="&#xa9;" horiz-adv-x="1910" d="M152 752q0 172 63.5 322t171.5 253.5t255.5 163t311.5 59.5q163 0 309.5 -58.5t255 -161.5t172.5 -253.5t64 -324.5q0 -171 -64 -321t-172 -255.5t-255.5 -166t-309.5 -60.5q-164 0 -311.5 60.5t-255.5 166t-171.5 255.5t-63.5 321zM297 752q0 -189 87.5 -341 t237.5 -236.5t332 -84.5q134 0 254.5 50t208.5 136.5t139.5 210.5t51.5 265q0 194 -88 345.5t-236.5 232.5t-329.5 81q-183 0 -332.5 -82.5t-237 -234t-87.5 -342.5zM557 748q0 208 108 319t291 111q85 0 244 -43l72 -19l-29 -131l-72 21q-136 34 -206 34q-252 0 -252 -292 q0 -291 254 -291q60 0 204 39l72 18l29 -129l-72 -20q-152 -41 -244 -41q-186 0 -292.5 105.5t-106.5 318.5z" />
<glyph unicode="&#xaa;" d="M211 913q0 261 348 261h217v65q0 156 -162 156q-98 0 -262 -41l-88 -23l-28 135l92 25q165 49 293 49q141 0 227 -72t86 -227v-422l94 -53l-57 -115l-86 41q-47 21 -131 4l-92 -18q-116 -21 -164 -21q-135 0 -211 71.5t-76 184.5zM377 920q0 -129 147 -129q55 0 168 22 l84 16v218h-217q-93 0 -137.5 -28.5t-44.5 -98.5z" />
<glyph unicode="&#xab;" horiz-adv-x="1159" d="M102 575q0 55 48 103l288 287h221l-389 -390l389 -387h-221l-288 285q-48 48 -48 102zM537 575q0 58 45 103l290 287h222l-389 -390l389 -387h-222l-290 285q-45 45 -45 102z" />
<glyph unicode="&#xac;" d="M109 702v164h978v-575h-172v411h-806z" />
<glyph unicode="&#xad;" d="M117 522v168h975v-168h-975z" />
<glyph unicode="&#xae;" horiz-adv-x="1910" d="M152 752q0 172 63.5 322t171.5 253.5t255.5 163t311.5 59.5q163 0 309.5 -58.5t255 -161.5t172.5 -253.5t64 -324.5q0 -171 -64 -321t-172 -255.5t-255.5 -166t-309.5 -60.5q-164 0 -311.5 60.5t-255.5 166t-171.5 255.5t-63.5 321zM297 752q0 -189 87.5 -341 t237.5 -236.5t332 -84.5q134 0 254.5 50t208.5 136.5t139.5 210.5t51.5 265q0 194 -88 345.5t-236.5 232.5t-329.5 81q-183 0 -332.5 -82.5t-237 -234t-87.5 -342.5zM657 346v719q0 106 121 106h266q114 0 181 -64.5t67 -172.5q0 -86 -49 -156l-65 -94l165 -338h-157 l-137 291h-246v-291h-146zM803 758h262l49 71q29 45 29 103q0 56 -32.5 88.5t-86.5 32.5h-221v-295z" />
<glyph unicode="&#xaf;" horiz-adv-x="1085" d="M221 1333v166h649v-166h-649z" />
<glyph unicode="&#xb0;" d="M217 1165q0 174 106 287t283 113q176 0 279.5 -112.5t103.5 -287.5q0 -176 -105.5 -288.5t-281.5 -112.5q-178 0 -281.5 112.5t-103.5 288.5zM377 1165q0 -120 60.5 -194t168.5 -74t166.5 73t58.5 195q0 118 -61 190t-168 72q-108 0 -166.5 -71.5t-58.5 -190.5z" />
<glyph unicode="&#xb1;" d="M113 0v158h981v-158h-981zM113 594v166h397v350h178v-350h406v-166h-406v-334h-178v334h-397z" />
<glyph unicode="&#xb2;" horiz-adv-x="612" d="M57 1079q0 35 33 64l229 215q51 49 71 81.5t20 80.5t-28.5 71t-78.5 23q-65 0 -153 -31l-66 -20l-25 116l62 21q101 35 190 35q101 0 167.5 -52.5t66.5 -162.5q0 -124 -129 -242l-168 -156h299v-116h-414q-35 0 -55.5 19.5t-20.5 53.5z" />
<glyph unicode="&#xb3;" horiz-adv-x="612" d="M47 1051l27 120l65 -20q103 -35 172 -35q54 0 82.5 22.5t28.5 63.5q0 42 -29 74l-35 35h-145v114h143l27 35q23 38 23 74q0 80 -101 80q-62 0 -151 -29l-68 -22l-23 118l62 21q100 33 188 33q110 0 169 -49.5t59 -143.5q0 -76 -43 -133l-27 -35l33 -35q57 -63 57 -137 q0 -95 -67.5 -150t-180.5 -55q-85 0 -200 33z" />
<glyph unicode="&#xb4;" horiz-adv-x="1089" d="M387 1341q0 37 31 68l164 154h262l-301 -263q-37 -32 -76 -32q-36 0 -58 23t-22 50z" />
<glyph unicode="&#xb5;" d="M143 -381v1497h187v-706q0 -118 58.5 -183t197.5 -65q113 0 278 43v911h189v-915q0 -125 -127 -156q-192 -49 -355 -49q-167 -3 -243 61v-438h-185z" />
<glyph unicode="&#xb6;" horiz-adv-x="1300" d="M88 993q0 112 31 207t92 168t158.5 114.5t222.5 41.5h577v-1905h-165v1753h-273v-1753h-168v846q-117 2 -208.5 44t-149 114t-87.5 166t-30 204z" />
<glyph unicode="&#xb7;" horiz-adv-x="765" d="M268 750q0 60 31.5 93.5t87.5 33.5t87.5 -33.5t31.5 -93.5q0 -59 -32 -93t-87 -34t-87 34t-32 93z" />
<glyph unicode="&#xb8;" horiz-adv-x="1085" d="M352 -362l29 96q86 -35 154 -35q90 0 90 59q0 22 -13.5 36t-37.5 19.5t-57 7t-73 -0.5l-10 18l84 162h94l-49 -100q79 0 128.5 -35t49.5 -103q0 -75 -53.5 -121.5t-150.5 -46.5q-81 0 -185 44z" />
<glyph unicode="&#xb9;" horiz-adv-x="612" d="M57 1006v118h203v480h-20q-60 0 -117 -29l-33 119q65 30 152 30h63q47 0 71.5 -23t24.5 -65v-512h162v-118h-506z" />
<glyph unicode="&#xba;" d="M205 1102q0 204 107.5 322t289.5 118t286.5 -117.5t104.5 -322.5t-107 -324t-288 -119q-184 0 -288.5 118t-104.5 325zM371 1102q0 -148 60.5 -229.5t170.5 -81.5q109 0 168 82t59 229q0 145 -61 226t-170 81q-111 0 -169 -80t-58 -227z" />
<glyph unicode="&#xbb;" horiz-adv-x="1159" d="M63 188l392 387l-392 390h224l288 -287q48 -48 48 -103q0 -54 -48 -102l-288 -285h-224zM500 188l387 387l-387 390h221l289 -287q47 -47 47 -103q0 -55 -47 -102l-289 -285h-221z" />
<glyph unicode="&#xbc;" horiz-adv-x="1271" d="M43 805v119h203v479h-21q-59 0 -116 -29l-33 119q67 31 151 31h64q47 0 71.5 -23t24.5 -65v-512h162v-119h-506zM225 0l768 1524h154l-766 -1524h-156zM676 186q0 31 18 56l277 428q30 49 90 49q82 0 82 -80v-410h76v-116h-76v-123h-135v123h-260q-36 0 -54 19.5 t-18 53.5zM840 229h168v260z" />
<glyph unicode="&#xbd;" horiz-adv-x="1271" d="M43 805v119h203v479h-21q-59 0 -116 -29l-33 119q67 31 151 31h64q47 0 71.5 -23t24.5 -65v-512h162v-119h-506zM184 0l768 1524h154l-766 -1524h-156zM723 74q0 34 33 63l229 215q50 49 70 81.5t20 80.5q0 94 -106 94q-69 0 -154 -30l-65 -21l-25 117l61 20 q101 35 191 35q101 0 167 -52.5t66 -162.5q0 -124 -129 -242l-168 -155h299v-117h-413q-35 0 -55.5 20t-20.5 54z" />
<glyph unicode="&#xbe;" horiz-adv-x="1271" d="M37 850l26 121l66 -21q103 -35 172 -35q54 0 82.5 22.5t28.5 63.5q0 42 -29 74l-35 35h-145v115h143l27 35q22 36 22 73q0 80 -100 80q-63 0 -152 -29l-67 -22l-23 119l62 20q100 33 188 33q110 0 168.5 -49.5t58.5 -143.5q0 -76 -43 -133l-26 -34l33 -35q57 -63 57 -138 q0 -95 -67.5 -149.5t-180.5 -54.5q-89 0 -201 32zM190 0l768 1524h154l-766 -1524h-156zM674 197q0 30 18 55l277 428q30 49 90 49q82 0 82 -80v-409h76v-117h-76v-123h-135v123h-261q-35 0 -53 20t-18 54zM838 240h168v260z" />
<glyph unicode="&#xbf;" horiz-adv-x="942" d="M66 -43q0 109 38.5 185.5t118.5 158.5l180 184v164l181 33v-129q0 -70 -13 -106.5t-57 -86.5l-145 -151q-70 -75 -95.5 -122.5t-25.5 -123.5q0 -85 57.5 -133.5t167.5 -48.5q121 0 285 45l92 27l33 -160l-90 -27q-164 -53 -328 -53q-182 0 -290.5 91.5t-108.5 252.5z M373 1036q0 58 31.5 91.5t87.5 33.5q57 0 87.5 -33t30.5 -92t-31 -93t-87 -34q-55 0 -87 34t-32 93z" />
<glyph unicode="&#xc0;" horiz-adv-x="1421" d="M29 0l534 1434q37 104 154 104q119 0 153 -102l525 -1436h-217l-121 326h-697l-120 -326h-211zM412 489h596l-293 836zM455 1864h274l156 -107q33 -24 33 -63q0 -27 -20 -48.5t-56 -21.5q-34 0 -76 27z" />
<glyph unicode="&#xc1;" horiz-adv-x="1421" d="M29 0l534 1434q37 104 154 104q119 0 153 -102l525 -1436h-217l-121 326h-697l-120 -326h-211zM412 489h596l-293 836zM508 1694q0 40 35 63l155 107h275l-314 -213q-42 -27 -75 -27q-36 0 -56 21.5t-20 48.5z" />
<glyph unicode="&#xc2;" horiz-adv-x="1421" d="M29 0l534 1434q37 104 154 104q119 0 153 -102l525 -1436h-217l-121 326h-697l-120 -326h-211zM342 1626l260 199q49 39 113 39q65 0 114 -39l258 -199h-239l-133 103l-133 -103h-240zM412 489h596l-293 836z" />
<glyph unicode="&#xc3;" horiz-adv-x="1421" d="M29 0l534 1434q37 104 154 104q119 0 153 -102l525 -1436h-217l-121 326h-697l-120 -326h-211zM313 1696q26 65 70 108.5t89.5 60.5t94.5 17q92 0 154 -41l88 -51q40 -25 82 -25q40 0 70.5 23.5t60.5 87.5l121 -68q-37 -95 -106.5 -140.5t-145.5 -45.5q-85 0 -154 41 l-88 53q-42 23 -82 23t-71 -24t-60 -87zM412 489h596l-293 836z" />
<glyph unicode="&#xc4;" horiz-adv-x="1421" d="M29 0l534 1434q37 104 154 104q119 0 153 -102l525 -1436h-217l-121 326h-697l-120 -326h-211zM406 1745q0 56 30 88.5t84 32.5t84.5 -32.5t30.5 -88.5t-30.5 -88.5t-84.5 -32.5t-84 32.5t-30 88.5zM412 489h596l-293 836zM801 1745q0 56 30 88.5t84 32.5t84.5 -32.5 t30.5 -88.5t-30.5 -88.5t-84.5 -32.5t-84 32.5t-30 88.5z" />
<glyph unicode="&#xc5;" horiz-adv-x="1421" d="M29 0l534 1434q37 104 154 104q119 0 153 -102l525 -1436h-217l-121 326h-697l-120 -326h-211zM412 489h596l-293 836zM498 1806q0 86 61.5 138.5t155.5 52.5q93 0 156 -52.5t63 -138.5q0 -84 -64 -138t-155 -54q-92 0 -154.5 53.5t-62.5 138.5zM610 1806q0 -42 29.5 -68 t75.5 -26t76 26t30 68q0 40 -29.5 66t-76.5 26t-76 -26t-29 -66z" />
<glyph unicode="&#xc6;" horiz-adv-x="2113" d="M29 0l569 1389q57 135 207 135h1196v-170h-797v-492h713v-166h-713v-526h803v-170h-848q-75 0 -117.5 40.5t-42.5 109.5v174h-624l-129 -324h-217zM434 489h565v865h-223z" />
<glyph unicode="&#xc7;" horiz-adv-x="1380" d="M104 758q0 192 52.5 342t146 243t217.5 141t273 48q159 0 405 -76l111 -35l-35 -178l-115 35q-229 72 -354 72q-230 0 -356.5 -146t-126.5 -446q0 -299 127.5 -444.5t357.5 -145.5q119 0 352 70l115 36l35 -180l-111 -33q-210 -67 -364 -75l-41 -86q79 0 128.5 -35 t49.5 -103q0 -74 -54 -121t-151 -47q-80 0 -184 44l28 96q86 -35 154 -35q90 0 90 59q0 22 -13 36t-37 19.5t-57 7t-73 -0.5l-10 18l75 148q-142 8 -256.5 57.5t-200 142.5t-132 238.5t-46.5 333.5z" />
<glyph unicode="&#xc8;" horiz-adv-x="1267" d="M152 150v1224q0 68 43.5 109t117.5 41h844v-170h-797v-492h701v-168h-701v-524h803v-170h-850q-74 0 -117.5 41t-43.5 109zM369 1864h274l156 -107q32 -23 32 -63q0 -28 -19.5 -49t-55.5 -21q-34 0 -76 27z" />
<glyph unicode="&#xc9;" horiz-adv-x="1267" d="M152 150v1224q0 68 43.5 109t117.5 41h844v-170h-797v-492h701v-168h-701v-524h803v-170h-850q-74 0 -117.5 41t-43.5 109zM487 1694q0 40 35 63l156 107h274l-313 -213q-42 -27 -76 -27q-36 0 -56 21.5t-20 48.5z" />
<glyph unicode="&#xca;" horiz-adv-x="1267" d="M152 150v1224q0 68 43.5 109t117.5 41h844v-170h-797v-492h701v-168h-701v-524h803v-170h-850q-74 0 -117.5 41t-43.5 109zM285 1626l260 199q49 39 112 39q66 0 115 -39l258 -199h-239l-134 103l-133 -103h-239z" />
<glyph unicode="&#xcb;" horiz-adv-x="1267" d="M152 150v1224q0 68 43.5 109t117.5 41h844v-170h-797v-492h701v-168h-701v-524h803v-170h-850q-74 0 -117.5 41t-43.5 109zM352 1745q0 56 30.5 88.5t84.5 32.5t84.5 -32.5t30.5 -88.5t-30.5 -88.5t-84.5 -32.5t-84.5 32.5t-30.5 88.5zM748 1745q0 56 30 88.5t84 32.5 t84.5 -32.5t30.5 -88.5t-30.5 -88.5t-84.5 -32.5t-84 32.5t-30 88.5z" />
<glyph unicode="&#xcc;" horiz-adv-x="514" d="M-33 1864h275l155 -107q33 -24 33 -63q0 -27 -20 -48.5t-56 -21.5q-33 0 -75 27zM152 0v1524h208v-1524h-208z" />
<glyph unicode="&#xcd;" horiz-adv-x="514" d="M90 1694q0 40 35 63l156 107h274l-313 -213q-42 -27 -76 -27q-36 0 -56 21.5t-20 48.5zM152 0v1524h208v-1524h-208z" />
<glyph unicode="&#xce;" horiz-adv-x="514" d="M-117 1626l260 199q49 39 113 39q66 0 115 -39l258 -199h-240l-133 103l-133 -103h-240zM152 0v1524h208v-1524h-208z" />
<glyph unicode="&#xcf;" horiz-adv-x="514" d="M-55 1745q0 56 30 88.5t84 32.5t84.5 -32.5t30.5 -88.5t-30.5 -88.5t-84.5 -32.5t-84 32.5t-30 88.5zM152 0v1524h208v-1524h-208zM340 1745q0 56 30.5 88.5t84.5 32.5t84 -32.5t30 -88.5t-30 -88.5t-84 -32.5t-84.5 32.5t-30.5 88.5z" />
<glyph unicode="&#xd0;" horiz-adv-x="1505" d="M20 705v149h138v520q0 68 43.5 109t117.5 41h394q315 0 501.5 -204t186.5 -562q0 -356 -189.5 -557t-504.5 -201h-388q-74 0 -117.5 41t-43.5 109v555h-138zM367 172h333q235 0 364.5 153.5t129.5 432.5q0 276 -134.5 437t-373.5 161h-319v-502h434v-149h-434v-533z" />
<glyph unicode="&#xd1;" horiz-adv-x="1517" d="M152 0v1401q0 67 38.5 102t104.5 35q55 0 90.5 -24t63.5 -72l731 -1159v1241h186v-1397q0 -68 -37.5 -102.5t-105.5 -34.5q-55 0 -90.5 24t-61.5 72l-733 1159v-1245h-186zM358 1696q26 65 70 108.5t89.5 60.5t94.5 17q92 0 154 -41l88 -51q40 -25 82 -25q40 0 70.5 23.5 t60.5 87.5l121 -68q-37 -95 -106.5 -140.5t-145.5 -45.5q-85 0 -154 41l-88 53q-42 23 -82 23t-71 -24t-60 -87z" />
<glyph unicode="&#xd2;" horiz-adv-x="1632" d="M104 758q0 182 52.5 328.5t147 244t226.5 149.5t291 52q157 0 287 -51.5t223 -149t144 -244t51 -329.5q0 -368 -195.5 -571t-519.5 -203q-322 0 -514.5 204t-192.5 570zM313 758q0 -290 136 -450.5t372 -160.5q234 0 365 159t131 452q0 288 -135.5 447t-370.5 159 q-236 0 -367 -158.5t-131 -447.5zM524 1864h275l155 -107q33 -24 33 -63q0 -27 -20 -48.5t-56 -21.5q-33 0 -75 27z" />
<glyph unicode="&#xd3;" horiz-adv-x="1632" d="M104 758q0 182 52.5 328.5t147 244t226.5 149.5t291 52q157 0 287 -51.5t223 -149t144 -244t51 -329.5q0 -368 -195.5 -571t-519.5 -203q-322 0 -514.5 204t-192.5 570zM313 758q0 -290 136 -450.5t372 -160.5q234 0 365 159t131 452q0 288 -135.5 447t-370.5 159 q-236 0 -367 -158.5t-131 -447.5zM657 1694q0 40 35 63l156 107h274l-313 -213q-42 -27 -76 -27q-36 0 -56 21.5t-20 48.5z" />
<glyph unicode="&#xd4;" horiz-adv-x="1632" d="M104 758q0 182 52.5 328.5t147 244t226.5 149.5t291 52q157 0 287 -51.5t223 -149t144 -244t51 -329.5q0 -368 -195.5 -571t-519.5 -203q-322 0 -514.5 204t-192.5 570zM313 758q0 -290 136 -450.5t372 -160.5q234 0 365 159t131 452q0 288 -135.5 447t-370.5 159 q-236 0 -367 -158.5t-131 -447.5zM451 1626l260 199q49 39 112 39q66 0 115 -39l258 -199h-240l-133 103l-133 -103h-239z" />
<glyph unicode="&#xd5;" horiz-adv-x="1632" d="M104 758q0 182 52.5 328.5t147 244t226.5 149.5t291 52q157 0 287 -51.5t223 -149t144 -244t51 -329.5q0 -368 -195.5 -571t-519.5 -203q-322 0 -514.5 204t-192.5 570zM313 758q0 -290 136 -450.5t372 -160.5q234 0 365 159t131 452q0 288 -135.5 447t-370.5 159 q-236 0 -367 -158.5t-131 -447.5zM416 1696q26 65 70 108.5t89.5 60.5t94.5 17q91 0 153 -41l88 -51q40 -25 82 -25q40 0 70.5 23.5t60.5 87.5l121 -68q-37 -95 -106.5 -140.5t-145.5 -45.5q-84 0 -153 41l-88 53q-42 23 -82 23t-71 -24t-60 -87z" />
<glyph unicode="&#xd6;" horiz-adv-x="1632" d="M104 758q0 182 52.5 328.5t147 244t226.5 149.5t291 52q157 0 287 -51.5t223 -149t144 -244t51 -329.5q0 -368 -195.5 -571t-519.5 -203q-322 0 -514.5 204t-192.5 570zM313 758q0 -290 136 -450.5t372 -160.5q234 0 365 159t131 452q0 288 -135.5 447t-370.5 159 q-236 0 -367 -158.5t-131 -447.5zM504 1745q0 56 30 88.5t84 32.5t84.5 -32.5t30.5 -88.5t-30.5 -88.5t-84.5 -32.5t-84 32.5t-30 88.5zM899 1745q0 56 30.5 88.5t84.5 32.5t84 -32.5t30 -88.5t-30 -88.5t-84 -32.5t-84.5 32.5t-30.5 88.5z" />
<glyph unicode="&#xd7;" d="M141 258l336 340l-336 338l125 123l338 -336l336 336l125 -123l-336 -338l336 -340l-125 -123l-336 336l-338 -336z" />
<glyph unicode="&#xd8;" horiz-adv-x="1632" d="M104 758q0 182 52.5 328.5t147 244t226.5 149.5t291 52q157 0 295 -55l80 145h160l-117 -213q138 -97 212.5 -262.5t74.5 -388.5q0 -368 -195.5 -571t-519.5 -203q-170 0 -309 59l-80 -149h-164l119 221q-131 97 -202 260.5t-71 382.5zM313 758q0 -314 156 -473l561 1034 q-98 45 -219 45q-236 0 -367 -158.5t-131 -447.5zM586 199q101 -52 235 -52q234 0 365 159t131 452q0 319 -168 481z" />
<glyph unicode="&#xd9;" horiz-adv-x="1482" d="M141 545v979h207v-977q0 -193 99 -294t294 -101q394 0 394 395v977h206v-979q0 -268 -156.5 -421t-443.5 -153q-288 0 -444 152t-156 422zM440 1864h275l155 -107q33 -24 33 -63q0 -27 -20 -48.5t-56 -21.5q-33 0 -75 27z" />
<glyph unicode="&#xda;" horiz-adv-x="1482" d="M141 545v979h207v-977q0 -193 99 -294t294 -101q394 0 394 395v977h206v-979q0 -268 -156.5 -421t-443.5 -153q-288 0 -444 152t-156 422zM590 1694q0 40 35 63l155 107h275l-314 -213q-42 -27 -75 -27q-36 0 -56 21.5t-20 48.5z" />
<glyph unicode="&#xdb;" horiz-adv-x="1482" d="M141 545v979h207v-977q0 -193 99 -294t294 -101q394 0 394 395v977h206v-979q0 -268 -156.5 -421t-443.5 -153q-288 0 -444 152t-156 422zM373 1626l260 199q49 39 112 39q66 0 115 -39l258 -199h-239l-134 103l-133 -103h-239z" />
<glyph unicode="&#xdc;" horiz-adv-x="1482" d="M141 545v979h207v-977q0 -193 99 -294t294 -101q394 0 394 395v977h206v-979q0 -268 -156.5 -421t-443.5 -153q-288 0 -444 152t-156 422zM440 1745q0 56 30.5 88.5t84.5 32.5t84.5 -32.5t30.5 -88.5t-30.5 -88.5t-84.5 -32.5t-84.5 32.5t-30.5 88.5zM836 1745 q0 56 30 88.5t84 32.5t84.5 -32.5t30.5 -88.5t-30.5 -88.5t-84.5 -32.5t-84 32.5t-30 88.5z" />
<glyph unicode="&#xdd;" horiz-adv-x="1363" d="M18 1524h234l440 -690l424 690h230l-553 -871v-653h-211v649zM567 1694q0 40 35 63l156 107h274l-313 -213q-42 -27 -76 -27q-36 0 -56 21.5t-20 48.5z" />
<glyph unicode="&#xde;" horiz-adv-x="1304" d="M152 0v1524h200v-258h408q203 0 330 -127t127 -342q0 -217 -132 -343t-348 -126h-385v-328h-200zM352 494h379q138 0 217.5 80t79.5 225q0 140 -78 221.5t-207 81.5h-391v-608z" />
<glyph unicode="&#xdf;" horiz-adv-x="1167" d="M135 0v1159q0 109 33 191t91 130.5t131 72.5t159 24q187 0 304.5 -100t117.5 -279q0 -129 -78 -250l-105 -147l144 -123q149 -130 149 -299q0 -172 -113.5 -275.5t-303.5 -103.5h-175v158h173q121 0 178 60.5t57 162.5q0 55 -24 98t-74 88l-127 117q-96 87 -25 199 l88 127q53 84 53 186q0 99 -64.5 159t-174.5 60q-227 0 -227 -254v-1161h-187z" />
<glyph unicode="&#xe0;" horiz-adv-x="1228" d="M96 297q0 74 24 132.5t65 96.5t99 63t123 35.5t140 10.5h311v113q0 215 -244 215q-129 0 -350 -62l-92 -27l-33 160l92 27q233 69 394 69q186 0 299.5 -92.5t113.5 -285.5v-559l136 -80l-74 -136l-101 60q-70 34 -147 16l-76 -20q-184 -47 -305 -47q-177 0 -276 82.5 t-99 228.5zM283 305q0 -83 56 -124.5t161 -41.5q106 0 248 37l112 27v286h-313q-129 0 -196.5 -43.5t-67.5 -140.5zM340 1563h262l162 -154q31 -31 31 -68q0 -28 -21.5 -50.5t-58.5 -22.5t-74 32z" />
<glyph unicode="&#xe1;" horiz-adv-x="1228" d="M96 297q0 74 24 132.5t65 96.5t99 63t123 35.5t140 10.5h311v113q0 215 -244 215q-129 0 -350 -62l-92 -27l-33 160l92 27q233 69 394 69q186 0 299.5 -92.5t113.5 -285.5v-559l136 -80l-74 -136l-101 60q-70 34 -147 16l-76 -20q-184 -47 -305 -47q-177 0 -276 82.5 t-99 228.5zM283 305q0 -83 56 -124.5t161 -41.5q106 0 248 37l112 27v286h-313q-129 0 -196.5 -43.5t-67.5 -140.5zM473 1341q0 37 31 68l164 154h262l-301 -263q-37 -32 -76 -32q-36 0 -58 23t-22 50z" />
<glyph unicode="&#xe2;" horiz-adv-x="1228" d="M96 297q0 74 24 132.5t65 96.5t99 63t123 35.5t140 10.5h311v113q0 215 -244 215q-129 0 -350 -62l-92 -27l-33 160l92 27q233 69 394 69q186 0 299.5 -92.5t113.5 -285.5v-559l136 -80l-74 -136l-101 60q-70 34 -147 16l-76 -20q-184 -47 -305 -47q-177 0 -276 82.5 t-99 228.5zM248 1257l266 265q45 45 111 45t108 -45l268 -265h-235l-141 166l-140 -166h-237zM283 305q0 -83 56 -124.5t161 -41.5q106 0 248 37l112 27v286h-313q-129 0 -196.5 -43.5t-67.5 -140.5z" />
<glyph unicode="&#xe3;" horiz-adv-x="1228" d="M96 297q0 74 24 132.5t65 96.5t99 63t123 35.5t140 10.5h311v113q0 215 -244 215q-129 0 -350 -62l-92 -27l-33 160l92 27q233 69 394 69q186 0 299.5 -92.5t113.5 -285.5v-559l136 -80l-74 -136l-101 60q-70 34 -147 16l-76 -20q-184 -47 -305 -47q-177 0 -276 82.5 t-99 228.5zM180 1346q40 114 115.5 168.5t155.5 54.5q91 0 153 -51l96 -70q45 -31 84 -31q87 0 140 135l125 -71q-38 -113 -113 -168.5t-156 -55.5q-86 0 -155 54l-95 67q-48 33 -84 33q-88 0 -141 -137zM283 305q0 -83 56 -124.5t161 -41.5q106 0 248 37l112 27v286h-313 q-129 0 -196.5 -43.5t-67.5 -140.5z" />
<glyph unicode="&#xe4;" horiz-adv-x="1228" d="M96 297q0 74 24 132.5t65 96.5t99 63t123 35.5t140 10.5h311v113q0 215 -244 215q-129 0 -350 -62l-92 -27l-33 160l92 27q233 69 394 69q186 0 299.5 -92.5t113.5 -285.5v-559l136 -80l-74 -136l-101 60q-70 34 -147 16l-76 -20q-184 -47 -305 -47q-177 0 -276 82.5 t-99 228.5zM283 305q0 -83 56 -124.5t161 -41.5q106 0 248 37l112 27v286h-313q-129 0 -196.5 -43.5t-67.5 -140.5zM315 1446q0 57 31.5 91t85.5 34q55 0 86 -33.5t31 -91.5t-31 -91.5t-86 -33.5q-54 0 -85.5 34t-31.5 91zM715 1446q0 58 30.5 91.5t85.5 33.5q54 0 85.5 -34 t31.5 -91t-31.5 -91t-85.5 -34q-55 0 -85.5 33.5t-30.5 91.5z" />
<glyph unicode="&#xe5;" horiz-adv-x="1228" d="M96 297q0 74 24 132.5t65 96.5t99 63t123 35.5t140 10.5h311v113q0 215 -244 215q-129 0 -350 -62l-92 -27l-33 160l92 27q233 69 394 69q186 0 299.5 -92.5t113.5 -285.5v-559l136 -80l-74 -136l-101 60q-70 34 -147 16l-76 -20q-184 -47 -305 -47q-177 0 -276 82.5 t-99 228.5zM283 305q0 -83 56 -124.5t161 -41.5q106 0 248 37l112 27v286h-313q-129 0 -196.5 -43.5t-67.5 -140.5zM375 1427q0 98 67 160t168 62t169.5 -62t68.5 -160q0 -95 -69 -158t-169 -63q-99 0 -167 62.5t-68 158.5zM492 1427q0 -51 32 -83.5t86 -32.5t87.5 32.5 t33.5 83.5q0 49 -33.5 83t-87.5 34t-86 -34t-32 -83z" />
<glyph unicode="&#xe6;" horiz-adv-x="1959" d="M96 297q0 74 24 132.5t65 96.5t99 63t123 35.5t140 10.5h311v113q0 215 -244 215q-129 0 -350 -62l-92 -27l-33 160l92 27q233 69 394 69q262 0 356 -178q69 90 169.5 135.5t219.5 45.5q233 0 368.5 -139t135.5 -408q0 -101 -96 -101h-729q7 -164 105.5 -246.5 t256.5 -82.5q121 0 305 55l111 35l33 -158l-109 -35q-207 -65 -350 -65q-168 0 -291 67q-64 33 -143 17l-189 -39q-6 -1 -58.5 -12t-70 -14t-57 -9.5t-67.5 -9t-54 -2.5q-177 0 -276 82.5t-99 228.5zM283 305q0 -83 56 -124.5t161 -41.5q102 0 248 35l196 43 q-71 111 -80 272h-317q-129 0 -196.5 -43.5t-67.5 -140.5zM1049 635h637q0 72 -19 134t-56.5 110.5t-100 76t-144.5 27.5q-140 0 -224.5 -93.5t-92.5 -254.5z" />
<glyph unicode="&#xe7;" horiz-adv-x="1079" d="M96 559q0 273 138 421t370 148q116 0 316 -55l92 -26l-31 -164l-92 24q-204 54 -273 54q-325 0 -325 -402q0 -401 327 -401q79 0 271 51l92 27l31 -166l-92 -25q-173 -47 -273 -55l-43 -90q79 0 128.5 -35t49.5 -103q0 -75 -53.5 -121.5t-150.5 -46.5q-81 0 -185 44 l29 96q86 -35 153 -35q91 0 91 59q0 22 -13.5 36t-37.5 19.5t-57 7t-73 -0.5l-10 18l78 152q-212 14 -334.5 156.5t-122.5 412.5z" />
<glyph unicode="&#xe8;" horiz-adv-x="1198" d="M96 557q0 146 41.5 258.5t113 180.5t162 102.5t195.5 34.5q233 0 368.5 -139t135.5 -408q0 -101 -96 -101h-729q7 -164 105.5 -246.5t256.5 -82.5q121 0 305 55l111 35l33 -158l-109 -35q-207 -65 -350 -65q-249 0 -396 145.5t-147 423.5zM287 635h637q0 72 -19 134 t-56.5 110.5t-100 76t-144.5 27.5q-140 0 -224.5 -93.5t-92.5 -254.5zM332 1563h262l162 -154q30 -30 30 -68q0 -28 -21 -50.5t-58 -22.5t-74 32z" />
<glyph unicode="&#xe9;" horiz-adv-x="1198" d="M96 557q0 146 41.5 258.5t113 180.5t162 102.5t195.5 34.5q233 0 368.5 -139t135.5 -408q0 -101 -96 -101h-729q7 -164 105.5 -246.5t256.5 -82.5q121 0 305 55l111 35l33 -158l-109 -35q-207 -65 -350 -65q-249 0 -396 145.5t-147 423.5zM287 635h637q0 72 -19 134 t-56.5 110.5t-100 76t-144.5 27.5q-140 0 -224.5 -93.5t-92.5 -254.5zM487 1341q0 37 31 68l164 154h262l-301 -263q-37 -32 -76 -32q-36 0 -58 23t-22 50z" />
<glyph unicode="&#xea;" horiz-adv-x="1198" d="M96 557q0 146 41.5 258.5t113 180.5t162 102.5t195.5 34.5q233 0 368.5 -139t135.5 -408q0 -101 -96 -101h-729q7 -164 105.5 -246.5t256.5 -82.5q121 0 305 55l111 35l33 -158l-109 -35q-207 -65 -350 -65q-249 0 -396 145.5t-147 423.5zM238 1257l266 265q45 45 110 45 q67 0 109 -45l268 -265h-235l-142 166l-139 -166h-237zM287 635h637q0 72 -19 134t-56.5 110.5t-100 76t-144.5 27.5q-140 0 -224.5 -93.5t-92.5 -254.5z" />
<glyph unicode="&#xeb;" horiz-adv-x="1198" d="M96 557q0 146 41.5 258.5t113 180.5t162 102.5t195.5 34.5q233 0 368.5 -139t135.5 -408q0 -101 -96 -101h-729q7 -164 105.5 -246.5t256.5 -82.5q121 0 305 55l111 35l33 -158l-109 -35q-207 -65 -350 -65q-249 0 -396 145.5t-147 423.5zM287 635h637q0 72 -19 134 t-56.5 110.5t-100 76t-144.5 27.5q-140 0 -224.5 -93.5t-92.5 -254.5zM299 1446q0 57 31.5 91t85.5 34q55 0 85.5 -33.5t30.5 -91.5t-30.5 -91.5t-85.5 -33.5q-54 0 -85.5 34t-31.5 91zM698 1446q0 58 31 91.5t86 33.5q54 0 85.5 -34t31.5 -91t-31.5 -91t-85.5 -34 q-55 0 -86 33.5t-31 91.5z" />
<glyph unicode="&#xec;" horiz-adv-x="501" d="M-55 1563h262l162 -154q30 -30 30 -68q0 -28 -21.5 -50.5t-58.5 -22.5q-36 0 -73 32zM158 0v1116h188v-1116h-188z" />
<glyph unicode="&#xed;" horiz-adv-x="501" d="M92 1341q0 37 31 68l164 154h262l-301 -263q-37 -32 -76 -32q-36 0 -58 23t-22 50zM158 0v1116h188v-1116h-188z" />
<glyph unicode="&#xee;" horiz-adv-x="501" d="M-121 1257l266 265q45 45 111 45q67 0 109 -45l268 -265h-236l-141 166l-139 -166h-238zM158 0v1116h188v-1116h-188z" />
<glyph unicode="&#xef;" horiz-adv-x="501" d="M-61 1446q0 57 31 91t85 34q55 0 86 -33.5t31 -91.5t-31 -91.5t-86 -33.5q-54 0 -85 34t-31 91zM158 0v1116h188v-1116h-188zM338 1446q0 58 31 91.5t86 33.5q54 0 85 -34t31 -91t-31 -91t-85 -34q-55 0 -86 33.5t-31 91.5z" />
<glyph unicode="&#xf0;" horiz-adv-x="1277" d="M115 532q0 86 18.5 163.5t58.5 144.5t98.5 115.5t143 76t187.5 27.5q66 0 138 -13.5t197 -48.5v78q0 125 -47 205l-301 -162v154l199 106q-73 39 -174 39h-137v146h94q251 0 387 -93l197 107v-156l-101 -53q72 -116 72 -299v-563q0 -234 -134.5 -376t-381.5 -142 q-165 0 -283 74t-174.5 195t-56.5 275zM303 532q0 -176 86 -280.5t244 -104.5q164 0 243.5 96.5t79.5 270.5v332q-187 47 -313 51q-340 0 -340 -365z" />
<glyph unicode="&#xf1;" horiz-adv-x="1196" d="M143 0v920q0 124 125 155q191 51 357 51q220 0 324 -109.5t104 -291.5v-725h-187v707q0 119 -59 185t-199 66q-111 0 -276 -43v-915h-189zM172 1346q40 114 115 168.5t155 54.5q92 0 154 -51l96 -70q45 -31 84 -31q41 0 75 29.5t64 105.5l125 -71q-38 -113 -113 -168.5 t-155 -55.5q-87 0 -156 54l-94 67q-48 33 -84 33q-88 0 -141 -137z" />
<glyph unicode="&#xf2;" horiz-adv-x="1253" d="M96 559q0 270 144 419.5t391 149.5q245 0 385.5 -149t140.5 -420q0 -272 -143.5 -421.5t-390.5 -149.5q-245 0 -386 150.5t-141 420.5zM289 559q0 -202 89.5 -310t252.5 -108q162 0 249 108.5t87 309.5q0 198 -90 308t-254 110q-162 0 -248 -109.5t-86 -308.5zM377 1563 h262l162 -154q30 -30 30 -68q0 -28 -21 -50.5t-58 -22.5t-74 32z" />
<glyph unicode="&#xf3;" horiz-adv-x="1253" d="M96 559q0 270 144 419.5t391 149.5q245 0 385.5 -149t140.5 -420q0 -272 -143.5 -421.5t-390.5 -149.5q-245 0 -386 150.5t-141 420.5zM289 559q0 -202 89.5 -310t252.5 -108q162 0 249 108.5t87 309.5q0 198 -90 308t-254 110q-162 0 -248 -109.5t-86 -308.5zM449 1341 q0 38 30 68l164 154h262l-301 -263q-37 -32 -76 -32q-36 0 -57.5 23t-21.5 50z" />
<glyph unicode="&#xf4;" horiz-adv-x="1253" d="M96 559q0 270 144 419.5t391 149.5q245 0 385.5 -149t140.5 -420q0 -272 -143.5 -421.5t-390.5 -149.5q-245 0 -386 150.5t-141 420.5zM256 1257l266 265q45 45 111 45t108 -45l269 -265h-236l-141 166l-139 -166h-238zM289 559q0 -202 89.5 -310t252.5 -108 q162 0 249 108.5t87 309.5q0 198 -90 308t-254 110q-162 0 -248 -109.5t-86 -308.5z" />
<glyph unicode="&#xf5;" horiz-adv-x="1253" d="M96 559q0 270 144 419.5t391 149.5q245 0 385.5 -149t140.5 -420q0 -272 -143.5 -421.5t-390.5 -149.5q-245 0 -386 150.5t-141 420.5zM205 1346q40 114 115 168.5t155 54.5q92 0 154 -51l96 -70q45 -31 84 -31q41 0 75 29.5t64 105.5l125 -71q-38 -113 -113 -168.5 t-155 -55.5q-87 0 -156 54l-94 67q-48 33 -84 33q-88 0 -141 -137zM289 559q0 -202 89.5 -310t252.5 -108q162 0 249 108.5t87 309.5q0 198 -90 308t-254 110q-162 0 -248 -109.5t-86 -308.5z" />
<glyph unicode="&#xf6;" horiz-adv-x="1253" d="M96 559q0 270 144 419.5t391 149.5q245 0 385.5 -149t140.5 -420q0 -272 -143.5 -421.5t-390.5 -149.5q-245 0 -386 150.5t-141 420.5zM289 559q0 -202 89.5 -310t252.5 -108q162 0 249 108.5t87 309.5q0 198 -90 308t-254 110q-162 0 -248 -109.5t-86 -308.5zM322 1446 q0 57 31 91t85 34q55 0 86 -33.5t31 -91.5t-31 -91.5t-86 -33.5q-54 0 -85 34t-31 91zM721 1446q0 58 31 91.5t86 33.5q54 0 85 -34t31 -91t-31 -91t-85 -34q-55 0 -86 33.5t-31 91.5z" />
<glyph unicode="&#xf7;" d="M113 520v166h981v-166h-981zM485 186q0 55 31 88t84 33q54 0 85.5 -33.5t31.5 -87.5t-31.5 -87t-85.5 -33q-53 0 -84 32.5t-31 87.5zM485 1018q0 55 31 88t84 33q54 0 85.5 -33.5t31.5 -87.5t-31.5 -87.5t-85.5 -33.5q-53 0 -84 33t-31 88z" />
<glyph unicode="&#xf8;" horiz-adv-x="1253" d="M96 559q0 270 144 419.5t391 149.5q118 0 211 -34l61 116h150l-95 -180q199 -147 199 -471q0 -272 -143.5 -421.5t-390.5 -149.5q-113 0 -201 30l-66 -124h-149l98 184q-101 71 -155 194t-54 287zM289 559q0 -214 100 -323l377 714q-73 27 -143 27q-162 0 -248 -109.5 t-86 -308.5zM500 164q64 -23 131 -23q162 0 249 108.5t87 309.5q0 199 -95 311z" />
<glyph unicode="&#xf9;" horiz-adv-x="1196" d="M143 393v723h187v-706q0 -118 58.5 -184t197.5 -66q112 0 278 41v915h189v-919q0 -125 -127 -156q-192 -49 -355 -49q-220 0 -324 109.5t-104 291.5zM313 1563h262l162 -154q31 -31 31 -68q0 -28 -21.5 -50.5t-58.5 -22.5t-74 32z" />
<glyph unicode="&#xfa;" horiz-adv-x="1196" d="M143 393v723h187v-706q0 -118 58.5 -184t197.5 -66q112 0 278 41v915h189v-919q0 -125 -127 -156q-192 -49 -355 -49q-220 0 -324 109.5t-104 291.5zM436 1341q0 37 31 68l164 154h262l-301 -263q-37 -32 -76 -32q-36 0 -58 23t-22 50z" />
<glyph unicode="&#xfb;" horiz-adv-x="1196" d="M143 393v723h187v-706q0 -118 58.5 -184t197.5 -66q112 0 278 41v915h189v-919q0 -125 -127 -156q-192 -49 -355 -49q-220 0 -324 109.5t-104 291.5zM229 1257l267 265q45 45 110 45q67 0 109 -45l268 -265h-235l-142 166l-139 -166h-238z" />
<glyph unicode="&#xfc;" horiz-adv-x="1196" d="M143 393v723h187v-706q0 -118 58.5 -184t197.5 -66q112 0 278 41v915h189v-919q0 -125 -127 -156q-192 -49 -355 -49q-220 0 -324 109.5t-104 291.5zM287 1446q0 57 31 91t85 34q55 0 86 -33.5t31 -91.5t-31 -91.5t-86 -33.5q-54 0 -85 34t-31 91zM686 1446q0 58 31 91.5 t86 33.5q54 0 85.5 -34t31.5 -91t-31.5 -91t-85.5 -34q-55 0 -86 33.5t-31 91.5z" />
<glyph unicode="&#xfd;" horiz-adv-x="1107" d="M45 1116h211l334 -928l282 928h205l-422 -1253q-79 -236 -325 -236q-89 0 -232 39l27 160q148 -37 199 -37q69 0 104.5 31.5t48.5 89.5l15 51zM465 1341q0 37 31 68l163 154h263l-301 -263q-37 -32 -76 -32q-36 0 -58 23t-22 50z" />
<glyph unicode="&#xfe;" horiz-adv-x="1224" d="M143 -381v1923l185 37v-498q184 43 299 43q242 0 371.5 -146.5t129.5 -414.5q0 -272 -130 -421.5t-373 -149.5q-104 0 -297 59v-395zM328 209q186 -48 282 -51q330 0 330 403q0 187 -81 293.5t-255 106.5q-96 0 -276 -41v-711z" />
<glyph unicode="&#xff;" horiz-adv-x="1107" d="M45 1116h211l334 -928l282 928h205l-422 -1253q-79 -236 -325 -236q-89 0 -232 39l27 160q148 -37 199 -37q69 0 104.5 31.5t48.5 89.5l15 51zM260 1446q0 57 31.5 91t85.5 34q55 0 86 -33.5t31 -91.5t-31 -91.5t-86 -33.5q-54 0 -85.5 34t-31.5 91zM659 1446 q0 58 31 91.5t86 33.5q54 0 85.5 -34t31.5 -91t-31.5 -91t-85.5 -34q-55 0 -86 33.5t-31 91.5z" />
<glyph unicode="&#x100;" horiz-adv-x="1421" d="M29 0l534 1434q37 104 154 104q119 0 153 -102l525 -1436h-217l-121 326h-697l-120 -326h-211zM389 1655v155h645v-155h-645zM412 489h596l-293 836z" />
<glyph unicode="&#x101;" horiz-adv-x="1228" d="M96 297q0 74 24 132.5t65 96.5t99 63t123 35.5t140 10.5h311v113q0 215 -244 215q-129 0 -350 -62l-92 -27l-33 160l92 27q233 69 394 69q186 0 299.5 -92.5t113.5 -285.5v-559l136 -80l-74 -136l-101 60q-70 34 -147 16l-76 -20q-184 -47 -305 -47q-177 0 -276 82.5 t-99 228.5zM274 1333v166h650v-166h-650zM283 305q0 -83 56 -124.5t161 -41.5q106 0 248 37l112 27v286h-313q-129 0 -196.5 -43.5t-67.5 -140.5z" />
<glyph unicode="&#x102;" horiz-adv-x="1421" d="M29 0l534 1434q37 104 154 104q119 0 153 -102l525 -1436h-217l-121 326h-697l-120 -326h-211zM354 1874h170q0 -53 51 -83t138 -30t138.5 30.5t51.5 82.5h168q0 -80 -51 -138t-130.5 -85t-176.5 -27q-98 0 -177.5 27t-130.5 85t-51 138zM412 489h596l-293 836z" />
<glyph unicode="&#x103;" horiz-adv-x="1228" d="M96 297q0 74 24 132.5t65 96.5t99 63t123 35.5t140 10.5h311v113q0 215 -244 215q-129 0 -350 -62l-92 -27l-33 160l92 27q233 69 394 69q186 0 299.5 -92.5t113.5 -285.5v-559l136 -80l-74 -136l-101 60q-70 34 -147 16l-76 -20q-184 -47 -305 -47q-177 0 -276 82.5 t-99 228.5zM223 1563h172q0 -78 52.5 -122t138.5 -44q85 0 137.5 44.5t52.5 121.5h170q0 -139 -103.5 -226.5t-256.5 -87.5q-155 0 -259 87.5t-104 226.5zM283 305q0 -83 56 -124.5t161 -41.5q106 0 248 37l112 27v286h-313q-129 0 -196.5 -43.5t-67.5 -140.5z" />
<glyph unicode="&#x104;" horiz-adv-x="1421" d="M29 0l534 1434q37 104 154 104q119 0 153 -102l525 -1436q-97 -59 -97 -141q0 -84 117 -84q87 0 189 37l26 -113q-121 -47 -225 -47q-111 0 -179.5 43.5t-68.5 126.5q0 108 113 178h-92l-121 326h-697l-120 -326h-211zM412 489h596l-293 836z" />
<glyph unicode="&#x105;" horiz-adv-x="1228" d="M96 297q0 74 24 132.5t65 96.5t99 63t123 35.5t140 10.5h311v113q0 215 -244 215q-129 0 -350 -62l-92 -27l-33 160l92 27q233 69 394 69q186 0 299.5 -92.5t113.5 -285.5v-559l136 -80l-74 -136q-80 -44 -80 -120q0 -86 115 -86q87 0 188 39l29 -113q-119 -49 -228 -49 q-111 0 -178 45t-67 129q0 65 35 121.5t100 83.5l-15 10q-70 34 -147 16l-76 -20q-184 -47 -305 -47q-177 0 -276 82.5t-99 228.5zM283 305q0 -83 56 -124.5t161 -41.5q106 0 248 37l112 27v286h-313q-129 0 -196.5 -43.5t-67.5 -140.5z" />
<glyph unicode="&#x106;" horiz-adv-x="1380" d="M104 758q0 192 52.5 342t146 243t217.5 141t273 48q159 0 405 -76l111 -35l-35 -178l-115 35q-229 72 -354 72q-230 0 -356.5 -146t-126.5 -446q0 -299 127.5 -444.5t357.5 -145.5q119 0 352 70l115 36l35 -180l-111 -33q-249 -77 -405 -77q-121 0 -225 28.5t-190 89.5 t-146.5 151t-94 218.5t-33.5 286.5zM621 1694q0 40 34 63l156 107h274l-313 -213q-42 -27 -76 -27q-36 0 -55.5 21t-19.5 49z" />
<glyph unicode="&#x107;" horiz-adv-x="1079" d="M96 559q0 273 138 421t370 148q116 0 316 -55l92 -26l-31 -164l-92 24q-204 54 -273 54q-325 0 -325 -402q0 -401 327 -401q79 0 271 51l92 27l31 -166l-92 -25q-207 -57 -316 -57q-235 0 -371.5 142.5t-136.5 428.5zM444 1341q0 37 31 68l164 154h262l-301 -263 q-37 -32 -76 -32q-36 0 -58 23t-22 50z" />
<glyph unicode="&#x108;" horiz-adv-x="1380" d="M104 758q0 192 52.5 342t146 243t217.5 141t273 48q159 0 405 -76l111 -35l-35 -178l-115 35q-229 72 -354 72q-230 0 -356.5 -146t-126.5 -446q0 -299 127.5 -444.5t357.5 -145.5q119 0 352 70l115 36l35 -180l-111 -33q-249 -77 -405 -77q-121 0 -225 28.5t-190 89.5 t-146.5 151t-94 218.5t-33.5 286.5zM416 1626l260 199q49 39 112 39q66 0 115 -39l258 -199h-239l-134 103l-133 -103h-239z" />
<glyph unicode="&#x109;" horiz-adv-x="1079" d="M96 559q0 273 138 421t370 148q116 0 316 -55l92 -26l-31 -164l-92 24q-204 54 -273 54q-325 0 -325 -402q0 -401 327 -401q79 0 271 51l92 27l31 -166l-92 -25q-207 -57 -316 -57q-235 0 -371.5 142.5t-136.5 428.5zM225 1257l267 265q45 45 110 45q67 0 109 -45 l268 -265h-236l-141 166l-139 -166h-238z" />
<glyph unicode="&#x10a;" horiz-adv-x="1380" d="M104 758q0 192 52.5 342t146 243t217.5 141t273 48q159 0 405 -76l111 -35l-35 -178l-115 35q-229 72 -354 72q-230 0 -356.5 -146t-126.5 -446q0 -299 127.5 -444.5t357.5 -145.5q119 0 352 70l115 36l35 -180l-111 -33q-249 -77 -405 -77q-121 0 -225 28.5t-190 89.5 t-146.5 151t-94 218.5t-33.5 286.5zM657 1745q0 56 32 89.5t87 33.5t86 -33.5t31 -89.5t-31 -88.5t-86 -32.5t-87 32.5t-32 88.5z" />
<glyph unicode="&#x10b;" horiz-adv-x="1079" d="M96 559q0 273 138 421t370 148q116 0 316 -55l92 -26l-31 -164l-92 24q-204 54 -273 54q-325 0 -325 -402q0 -401 327 -401q79 0 271 51l92 27l31 -166l-92 -25q-207 -57 -316 -57q-235 0 -371.5 142.5t-136.5 428.5zM477 1446q0 57 32 91t87 34t87 -34t32 -91 q0 -58 -32 -92.5t-87 -34.5t-87 34.5t-32 92.5z" />
<glyph unicode="&#x10c;" horiz-adv-x="1380" d="M104 758q0 192 52.5 342t146 243t217.5 141t273 48q159 0 405 -76l111 -35l-35 -178l-115 35q-229 72 -354 72q-230 0 -356.5 -146t-126.5 -446q0 -299 127.5 -444.5t357.5 -145.5q119 0 352 70l115 36l35 -180l-111 -33q-249 -77 -405 -77q-121 0 -225 28.5t-190 89.5 t-146.5 151t-94 218.5t-33.5 286.5zM418 1864h239l134 -105l133 105h239l-258 -201q-53 -39 -114 -39q-68 0 -113 39z" />
<glyph unicode="&#x10d;" horiz-adv-x="1079" d="M96 559q0 273 138 421t370 148q116 0 316 -55l92 -26l-31 -164l-92 24q-204 54 -273 54q-325 0 -325 -402q0 -401 327 -401q79 0 271 51l92 27l31 -166l-92 -25q-207 -57 -316 -57q-235 0 -371.5 142.5t-136.5 428.5zM240 1563h235l141 -164l142 164h235l-266 -265 q-47 -43 -111 -43q-68 0 -108 43z" />
<glyph unicode="&#x10e;" horiz-adv-x="1501" d="M152 150v1224q0 68 43.5 109t117.5 41h394q315 0 501.5 -204t186.5 -562q0 -178 -50.5 -321.5t-142.5 -239t-220 -146.5t-282 -51h-387q-74 0 -117.5 41t-43.5 109zM313 1864h240l133 -105l133 105h240l-258 -201q-53 -39 -115 -39q-68 0 -113 39zM360 172h334 q235 0 364.5 153.5t129.5 432.5q0 276 -134.5 437t-373.5 161h-320v-1184z" />
<glyph unicode="&#x10f;" horiz-adv-x="1490" d="M96 555q0 271 130.5 420t373.5 149q102 0 297 -57v475l184 37v-1382q0 -63 -31.5 -100.5t-95.5 -55.5q-205 -49 -346 -49q-244 0 -378 147t-134 416zM285 557q0 -188 82 -294.5t256 -106.5q102 0 274 39v712q-189 48 -283 51q-329 0 -329 -401zM1231 1208l92 357h188 l-112 -400q-22 -73 -88 -73q-52 0 -72.5 33t-7.5 83z" />
<glyph unicode="&#x110;" horiz-adv-x="1505" d="M20 705v149h138v520q0 68 43.5 109t117.5 41h394q315 0 501.5 -204t186.5 -562q0 -356 -189.5 -557t-504.5 -201h-388q-74 0 -117.5 41t-43.5 109v555h-138zM367 172h333q235 0 364.5 153.5t129.5 432.5q0 276 -134.5 437t-373.5 161h-319v-502h434v-149h-434v-533z" />
<glyph unicode="&#x111;" horiz-adv-x="1224" d="M96 555q0 271 130.5 420t373.5 149q102 0 297 -57v475l184 37v-1382q0 -63 -31.5 -100.5t-95.5 -55.5q-205 -49 -346 -49q-244 0 -378 147t-134 416zM285 557q0 -188 82 -294.5t256 -106.5q102 0 274 39v712q-189 48 -283 51q-329 0 -329 -401zM598 1251v146h627v-146 h-627z" />
<glyph unicode="&#x112;" horiz-adv-x="1267" d="M152 150v1224q0 68 43.5 109t117.5 41h844v-170h-797v-492h701v-168h-701v-524h803v-170h-850q-74 0 -117.5 41t-43.5 109zM334 1655v155h645v-155h-645z" />
<glyph unicode="&#x113;" horiz-adv-x="1198" d="M96 557q0 146 41.5 258.5t113 180.5t162 102.5t195.5 34.5q233 0 368.5 -139t135.5 -408q0 -101 -96 -101h-729q7 -164 105.5 -246.5t256.5 -82.5q121 0 305 55l111 35l33 -158l-109 -35q-207 -65 -350 -65q-249 0 -396 145.5t-147 423.5zM287 635h637q0 72 -19 134 t-56.5 110.5t-100 76t-144.5 27.5q-140 0 -224.5 -93.5t-92.5 -254.5zM295 1333v166h649v-166h-649z" />
<glyph unicode="&#x114;" horiz-adv-x="1267" d="M152 150v1224q0 68 43.5 109t117.5 41h844v-170h-797v-492h701v-168h-701v-524h803v-170h-850q-74 0 -117.5 41t-43.5 109zM305 1874h170q0 -53 51 -83t138 -30t138.5 30.5t51.5 82.5h168q0 -80 -51 -138t-130.5 -85t-176.5 -27q-98 0 -177.5 27t-130.5 85t-51 138z" />
<glyph unicode="&#x115;" horiz-adv-x="1198" d="M96 557q0 146 41.5 258.5t113 180.5t162 102.5t195.5 34.5q233 0 368.5 -139t135.5 -408q0 -101 -96 -101h-729q7 -164 105.5 -246.5t256.5 -82.5q121 0 305 55l111 35l33 -158l-109 -35q-207 -65 -350 -65q-249 0 -396 145.5t-147 423.5zM246 1563h172q0 -78 52 -122 t138 -44q85 0 138 44.5t53 121.5h170q0 -139 -104 -226.5t-257 -87.5q-155 0 -258.5 87.5t-103.5 226.5zM287 635h637q0 72 -19 134t-56.5 110.5t-100 76t-144.5 27.5q-140 0 -224.5 -93.5t-92.5 -254.5z" />
<glyph unicode="&#x116;" horiz-adv-x="1267" d="M152 150v1224q0 68 43.5 109t117.5 41h844v-170h-797v-492h701v-168h-701v-524h803v-170h-850q-74 0 -117.5 41t-43.5 109zM559 1745q0 56 32 89.5t87 33.5t86 -33.5t31 -89.5t-31 -88.5t-86 -32.5t-87 32.5t-32 88.5z" />
<glyph unicode="&#x117;" horiz-adv-x="1198" d="M96 557q0 146 41.5 258.5t113 180.5t162 102.5t195.5 34.5q233 0 368.5 -139t135.5 -408q0 -101 -96 -101h-729q7 -164 105.5 -246.5t256.5 -82.5q121 0 305 55l111 35l33 -158l-109 -35q-207 -65 -350 -65q-249 0 -396 145.5t-147 423.5zM287 635h637q0 72 -19 134 t-56.5 110.5t-100 76t-144.5 27.5q-140 0 -224.5 -93.5t-92.5 -254.5zM489 1446q0 57 32 91t87 34t87 -34t32 -91q0 -58 -32 -92.5t-87 -34.5t-87 34.5t-32 92.5z" />
<glyph unicode="&#x118;" horiz-adv-x="1267" d="M152 150v1224q0 68 43.5 109t117.5 41h844v-170h-797v-492h701v-168h-701v-524h803v-170h-147q-96 -58 -96 -141q0 -84 116 -84q87 0 189 37l26 -113q-121 -47 -225 -47q-111 0 -179.5 43.5t-68.5 126.5q0 108 113 178h-578q-74 0 -117.5 41t-43.5 109z" />
<glyph unicode="&#x119;" horiz-adv-x="1198" d="M96 557q0 146 41.5 258.5t113 180.5t162 102.5t195.5 34.5q233 0 368.5 -139t135.5 -408q0 -101 -96 -101h-729q7 -164 105.5 -246.5t256.5 -82.5q121 0 305 55l111 35l33 -158l-109 -35l-127 -37h2q-96 -58 -96 -141q0 -84 117 -84q86 0 188 37l27 -113 q-121 -47 -226 -47q-111 0 -179 43.5t-68 126.5q0 89 73 152q-20 -2 -61 -2q-249 0 -396 145.5t-147 423.5zM287 635h637q0 72 -19 134t-56.5 110.5t-100 76t-144.5 27.5q-140 0 -224.5 -93.5t-92.5 -254.5z" />
<glyph unicode="&#x11a;" horiz-adv-x="1267" d="M152 150v1224q0 68 43.5 109t117.5 41h844v-170h-797v-492h701v-168h-701v-524h803v-170h-850q-74 0 -117.5 41t-43.5 109zM299 1864h240l133 -105l133 105h239l-258 -201q-53 -39 -114 -39q-68 0 -113 39z" />
<glyph unicode="&#x11b;" horiz-adv-x="1198" d="M96 557q0 146 41.5 258.5t113 180.5t162 102.5t195.5 34.5q233 0 368.5 -139t135.5 -408q0 -101 -96 -101h-729q7 -164 105.5 -246.5t256.5 -82.5q121 0 305 55l111 35l33 -158l-109 -35q-207 -65 -350 -65q-249 0 -396 145.5t-147 423.5zM231 1563h236l141 -164l142 164 h235l-266 -265q-47 -43 -111 -43q-68 0 -108 43zM287 635h637q0 72 -19 134t-56.5 110.5t-100 76t-144.5 27.5q-140 0 -224.5 -93.5t-92.5 -254.5z" />
<glyph unicode="&#x11c;" horiz-adv-x="1492" d="M104 758q0 192 54.5 341.5t152 243t227 141.5t285.5 48q158 0 424 -78l115 -35l-37 -178l-121 35q-251 72 -375 72q-245 0 -379.5 -146.5t-134.5 -445.5q0 -300 141.5 -451t385.5 -151q144 0 327 36v390h-360v163h397q73 0 116.5 -40.5t43.5 -108.5v-383 q0 -127 -133 -168q-201 -59 -399 -59q-159 0 -290 46.5t-230.5 138.5t-154.5 242.5t-55 346.5zM444 1626l261 199q49 39 112 39q66 0 115 -39l258 -199h-240l-133 103l-133 -103h-240z" />
<glyph unicode="&#x11d;" horiz-adv-x="1230" d="M96 762q0 173 126.5 262.5t346.5 89.5h117q140 0 213 21l246 67l39 -151l-232 -66q4 -3 11 -8.5t24.5 -25t30.5 -43t24 -62.5t11 -82q0 -172 -124 -260t-349 -88q-35 0 -64.5 2.5t-41.5 5.5l-13 2q24 -24 24 -74q0 -57 -47 -114h371q173 0 263.5 -72t90.5 -193 q0 -342 -575 -342q-99 0 -182 16t-151.5 49.5t-107 92.5t-38.5 139q0 114 77 213l105 127q39 47 39 94q0 36 -17 61.5t-59 55.5q-32 23 -55 44t-49 55t-40 80.5t-14 103.5zM225 1262l267 264q45 45 110 45q67 0 109 -45l268 -264h-236l-141 165l-139 -165h-238zM274 762 q0 -117 79 -167t222 -50q137 0 218 52.5t81 164.5q0 211 -299 211q-301 0 -301 -211zM283 -66q0 -85 86.5 -124t234.5 -39q387 0 387 196q0 56 -47 89.5t-145 33.5h-455q-61 -64 -61 -156z" />
<glyph unicode="&#x11e;" horiz-adv-x="1492" d="M104 758q0 192 54.5 341.5t152 243t227 141.5t285.5 48q158 0 424 -78l115 -35l-37 -178l-121 35q-251 72 -375 72q-245 0 -379.5 -146.5t-134.5 -445.5q0 -300 141.5 -451t385.5 -151q144 0 327 36v390h-360v163h397q73 0 116.5 -40.5t43.5 -108.5v-383 q0 -127 -133 -168q-201 -59 -399 -59q-159 0 -290 46.5t-230.5 138.5t-154.5 242.5t-55 346.5zM449 1874h169q0 -53 51 -83t138 -30t138.5 30.5t51.5 82.5h168q0 -80 -51 -138t-130.5 -85t-176.5 -27q-151 0 -254.5 65.5t-103.5 184.5z" />
<glyph unicode="&#x11f;" horiz-adv-x="1230" d="M96 762q0 173 126.5 262.5t346.5 89.5h117q140 0 213 21l246 67l39 -151l-232 -66q4 -3 11 -8.5t24.5 -25t30.5 -43t24 -62.5t11 -82q0 -172 -124 -260t-349 -88q-35 0 -64.5 2.5t-41.5 5.5l-13 2q24 -24 24 -74q0 -57 -47 -114h371q173 0 263.5 -72t90.5 -193 q0 -342 -575 -342q-99 0 -182 16t-151.5 49.5t-107 92.5t-38.5 139q0 114 77 213l105 127q39 47 39 94q0 36 -17 61.5t-59 55.5q-32 23 -55 44t-49 55t-40 80.5t-14 103.5zM242 1563h172q0 -78 52 -122t138 -44q85 0 138 44.5t53 121.5h170q0 -139 -104 -226.5t-257 -87.5 q-155 0 -258.5 87.5t-103.5 226.5zM274 762q0 -117 79 -167t222 -50q137 0 218 52.5t81 164.5q0 211 -299 211q-301 0 -301 -211zM283 -66q0 -85 86.5 -124t234.5 -39q387 0 387 196q0 56 -47 89.5t-145 33.5h-455q-61 -64 -61 -156z" />
<glyph unicode="&#x120;" horiz-adv-x="1492" d="M104 758q0 192 54.5 341.5t152 243t227 141.5t285.5 48q158 0 424 -78l115 -35l-37 -178l-121 35q-251 72 -375 72q-245 0 -379.5 -146.5t-134.5 -445.5q0 -300 141.5 -451t385.5 -151q144 0 327 36v390h-360v163h397q73 0 116.5 -40.5t43.5 -108.5v-383 q0 -127 -133 -168q-201 -59 -399 -59q-159 0 -290 46.5t-230.5 138.5t-154.5 242.5t-55 346.5zM700 1745q0 56 32 89.5t87 33.5t86 -33.5t31 -89.5t-31 -88.5t-86 -32.5t-87 32.5t-32 88.5z" />
<glyph unicode="&#x121;" horiz-adv-x="1230" d="M96 762q0 173 126.5 262.5t346.5 89.5h117q140 0 213 21l246 67l39 -151l-232 -66q4 -3 11 -8.5t24.5 -25t30.5 -43t24 -62.5t11 -82q0 -172 -124 -260t-349 -88q-35 0 -64.5 2.5t-41.5 5.5l-13 2q24 -24 24 -74q0 -57 -47 -114h371q173 0 263.5 -72t90.5 -193 q0 -342 -575 -342q-99 0 -182 16t-151.5 49.5t-107 92.5t-38.5 139q0 114 77 213l105 127q39 47 39 94q0 36 -17 61.5t-59 55.5q-32 23 -55 44t-49 55t-40 80.5t-14 103.5zM274 762q0 -117 79 -167t222 -50q137 0 218 52.5t81 164.5q0 211 -299 211q-301 0 -301 -211z M283 -66q0 -85 86.5 -124t234.5 -39q387 0 387 196q0 56 -47 89.5t-145 33.5h-455q-61 -64 -61 -156zM479 1446q0 57 32 91t87 34t87 -34t32 -91q0 -58 -32 -92.5t-87 -34.5t-87 34.5t-32 92.5z" />
<glyph unicode="&#x122;" horiz-adv-x="1492" d="M104 758q0 192 54.5 341.5t152 243t227 141.5t285.5 48q158 0 424 -78l115 -35l-37 -178l-121 35q-251 72 -375 72q-245 0 -379.5 -146.5t-134.5 -445.5q0 -300 141.5 -451t385.5 -151q144 0 327 36v390h-360v163h397q73 0 116.5 -40.5t43.5 -108.5v-383 q0 -127 -133 -168q-201 -59 -399 -59q-159 0 -290 46.5t-230.5 138.5t-154.5 242.5t-55 346.5zM662 -309l55 209h196l-69 -252q-22 -72 -94 -72q-54 0 -77.5 33.5t-10.5 81.5z" />
<glyph unicode="&#x123;" horiz-adv-x="1230" d="M96 762q0 173 126.5 262.5t346.5 89.5h117q140 0 213 21l246 67l39 -151l-232 -66q4 -3 11 -8.5t24.5 -25t30.5 -43t24 -62.5t11 -82q0 -172 -124 -260t-349 -88q-35 0 -64.5 2.5t-41.5 5.5l-13 2q24 -24 24 -74q0 -57 -47 -114h371q173 0 263.5 -72t90.5 -193 q0 -342 -575 -342q-99 0 -182 16t-151.5 49.5t-107 92.5t-38.5 139q0 114 77 213l105 127q39 47 39 94q0 36 -17 61.5t-59 55.5q-32 23 -55 44t-49 55t-40 80.5t-14 103.5zM274 762q0 -117 79 -167t222 -50q137 0 218 52.5t81 164.5q0 211 -299 211q-301 0 -301 -211z M283 -66q0 -85 86.5 -124t234.5 -39q387 0 387 196q0 56 -47 89.5t-145 33.5h-455q-61 -64 -61 -156zM471 1260l94 327q22 74 94 74q53 0 76 -34t10 -83l-71 -284h-203z" />
<glyph unicode="&#x124;" horiz-adv-x="1468" d="M152 0v1524h206v-666h752v666h207v-1524h-207v690h-752v-690h-206zM360 1626l261 199q49 39 112 39q66 0 115 -39l258 -199h-240l-133 103l-133 -103h-240z" />
<glyph unicode="&#x125;" horiz-adv-x="1173" d="M143 0v1542l187 37v-514q193 59 307 59q111 0 192 -31t126.5 -87.5t66 -126t20.5 -156.5v-723h-184v713q0 241 -248 241q-95 0 -280 -49v-905h-187zM221 1632l260 199q49 39 113 39q66 0 115 -39l258 -199h-240l-133 103l-133 -103h-240z" />
<glyph unicode="&#x126;" horiz-adv-x="1468" d="M0 1079v150h152v295h206v-295h752v295h207v-295h151v-150h-151v-1079h-207v690h-752v-690h-206v1079h-152zM358 858h752v221h-752v-221z" />
<glyph unicode="&#x127;" horiz-adv-x="1173" d="M0 1251v146h143v145l187 37v-182h297v-146h-297v-186q193 59 307 59q111 0 192 -31t126.5 -87.5t66 -126t20.5 -156.5v-723h-184v713q0 241 -248 241q-95 0 -280 -49v-905h-187v1251h-143z" />
<glyph unicode="&#x128;" horiz-adv-x="514" d="M-147 1696q26 65 69.5 108.5t89 60.5t94.5 17q92 0 154 -41l88 -51q40 -25 82 -25q40 0 70.5 23.5t60.5 87.5l121 -68q-37 -95 -106.5 -140.5t-145.5 -45.5q-85 0 -154 41l-88 53q-42 23 -82 23t-71 -24t-60 -87zM152 0v1524h208v-1524h-208z" />
<glyph unicode="&#x129;" horiz-adv-x="501" d="M-182 1346q40 114 115 168.5t155 54.5q92 0 154 -51l96 -70q45 -31 84 -31q41 0 75 29.5t64 105.5l125 -71q-38 -113 -113 -168.5t-155 -55.5q-87 0 -156 54l-94 67q-48 33 -84 33q-88 0 -141 -137zM158 0v1116h188v-1116h-188z" />
<glyph unicode="&#x12a;" horiz-adv-x="514" d="M-66 1655v155h646v-155h-646zM152 0v1524h208v-1524h-208z" />
<glyph unicode="&#x12b;" horiz-adv-x="501" d="M-74 1333v166h649v-166h-649zM158 0v1116h188v-1116h-188z" />
<glyph unicode="&#x12c;" horiz-adv-x="514" d="M-100 1874h170q0 -53 50.5 -83t137.5 -30t139 30.5t52 82.5h167q0 -80 -51 -138t-130.5 -85t-176.5 -27q-151 0 -254.5 65.5t-103.5 184.5zM152 0v1524h208v-1524h-208z" />
<glyph unicode="&#x12d;" horiz-adv-x="501" d="M-111 1563h172q0 -78 52.5 -122t138.5 -44q85 0 137.5 44.5t52.5 121.5h170q0 -139 -103.5 -226.5t-256.5 -87.5q-155 0 -259 87.5t-104 226.5zM158 0v1116h188v-1116h-188z" />
<glyph unicode="&#x12e;" horiz-adv-x="514" d="M125 -178q0 108 113 178h-86v1524h208v-1522l2 -2q-96 -58 -96 -141q0 -84 117 -84q86 0 188 37l27 -113q-121 -47 -225 -47q-111 0 -179.5 43.5t-68.5 126.5z" />
<glyph unicode="&#x12f;" horiz-adv-x="501" d="M111 -178q0 109 112 178h-65v1116h188v-1114l2 -2q-96 -58 -96 -141q0 -84 117 -84q86 0 188 37l27 -113q-121 -47 -226 -47q-111 0 -179 43.5t-68 126.5zM131 1446q0 57 32 91t89 34q55 0 87 -34t32 -91q0 -58 -32 -92.5t-87 -34.5q-56 0 -88.5 34.5t-32.5 92.5z" />
<glyph unicode="&#x130;" horiz-adv-x="514" d="M139 1745q0 56 32 89.5t87 33.5t86 -33.5t31 -89.5t-31 -88.5t-86 -32.5t-87 32.5t-32 88.5zM152 0v1524h208v-1524h-208z" />
<glyph unicode="&#x131;" horiz-adv-x="501" d="M158 0v1116h188v-1116h-188z" />
<glyph unicode="&#x134;" horiz-adv-x="790" d="M20 33l27 174q148 -35 215 -35q97 0 138.5 52.5t41.5 168.5v1131h205v-1145q0 -187 -98 -286t-273 -99q-90 0 -256 39zM172 1626l260 199q49 39 113 39q65 0 114 -39l259 -199h-240l-133 103l-133 -103h-240z" />
<glyph unicode="&#x135;" horiz-adv-x="516" d="M-115 1257l267 265q45 45 110 45q67 0 109 -45l268 -265h-236l-141 166l-139 -166h-238zM-4 -217q96 3 136 54t40 159v1120h188v-1126q0 -176 -94 -268.5t-270 -92.5v154z" />
<glyph unicode="&#x136;" horiz-adv-x="1363" d="M152 0v1524h202v-846l690 846h254l-448 -531l465 -993h-221l-398 831l-198 -231q-37 -45 -47 -57t-36.5 -49.5t-34.5 -60t-17 -59.5t-9 -77v-297h-202zM553 -309l55 209h197l-70 -252q-22 -72 -94 -72q-54 0 -77.5 33.5t-10.5 81.5z" />
<glyph unicode="&#x137;" horiz-adv-x="1128" d="M143 0v1542l185 37v-1040l522 577h237l-360 -385l379 -731h-217l-307 588l-119 -121q-70 -68 -102.5 -127t-32.5 -154v-186h-185zM438 -309l56 209h196l-69 -252q-22 -72 -95 -72q-54 0 -77.5 33.5t-10.5 81.5z" />
<glyph unicode="&#x138;" horiz-adv-x="1150" d="M143 0v1116h185v-592q45 11 86.5 44t72.5 77.5t66.5 98.5t68.5 108t79 105t96.5 90t122 62.5t155.5 23.5v-168q-60 0 -110.5 -19.5t-93 -59t-72 -77t-68.5 -96.5l375 -713h-217l-287 545q-129 -174 -274 -203v-342h-185z" />
<glyph unicode="&#x139;" horiz-adv-x="1191" d="M152 150v1374h210v-1346h742v-178h-791q-74 0 -117.5 41t-43.5 109zM422 1694q0 40 35 63l155 107h275l-314 -213q-42 -27 -75 -27q-36 0 -56 21.5t-20 48.5z" />
<glyph unicode="&#x13a;" horiz-adv-x="479" d="M78 1696q0 40 35 63l155 107h275l-314 -213q-42 -27 -75 -27q-36 0 -56 21.5t-20 48.5zM143 0v1540l193 39v-1579h-193z" />
<glyph unicode="&#x13b;" horiz-adv-x="1191" d="M152 150v1374h210v-1346h742v-178h-791q-74 0 -117.5 41t-43.5 109zM483 -309l56 209h196l-69 -252q-22 -72 -95 -72q-54 0 -77.5 33.5t-10.5 81.5z" />
<glyph unicode="&#x13c;" horiz-adv-x="479" d="M80 -309l55 209h197l-70 -252q-22 -72 -94 -72q-54 0 -77.5 33.5t-10.5 81.5zM143 0v1540l193 39v-1579h-193z" />
<glyph unicode="&#x13d;" horiz-adv-x="1191" d="M152 150v1374h210v-1346h742v-178h-791q-74 0 -117.5 41t-43.5 109zM553 1202l92 361h191l-113 -404q-19 -69 -88 -69q-52 0 -72.5 32t-9.5 80z" />
<glyph unicode="&#x13e;" horiz-adv-x="745" d="M143 0v1540l193 39v-1579h-193zM485 1208l93 357h188l-113 -400q-22 -73 -88 -73q-52 0 -72.5 33t-7.5 83z" />
<glyph unicode="&#x13f;" horiz-adv-x="1191" d="M152 150v1374h210v-1346h742v-178h-791q-74 0 -117.5 41t-43.5 109zM657 750q0 60 31.5 93.5t87.5 33.5t87.5 -33.5t31.5 -93.5q0 -59 -32 -93t-87 -34t-87 34t-32 93z" />
<glyph unicode="&#x140;" horiz-adv-x="743" d="M143 0v1540l193 39v-1579h-193zM492 750q0 60 31 93.5t87 33.5t87.5 -33.5t31.5 -93.5q0 -59 -32 -93t-87 -34t-86.5 34t-31.5 93z" />
<glyph unicode="&#x141;" horiz-adv-x="1198" d="M20 674v170l138 61v619h211v-525l338 154v-170l-338 -154v-651h741v-178h-791q-74 0 -117.5 41t-43.5 109v585z" />
<glyph unicode="&#x142;" horiz-adv-x="507" d="M29 700v183l135 82v577l190 39v-502l133 80v-182l-133 -80v-897h-190v782z" />
<glyph unicode="&#x143;" horiz-adv-x="1509" d="M152 0v1401q0 67 38.5 102t104.5 35q55 0 90.5 -24t63.5 -72l731 -1159v1241h186v-1397q0 -68 -37.5 -102.5t-105.5 -34.5q-55 0 -90.5 24t-61.5 72l-733 1159v-1245h-186zM600 1694q0 40 35 63l156 107h274l-313 -213q-42 -27 -76 -27q-36 0 -56 21.5t-20 48.5z" />
<glyph unicode="&#x144;" horiz-adv-x="1196" d="M143 0v920q0 124 125 155q191 51 357 51q220 0 324 -109.5t104 -291.5v-725h-187v707q0 119 -59 185t-199 66q-111 0 -276 -43v-915h-189zM385 1341q0 37 31 68l164 154h262l-301 -263q-37 -32 -76 -32q-36 0 -58 23t-22 50z" />
<glyph unicode="&#x145;" horiz-adv-x="1509" d="M152 0v1401q0 67 38.5 102t104.5 35q55 0 90.5 -24t63.5 -72l731 -1159v1241h186v-1397q0 -68 -37.5 -102.5t-105.5 -34.5q-55 0 -90.5 24t-61.5 72l-733 1159v-1245h-186zM627 -309l55 209h197l-70 -252q-22 -72 -94 -72q-54 0 -77.5 33.5t-10.5 81.5z" />
<glyph unicode="&#x146;" horiz-adv-x="1196" d="M143 0v920q0 124 125 155q191 51 357 51q220 0 324 -109.5t104 -291.5v-725h-187v707q0 119 -59 185t-199 66q-111 0 -276 -43v-915h-189zM461 -309l55 209h197l-70 -252q-22 -72 -94 -72q-54 0 -77.5 33.5t-10.5 81.5z" />
<glyph unicode="&#x147;" horiz-adv-x="1509" d="M152 0v1401q0 67 38.5 102t104.5 35q55 0 90.5 -24t63.5 -72l731 -1159v1241h186v-1397q0 -68 -37.5 -102.5t-105.5 -34.5q-55 0 -90.5 24t-61.5 72l-733 1159v-1245h-186zM389 1864h240l133 -105l133 105h240l-258 -201q-53 -39 -115 -39q-68 0 -113 39z" />
<glyph unicode="&#x148;" horiz-adv-x="1196" d="M143 0v920q0 124 125 155q191 51 357 51q220 0 324 -109.5t104 -291.5v-725h-187v707q0 119 -59 185t-199 66q-111 0 -276 -43v-915h-189zM207 1563h235l142 -164l141 164h236l-267 -265q-47 -43 -110 -43q-69 0 -109 43z" />
<glyph unicode="&#x14a;" horiz-adv-x="1517" d="M152 0v1401q0 67 38.5 102t104.5 35q54 0 90 -22t64 -66l731 -1098v1172h186v-1538q0 -175 -94 -267t-271 -92v152q95 3 137 53t42 156v16l-842 1247v-1251h-186z" />
<glyph unicode="&#x14b;" horiz-adv-x="1196" d="M143 0v920q0 124 125 155q191 51 357 51q220 0 324 -109.5t104 -291.5v-735q0 -176 -93.5 -268.5t-269.5 -92.5v154q96 3 136 54t40 159v711q0 119 -59 185t-199 66q-111 0 -276 -43v-915h-189z" />
<glyph unicode="&#x14c;" horiz-adv-x="1632" d="M104 758q0 182 52.5 328.5t147 244t226.5 149.5t291 52q157 0 287 -51.5t223 -149t144 -244t51 -329.5q0 -368 -195.5 -571t-519.5 -203q-322 0 -514.5 204t-192.5 570zM313 758q0 -290 136 -450.5t372 -160.5q234 0 365 159t131 452q0 288 -135.5 447t-370.5 159 q-236 0 -367 -158.5t-131 -447.5zM496 1655v155h645v-155h-645z" />
<glyph unicode="&#x14d;" horiz-adv-x="1253" d="M96 559q0 270 144 419.5t391 149.5q245 0 385.5 -149t140.5 -420q0 -272 -143.5 -421.5t-390.5 -149.5q-245 0 -386 150.5t-141 420.5zM289 559q0 -202 89.5 -310t252.5 -108q162 0 249 108.5t87 309.5q0 198 -90 308t-254 110q-162 0 -248 -109.5t-86 -308.5zM307 1333 v166h649v-166h-649z" />
<glyph unicode="&#x14e;" horiz-adv-x="1632" d="M104 758q0 182 52.5 328.5t147 244t226.5 149.5t291 52q157 0 287 -51.5t223 -149t144 -244t51 -329.5q0 -368 -195.5 -571t-519.5 -203q-322 0 -514.5 204t-192.5 570zM313 758q0 -290 136 -450.5t372 -160.5q234 0 365 159t131 452q0 288 -135.5 447t-370.5 159 q-236 0 -367 -158.5t-131 -447.5zM461 1874h170q0 -53 50.5 -83t137.5 -30t139 30.5t52 82.5h168q0 -80 -51.5 -138t-131 -85t-176.5 -27q-151 0 -254.5 65.5t-103.5 184.5z" />
<glyph unicode="&#x14f;" horiz-adv-x="1253" d="M96 559q0 270 144 419.5t391 149.5q245 0 385.5 -149t140.5 -420q0 -272 -143.5 -421.5t-390.5 -149.5q-245 0 -386 150.5t-141 420.5zM268 1563h172q0 -78 52.5 -122t138.5 -44q85 0 137.5 44.5t52.5 121.5h170q0 -139 -103.5 -226.5t-256.5 -87.5q-155 0 -259 87.5 t-104 226.5zM289 559q0 -202 89.5 -310t252.5 -108q162 0 249 108.5t87 309.5q0 198 -90 308t-254 110q-162 0 -248 -109.5t-86 -308.5z" />
<glyph unicode="&#x150;" horiz-adv-x="1632" d="M104 758q0 182 52.5 328.5t147 244t226.5 149.5t291 52q157 0 287 -51.5t223 -149t144 -244t51 -329.5q0 -368 -195.5 -571t-519.5 -203q-322 0 -514.5 204t-192.5 570zM313 758q0 -290 136 -450.5t372 -160.5q234 0 365 159t131 452q0 288 -135.5 447t-370.5 159 q-236 0 -367 -158.5t-131 -447.5zM487 1688q0 30 29 53l160 123h244l-285 -217q-35 -27 -76 -27q-32 0 -52 20t-20 48zM860 1683q0 29 29 52l162 129h252l-299 -224q-32 -22 -74 -22q-34 0 -52 18.5t-18 46.5z" />
<glyph unicode="&#x151;" horiz-adv-x="1253" d="M96 559q0 270 144 419.5t391 149.5q245 0 385.5 -149t140.5 -420q0 -272 -143.5 -421.5t-390.5 -149.5q-245 0 -386 150.5t-141 420.5zM289 559q0 -202 89.5 -310t252.5 -108q162 0 249 108.5t87 309.5q0 198 -90 308t-254 110q-162 0 -248 -109.5t-86 -308.5zM350 1333 q0 32 29 64l162 166h243l-284 -271q-34 -30 -74 -30q-37 0 -56.5 21t-19.5 50zM721 1321q0 31 29 63l172 179h245l-297 -285q-33 -29 -73 -29q-37 0 -56.5 21.5t-19.5 50.5z" />
<glyph unicode="&#x152;" horiz-adv-x="2256" d="M104 758q0 357 188 561.5t503 204.5h1349v-170h-796v-492h700v-168h-700v-524h802v-170h-1349q-154 0 -282.5 51t-220.5 146.5t-143 239t-51 321.5zM311 758q0 -280 130 -433t366 -153h334v1184h-322q-239 0 -373.5 -161t-134.5 -437z" />
<glyph unicode="&#x153;" horiz-adv-x="2066" d="M96 559q0 270 144 419.5t391 149.5q303 0 430 -227q62 116 171 174t245 58q233 0 368 -139t135 -408q0 -101 -96 -101h-729q7 -164 106 -246.5t257 -82.5q122 0 303 55l112 35l33 -158l-108 -35q-207 -65 -351 -65q-320 0 -448 229q-64 -112 -175.5 -170.5t-260.5 -58.5 q-245 0 -386 150.5t-141 420.5zM289 559q0 -202 89.5 -310t252.5 -108q162 0 249 108.5t87 309.5q0 198 -90 308t-254 110q-162 0 -248 -109.5t-86 -308.5zM1153 635h637q0 73 -18.5 134t-55.5 110t-99 76.5t-144 27.5q-140 0 -225.5 -93.5t-94.5 -254.5z" />
<glyph unicode="&#x154;" horiz-adv-x="1370" d="M152 0v1376q0 69 42 108.5t117 39.5h498q205 0 319.5 -107t114.5 -309q0 -152 -119 -303l-112 -143l311 -662h-221l-277 604h-467v-604h-206zM358 766h512l80 111q94 127 94 227q0 120 -60 189t-189 69h-437v-596zM479 1694q0 40 35 63l156 107h274l-313 -213 q-42 -27 -76 -27q-36 0 -56 21.5t-20 48.5z" />
<glyph unicode="&#x155;" horiz-adv-x="745" d="M143 0v920q0 119 125 155q110 31 203 40t250 9v-170q-238 0 -391 -41v-913h-187zM309 1341q0 37 31 68l164 154h262l-301 -263q-37 -32 -76 -32q-36 0 -58 23t-22 50z" />
<glyph unicode="&#x156;" horiz-adv-x="1370" d="M152 0v1376q0 69 42 108.5t117 39.5h498q205 0 319.5 -107t114.5 -309q0 -152 -119 -303l-112 -143l311 -662h-221l-277 604h-467v-604h-206zM358 766h512l80 111q94 127 94 227q0 120 -60 189t-189 69h-437v-596zM555 -309l55 209h197l-70 -252q-22 -72 -94 -72 q-54 0 -77.5 33.5t-10.5 81.5z" />
<glyph unicode="&#x157;" horiz-adv-x="745" d="M94 -309l56 209h196l-70 -252q-22 -72 -94 -72q-54 0 -77.5 33.5t-10.5 81.5zM143 0v920q0 119 125 155q110 31 203 40t250 9v-170q-238 0 -391 -41v-913h-187z" />
<glyph unicode="&#x158;" horiz-adv-x="1370" d="M152 0v1376q0 69 42 108.5t117 39.5h498q205 0 319.5 -107t114.5 -309q0 -152 -119 -303l-112 -143l311 -662h-221l-277 604h-467v-604h-206zM307 1864h240l133 -105l133 105h240l-258 -201q-53 -39 -115 -39q-68 0 -113 39zM358 766h512l80 111q94 127 94 227 q0 120 -60 189t-189 69h-437v-596z" />
<glyph unicode="&#x159;" horiz-adv-x="745" d="M86 1563h236l141 -164l141 164h236l-267 -265q-47 -43 -110 -43q-69 0 -109 43zM143 0v920q0 119 125 155q110 31 203 40t250 9v-170q-238 0 -391 -41v-913h-187z" />
<glyph unicode="&#x15a;" horiz-adv-x="1314" d="M115 106l41 183l112 -37q268 -92 447 -92q57 0 108 14.5t93 43t67 77t25 111.5q0 93 -53.5 149t-170.5 82l-286 65q-377 81 -377 402q0 108 40.5 192t109.5 135t155 77t184 26q125 0 235.5 -21.5t252.5 -66.5l108 -37l-43 -182l-110 37q-262 92 -439 92q-59 0 -110 -14 t-92 -42.5t-64.5 -76.5t-23.5 -111q0 -93 52 -148t169 -81l286 -66q186 -39 282.5 -137.5t96.5 -265.5q0 -107 -40.5 -191t-109.5 -135t-156 -77.5t-185 -26.5q-127 0 -242 21t-254 65zM471 1694q0 40 35 63l156 107h274l-313 -213q-42 -27 -76 -27q-36 0 -56 21.5t-20 48.5 z" />
<glyph unicode="&#x15b;" horiz-adv-x="1124" d="M115 80l30 160l95 -27q228 -66 366 -66q94 0 154.5 40.5t60.5 121.5q0 61 -42.5 98t-137.5 52l-217 39q-146 25 -224.5 101t-78.5 198q0 82 32 147t87.5 104.5t126 59.5t151.5 20q106 0 196 -15.5t206 -49.5l90 -27l-33 -164l-94 29q-224 66 -365 66q-93 0 -154 -40 t-61 -120q0 -62 42 -99.5t136 -54.5l217 -37q148 -25 227 -101t79 -196q0 -82 -32.5 -147t-88.5 -105t-126.5 -60.5t-150.5 -20.5q-106 0 -196.5 16t-204.5 51zM430 1341q0 37 31 68l164 154h262l-301 -263q-37 -32 -76 -32q-36 0 -58 23t-22 50z" />
<glyph unicode="&#x15c;" horiz-adv-x="1314" d="M115 106l41 183l112 -37q268 -92 447 -92q57 0 108 14.5t93 43t67 77t25 111.5q0 93 -53.5 149t-170.5 82l-286 65q-377 81 -377 402q0 108 40.5 192t109.5 135t155 77t184 26q125 0 235.5 -21.5t252.5 -66.5l108 -37l-43 -182l-110 37q-262 92 -439 92q-59 0 -110 -14 t-92 -42.5t-64.5 -76.5t-23.5 -111q0 -93 52 -148t169 -81l286 -66q186 -39 282.5 -137.5t96.5 -265.5q0 -107 -40.5 -191t-109.5 -135t-156 -77.5t-185 -26.5q-127 0 -242 21t-254 65zM297 1626l260 199q49 39 113 39q65 0 114 -39l258 -199h-239l-133 103l-133 -103h-240z " />
<glyph unicode="&#x15d;" horiz-adv-x="1124" d="M115 80l30 160l95 -27q228 -66 366 -66q94 0 154.5 40.5t60.5 121.5q0 61 -42.5 98t-137.5 52l-217 39q-146 25 -224.5 101t-78.5 198q0 82 32 147t87.5 104.5t126 59.5t151.5 20q106 0 196 -15.5t206 -49.5l90 -27l-33 -164l-94 29q-224 66 -365 66q-93 0 -154 -40 t-61 -120q0 -62 42 -99.5t136 -54.5l217 -37q148 -25 227 -101t79 -196q0 -82 -32.5 -147t-88.5 -105t-126.5 -60.5t-150.5 -20.5q-106 0 -196.5 16t-204.5 51zM186 1257l267 265q45 45 110 45q67 0 109 -45l268 -265h-235l-142 166l-139 -166h-238z" />
<glyph unicode="&#x15e;" horiz-adv-x="1314" d="M115 106l41 183l112 -37q268 -92 447 -92q57 0 108 14.5t93 43t67 77t25 111.5q0 93 -53.5 149t-170.5 82l-286 65q-377 81 -377 402q0 108 40.5 192t109.5 135t155 77t184 26q125 0 235.5 -21.5t252.5 -66.5l108 -37l-43 -182l-110 37q-262 92 -439 92q-59 0 -110 -14 t-92 -42.5t-64.5 -76.5t-23.5 -111q0 -93 52 -148t169 -81l286 -66q186 -39 282.5 -137.5t96.5 -265.5q0 -107 -40.5 -191t-109.5 -135t-156 -77.5t-185 -26.5h-4l-41 -84q79 0 128.5 -35t49.5 -103q0 -74 -54 -121t-151 -47q-80 0 -184 44l29 96q86 -35 153 -35q90 0 90 59 q0 22 -13 36t-37 19.5t-57 7t-73 -0.5l-10 18l76 150q-173 10 -398 82z" />
<glyph unicode="&#x15f;" horiz-adv-x="1124" d="M115 80l30 160l95 -27q228 -66 366 -66q94 0 154.5 40.5t60.5 121.5q0 61 -42.5 98t-137.5 52l-217 39q-146 25 -224.5 101t-78.5 198q0 82 32 147t87.5 104.5t126 59.5t151.5 20q106 0 196 -15.5t206 -49.5l90 -27l-33 -164l-94 29q-224 66 -365 66q-93 0 -154 -40 t-61 -120q0 -62 42 -99.5t136 -54.5l217 -37q148 -25 227 -101t79 -196q0 -108 -56 -185t-142.5 -112t-193.5 -36l-41 -86q79 0 129 -35t50 -103q0 -74 -54 -121t-151 -47q-81 0 -185 44l29 96q86 -35 154 -35q90 0 90 59q0 22 -13 36t-37 19.5t-57 7t-73 -0.5l-11 18 l78 152q-145 10 -315 63z" />
<glyph unicode="&#x160;" horiz-adv-x="1308" d="M115 106l41 183l112 -37q268 -92 447 -92q57 0 108 14.5t93 43t67 77t25 111.5q0 93 -53.5 149t-170.5 82l-286 65q-377 81 -377 402q0 108 40.5 192t109.5 135t155 77t184 26q125 0 235.5 -21.5t252.5 -66.5l108 -37l-43 -182l-110 37q-262 92 -439 92q-59 0 -110 -14 t-92 -42.5t-64.5 -76.5t-23.5 -111q0 -93 52 -148t169 -81l286 -66q186 -39 282.5 -137.5t96.5 -265.5q0 -107 -40.5 -191t-109.5 -135t-156 -77.5t-185 -26.5q-127 0 -242 21t-254 65zM311 1864h240l133 -105l133 105h240l-258 -201q-53 -39 -115 -39q-68 0 -113 39z" />
<glyph unicode="&#x161;" horiz-adv-x="1124" d="M115 80l30 160l95 -27q228 -66 366 -66q94 0 154.5 40.5t60.5 121.5q0 61 -42.5 98t-137.5 52l-217 39q-146 25 -224.5 101t-78.5 198q0 82 32 147t87.5 104.5t126 59.5t151.5 20q106 0 196 -15.5t206 -49.5l90 -27l-33 -164l-94 29q-224 66 -365 66q-93 0 -154 -40 t-61 -120q0 -62 42 -99.5t136 -54.5l217 -37q148 -25 227 -101t79 -196q0 -82 -32.5 -147t-88.5 -105t-126.5 -60.5t-150.5 -20.5q-106 0 -196.5 16t-204.5 51zM209 1563h235l142 -164l141 164h236l-267 -265q-47 -43 -110 -43q-69 0 -109 43z" />
<glyph unicode="&#x162;" horiz-adv-x="1282" d="M68 1352v172h1157v-172h-475v-1352h-209v1352h-473zM492 -309l55 209h196l-69 -252q-22 -72 -94 -72q-54 0 -77.5 33.5t-10.5 81.5z" />
<glyph unicode="&#x163;" horiz-adv-x="851" d="M39 940v160h172v268l184 37v-305h369v-160h-369v-580q0 -110 38.5 -159t131.5 -49q72 0 203 32l25 -161q-169 -35 -246 -35q-167 0 -251.5 90.5t-84.5 267.5v594h-172zM328 -309l55 209h197l-70 -252q-22 -72 -94 -72q-54 0 -77.5 33.5t-10.5 81.5z" />
<glyph unicode="&#x164;" horiz-adv-x="1282" d="M68 1352v172h1157v-172h-475v-1352h-209v1352h-473zM272 1864h240l133 -105l133 105h240l-258 -201q-53 -39 -115 -39q-68 0 -113 39z" />
<glyph unicode="&#x165;" horiz-adv-x="1218" d="M39 940v160h172v268l184 37v-305h369v-160h-369v-580q0 -110 38.5 -159t131.5 -49q72 0 203 32l25 -161q-169 -35 -246 -35q-167 0 -251.5 90.5t-84.5 267.5v594h-172zM506 1311l74 254h188l-94 -299q-22 -72 -88 -72q-52 0 -72.5 33.5t-7.5 83.5z" />
<glyph unicode="&#x166;" horiz-adv-x="1282" d="M61 1352v172h1158v-172h-476v-498h344v-156h-344v-698h-208v698h-326v156h326v498h-474z" />
<glyph unicode="&#x167;" horiz-adv-x="851" d="M35 567v158h176v215h-172v160h172v268l184 37v-305h369v-160h-369v-215h369v-158h-369v-207q0 -110 38.5 -159t131.5 -49q72 0 203 32l25 -161q-169 -35 -246 -35q-167 0 -251.5 90.5t-84.5 267.5v221h-176z" />
<glyph unicode="&#x168;" horiz-adv-x="1482" d="M141 545v979h207v-977q0 -193 99 -294t294 -101q394 0 394 395v977h206v-979q0 -268 -156.5 -421t-443.5 -153q-288 0 -444 152t-156 422zM338 1696q26 65 70 108.5t89.5 60.5t94.5 17q91 0 153 -41l89 -51q40 -25 81 -25q40 0 71 23.5t61 87.5l120 -68 q-37 -95 -106.5 -140.5t-145.5 -45.5q-84 0 -153 41l-88 53q-42 23 -82 23t-71 -24t-60 -87z" />
<glyph unicode="&#x169;" horiz-adv-x="1196" d="M143 393v723h187v-706q0 -118 58.5 -184t197.5 -66q112 0 278 41v915h189v-919q0 -125 -127 -156q-192 -49 -355 -49q-220 0 -324 109.5t-104 291.5zM168 1346q40 114 115 168.5t155 54.5q92 0 154 -51l96 -70q45 -31 84 -31q41 0 75 29.5t64 105.5l125 -71 q-38 -113 -113 -168.5t-155 -55.5q-87 0 -156 54l-94 67q-48 33 -84 33q-88 0 -141 -137z" />
<glyph unicode="&#x16a;" horiz-adv-x="1482" d="M141 545v979h207v-977q0 -193 99 -294t294 -101q394 0 394 395v977h206v-979q0 -268 -156.5 -421t-443.5 -153q-288 0 -444 152t-156 422zM420 1655v155h645v-155h-645z" />
<glyph unicode="&#x16b;" horiz-adv-x="1196" d="M143 393v723h187v-706q0 -118 58.5 -184t197.5 -66q112 0 278 41v915h189v-919q0 -125 -127 -156q-192 -49 -355 -49q-220 0 -324 109.5t-104 291.5zM276 1333v166h650v-166h-650z" />
<glyph unicode="&#x16c;" horiz-adv-x="1482" d="M141 545v979h207v-977q0 -193 99 -294t294 -101q394 0 394 395v977h206v-979q0 -268 -156.5 -421t-443.5 -153q-288 0 -444 152t-156 422zM387 1874h170q0 -53 50.5 -83t137.5 -30t139 30.5t52 82.5h168q0 -80 -51.5 -138t-131 -85t-176.5 -27q-151 0 -254.5 65.5 t-103.5 184.5z" />
<glyph unicode="&#x16d;" horiz-adv-x="1196" d="M143 393v723h187v-706q0 -118 58.5 -184t197.5 -66q112 0 278 41v915h189v-919q0 -125 -127 -156q-192 -49 -355 -49q-220 0 -324 109.5t-104 291.5zM242 1563h172q0 -78 52 -122t138 -44q85 0 138 44.5t53 121.5h170q0 -139 -104 -226.5t-257 -87.5q-155 0 -258.5 87.5 t-103.5 226.5z" />
<glyph unicode="&#x16e;" horiz-adv-x="1482" d="M141 545v979h207v-977q0 -193 99 -294t294 -101q394 0 394 395v977h206v-979q0 -268 -156.5 -421t-443.5 -153q-288 0 -444 152t-156 422zM522 1806q0 86 61.5 138.5t155.5 52.5q93 0 156 -52.5t63 -138.5q0 -84 -64 -138t-155 -54q-92 0 -154.5 53.5t-62.5 138.5z M635 1806q0 -42 29 -68t75 -26t76.5 26t30.5 68q0 40 -30 66t-77 26t-75.5 -26t-28.5 -66z" />
<glyph unicode="&#x16f;" horiz-adv-x="1196" d="M143 393v723h187v-706q0 -118 58.5 -184t197.5 -66q112 0 278 41v915h189v-919q0 -125 -127 -156q-192 -49 -355 -49q-220 0 -324 109.5t-104 291.5zM362 1427q0 98 67.5 160t168.5 62t169.5 -62t68.5 -160q0 -95 -69 -158t-169 -63q-99 0 -167.5 62.5t-68.5 158.5z M479 1427q0 -51 32.5 -83.5t86.5 -32.5t87.5 32.5t33.5 83.5q0 49 -33.5 83t-87.5 34t-86.5 -34t-32.5 -83z" />
<glyph unicode="&#x170;" horiz-adv-x="1482" d="M141 545v979h207v-977q0 -193 99 -294t294 -101q394 0 394 395v977h206v-979q0 -268 -156.5 -421t-443.5 -153q-288 0 -444 152t-156 422zM438 1688q0 30 29 53l160 123h243l-284 -217q-34 -27 -76 -27q-32 0 -52 20t-20 48zM811 1683q0 29 29 52l161 129h252l-299 -224 q-32 -22 -73 -22q-34 0 -52 18.5t-18 46.5z" />
<glyph unicode="&#x171;" horiz-adv-x="1196" d="M143 393v723h187v-706q0 -118 58.5 -184t197.5 -66q112 0 278 41v915h189v-919q0 -125 -127 -156q-192 -49 -355 -49q-220 0 -324 109.5t-104 291.5zM301 1333q0 32 29 64l162 166h243l-284 -271q-35 -30 -74 -30q-37 0 -56.5 21t-19.5 50zM672 1321q0 32 28 63l172 179 h246l-297 -285q-33 -29 -73 -29q-37 0 -56.5 21.5t-19.5 50.5z" />
<glyph unicode="&#x172;" horiz-adv-x="1482" d="M141 545v979h207v-977q0 -193 99 -294t294 -101q394 0 394 395v977h206v-979q0 -183 -73.5 -314t-214.5 -198q-84 -55 -84 -133q0 -84 116 -84q87 0 189 37l26 -113q-121 -47 -225 -47q-111 0 -179.5 43.5t-68.5 126.5q0 65 41 119q-72 -11 -127 -11q-288 0 -444 152 t-156 422z" />
<glyph unicode="&#x173;" horiz-adv-x="1196" d="M143 393v723h187v-706q0 -118 58.5 -184t197.5 -66q112 0 278 41v915h189v-919q0 -125 -127 -156q-68 -19 -115 -27q-90 -55 -90 -137q0 -84 117 -84q86 0 188 37l27 -113q-121 -47 -226 -47q-111 0 -179 43.5t-68 126.5q0 89 77 156q-66 -4 -86 -4q-220 0 -324 109.5 t-104 291.5z" />
<glyph unicode="&#x174;" horiz-adv-x="1894" d="M45 1524h199l225 -1291l352 1203q25 88 131 88q104 0 129 -88l344 -1205l230 1293h194l-268 -1428q-24 -112 -147 -112t-150 104l-338 1188l-346 -1188q-27 -102 -147 -102q-123 0 -142 112zM575 1626l261 199q49 39 112 39q66 0 115 -39l258 -199h-240l-133 103 l-133 -103h-240z" />
<glyph unicode="&#x175;" horiz-adv-x="1634" d="M63 1116h197l166 -917l279 850q24 75 112 75q89 0 113 -75l276 -854l174 921h189l-223 -1030q-10 -51 -46 -78.5t-92 -27.5q-109 0 -139 98l-254 790l-266 -792q-28 -94 -139 -94q-57 0 -93.5 26.5t-46.5 77.5zM444 1257l267 265q45 45 110 45q67 0 109 -45l268 -265 h-235l-142 166l-139 -166h-238z" />
<glyph unicode="&#x176;" horiz-adv-x="1363" d="M18 1524h234l440 -690l424 690h230l-553 -871v-653h-211v649zM309 1626l260 199q49 39 113 39q66 0 115 -39l258 -199h-240l-133 103l-133 -103h-240z" />
<glyph unicode="&#x177;" horiz-adv-x="1107" d="M45 1116h211l334 -928l282 928h205l-422 -1253q-79 -236 -325 -236q-89 0 -232 39l27 160q148 -37 199 -37q69 0 104.5 31.5t48.5 89.5l15 51zM188 1260l267 264q45 45 110 45q67 0 109 -45l268 -264h-235l-142 165l-139 -165h-238z" />
<glyph unicode="&#x178;" horiz-adv-x="1363" d="M18 1524h234l440 -690l424 690h230l-553 -871v-653h-211v649zM381 1745q0 56 30.5 88.5t84.5 32.5t84 -32.5t30 -88.5t-30 -88.5t-84 -32.5t-84.5 32.5t-30.5 88.5zM776 1745q0 56 30.5 88.5t84.5 32.5t84.5 -32.5t30.5 -88.5t-30.5 -88.5t-84.5 -32.5t-84.5 32.5 t-30.5 88.5z" />
<glyph unicode="&#x179;" horiz-adv-x="1335" d="M104 121q0 51 37 100l842 1135h-852v168h971q60 0 89.5 -32.5t29.5 -88.5q0 -51 -37 -100l-838 -1135h881v-168h-1004q-60 0 -89.5 32.5t-29.5 88.5zM487 1694q0 40 35 63l156 107h274l-313 -213q-42 -27 -76 -27q-36 0 -56 21.5t-20 48.5z" />
<glyph unicode="&#x17a;" horiz-adv-x="1103" d="M96 111q0 51 39 100l651 754h-663v151h782q54 0 81.5 -29.5t27.5 -80.5q0 -52 -39 -101l-649 -753h688v-152h-809q-53 0 -81 30.5t-28 80.5zM383 1341q0 37 31 68l164 154h262l-301 -263q-37 -32 -76 -32q-36 0 -58 23t-22 50z" />
<glyph unicode="&#x17b;" horiz-adv-x="1335" d="M104 121q0 51 37 100l842 1135h-852v168h971q60 0 89.5 -32.5t29.5 -88.5q0 -51 -37 -100l-838 -1135h881v-168h-1004q-60 0 -89.5 32.5t-29.5 88.5zM563 1745q0 56 32 89.5t87 33.5t86 -33.5t31 -89.5t-31 -88.5t-86 -32.5t-87 32.5t-32 88.5z" />
<glyph unicode="&#x17c;" horiz-adv-x="1103" d="M96 111q0 51 39 100l651 754h-663v151h782q54 0 81.5 -29.5t27.5 -80.5q0 -52 -39 -101l-649 -753h688v-152h-809q-53 0 -81 30.5t-28 80.5zM444 1446q0 57 32 91t87 34t87 -34t32 -91q0 -58 -32 -92.5t-87 -34.5t-87 34.5t-32 92.5z" />
<glyph unicode="&#x17d;" horiz-adv-x="1335" d="M104 121q0 51 37 100l842 1135h-852v168h971q60 0 89.5 -32.5t29.5 -88.5q0 -51 -37 -100l-838 -1135h881v-168h-1004q-60 0 -89.5 32.5t-29.5 88.5zM303 1864h240l133 -105l133 105h240l-258 -201q-53 -39 -115 -39q-68 0 -113 39z" />
<glyph unicode="&#x17e;" horiz-adv-x="1103" d="M96 111q0 51 39 100l651 754h-663v151h782q54 0 81.5 -29.5t27.5 -80.5q0 -52 -39 -101l-649 -753h688v-152h-809q-53 0 -81 30.5t-28 80.5zM207 1563h235l142 -164l141 164h236l-267 -265q-47 -43 -110 -43q-69 0 -109 43z" />
<glyph unicode="&#x192;" d="M254 -217q97 3 138.5 54t41.5 159v944h-176v160h176v108q0 175 89.5 267t252.5 92q78 0 242 -37l-25 -160q-135 33 -205 33q-93 0 -131.5 -48.5t-38.5 -160.5v-94h347v-160h-347v-950q0 -176 -94 -268.5t-270 -92.5v154z" />
<glyph unicode="&#x218;" horiz-adv-x="1314" d="M115 106l41 183l112 -37q268 -92 447 -92q57 0 108 14.5t93 43t67 77t25 111.5q0 93 -53.5 149t-170.5 82l-286 65q-377 81 -377 402q0 108 40.5 192t109.5 135t155 77t184 26q125 0 235.5 -21.5t252.5 -66.5l108 -37l-43 -182l-110 37q-262 92 -439 92q-59 0 -110 -14 t-92 -42.5t-64.5 -76.5t-23.5 -111q0 -93 52 -148t169 -81l286 -66q186 -39 282.5 -137.5t96.5 -265.5q0 -107 -40.5 -191t-109.5 -135t-156 -77.5t-185 -26.5q-127 0 -242 21t-254 65zM518 -309l55 209h197l-70 -252q-22 -72 -94 -72q-54 0 -77.5 33.5t-10.5 81.5z" />
<glyph unicode="&#x219;" horiz-adv-x="1124" d="M115 80l30 160l95 -27q228 -66 366 -66q94 0 154.5 40.5t60.5 121.5q0 61 -42.5 98t-137.5 52l-217 39q-146 25 -224.5 101t-78.5 198q0 82 32 147t87.5 104.5t126 59.5t151.5 20q106 0 196 -15.5t206 -49.5l90 -27l-33 -164l-94 29q-224 66 -365 66q-93 0 -154 -40 t-61 -120q0 -62 42 -99.5t136 -54.5l217 -37q148 -25 227 -101t79 -196q0 -82 -32.5 -147t-88.5 -105t-126.5 -60.5t-150.5 -20.5q-106 0 -196.5 16t-204.5 51zM424 -309l55 209h197l-70 -252q-22 -72 -94 -72q-54 0 -77.5 33.5t-10.5 81.5z" />
<glyph unicode="&#x237;" horiz-adv-x="516" d="M-4 -217q96 3 136 54t40 159v1120h188v-1126q0 -176 -94 -268.5t-270 -92.5v154z" />
<glyph unicode="&#x2c6;" horiz-adv-x="1085" d="M199 1257l266 265q45 45 110 45q67 0 109 -45l268 -265h-235l-142 166l-139 -166h-237z" />
<glyph unicode="&#x2c7;" horiz-adv-x="1085" d="M199 1563h235l141 -164l142 164h235l-266 -265q-47 -43 -111 -43q-68 0 -108 43z" />
<glyph unicode="&#x2d8;" horiz-adv-x="1085" d="M201 1563h172q0 -78 52 -122t138 -44q85 0 138 44.5t53 121.5h170q0 -139 -104 -226.5t-257 -87.5q-155 0 -258.5 87.5t-103.5 226.5z" />
<glyph unicode="&#x2d9;" horiz-adv-x="1085" d="M426 1446q0 57 32 91t87 34t87 -34t32 -91q0 -58 -32 -92.5t-87 -34.5t-87 34.5t-32 92.5z" />
<glyph unicode="&#x2da;" horiz-adv-x="1085" d="M334 1427q0 98 67 160t168 62t169.5 -62t68.5 -160q0 -95 -69 -158t-169 -63q-99 0 -167 62.5t-68 158.5zM451 1427q0 -51 32.5 -83.5t85.5 -32.5q54 0 87.5 32.5t33.5 83.5q0 49 -33.5 83t-87.5 34t-86 -34t-32 -83z" />
<glyph unicode="&#x2db;" horiz-adv-x="1085" d="M309 -178q0 108 113 178l117 12l8 -12q-96 -58 -96 -141q0 -84 116 -84q87 0 189 37l26 -113q-121 -47 -225 -47q-111 0 -179.5 43.5t-68.5 126.5z" />
<glyph unicode="&#x2dc;" horiz-adv-x="1085" d="M113 1346q40 114 115 168.5t155 54.5q92 0 154 -51l96 -70q45 -31 84 -31q41 0 75 29.5t64 105.5l125 -71q-38 -113 -113 -168.5t-155 -55.5q-87 0 -156 54l-94 67q-48 33 -84 33q-88 0 -141 -137z" />
<glyph unicode="&#x2dd;" horiz-adv-x="1085" d="M172 1333q0 32 29 64l161 166h244l-284 -271q-34 -30 -74 -30q-37 0 -56.5 21t-19.5 50zM543 1321q0 32 28 63l172 179h246l-297 -285q-33 -29 -74 -29q-37 0 -56 21.5t-19 50.5z" />
<glyph unicode="&#x3c0;" horiz-adv-x="1435" d="M66 963v153h1304v-153h-371v-603q0 -110 38.5 -159t131.5 -49q70 0 201 32l27 -161q-169 -35 -246 -35q-167 0 -251.5 90.5t-84.5 267.5v617h-387v-963h-186v963h-176z" />
<glyph unicode="&#x1e80;" horiz-adv-x="1894" d="M45 1524h199l225 -1291l352 1203q25 88 131 88q104 0 129 -88l344 -1205l230 1293h194l-268 -1428q-24 -112 -147 -112t-150 104l-338 1188l-346 -1188q-27 -102 -147 -102q-123 0 -142 112zM682 1864h274l156 -107q33 -24 33 -63q0 -27 -20 -48.5t-56 -21.5 q-34 0 -76 27z" />
<glyph unicode="&#x1e81;" horiz-adv-x="1634" d="M63 1116h197l166 -917l279 850q24 75 112 75q89 0 113 -75l276 -854l174 921h189l-223 -1030q-10 -51 -46 -78.5t-92 -27.5q-109 0 -139 98l-254 790l-266 -792q-28 -94 -139 -94q-57 0 -93.5 26.5t-46.5 77.5zM549 1563h262l162 -154q31 -31 31 -68q0 -28 -21.5 -50.5 t-58.5 -22.5t-74 32z" />
<glyph unicode="&#x1e82;" horiz-adv-x="1894" d="M45 1524h199l225 -1291l352 1203q25 88 131 88q104 0 129 -88l344 -1205l230 1293h194l-268 -1428q-24 -112 -147 -112t-150 104l-338 1188l-346 -1188q-27 -102 -147 -102q-123 0 -142 112zM754 1694q0 40 34 63l156 107h275l-314 -213q-42 -27 -76 -27q-36 0 -55.5 21 t-19.5 49z" />
<glyph unicode="&#x1e83;" horiz-adv-x="1634" d="M63 1116h197l166 -917l279 850q24 75 112 75q89 0 113 -75l276 -854l174 921h189l-223 -1030q-10 -51 -46 -78.5t-92 -27.5q-109 0 -139 98l-254 790l-266 -792q-28 -94 -139 -94q-57 0 -93.5 26.5t-46.5 77.5zM651 1341q0 37 31 68l164 154h262l-301 -263 q-37 -32 -76 -32q-36 0 -58 23t-22 50z" />
<glyph unicode="&#x1e84;" horiz-adv-x="1894" d="M45 1524h199l225 -1291l352 1203q25 88 131 88q104 0 129 -88l344 -1205l230 1293h194l-268 -1428q-24 -112 -147 -112t-150 104l-338 1188l-346 -1188q-27 -102 -147 -102q-123 0 -142 112zM637 1745q0 56 30.5 88.5t84.5 32.5t84 -32.5t30 -88.5t-30 -88.5t-84 -32.5 t-84.5 32.5t-30.5 88.5zM1032 1745q0 56 30.5 88.5t84.5 32.5t84.5 -32.5t30.5 -88.5t-30.5 -88.5t-84.5 -32.5t-84.5 32.5t-30.5 88.5z" />
<glyph unicode="&#x1e85;" horiz-adv-x="1634" d="M63 1116h197l166 -917l279 850q24 75 112 75q89 0 113 -75l276 -854l174 921h189l-223 -1030q-10 -51 -46 -78.5t-92 -27.5q-109 0 -139 98l-254 790l-266 -792q-28 -94 -139 -94q-57 0 -93.5 26.5t-46.5 77.5zM502 1446q0 57 31 91t85 34q55 0 86 -33.5t31 -91.5 t-31 -91.5t-86 -33.5q-54 0 -85 34t-31 91zM901 1446q0 58 31 91.5t86 33.5q54 0 85.5 -34t31.5 -91t-31.5 -91t-85.5 -34q-55 0 -86 33.5t-31 91.5z" />
<glyph unicode="&#x1ef2;" horiz-adv-x="1363" d="M18 1524h234l440 -690l424 690h230l-553 -871v-653h-211v649zM401 1864h275l155 -107q33 -24 33 -63q0 -27 -20 -48.5t-56 -21.5q-33 0 -75 27z" />
<glyph unicode="&#x1ef3;" horiz-adv-x="1107" d="M45 1116h211l334 -928l282 928h205l-422 -1253q-79 -236 -325 -236q-89 0 -232 39l27 160q148 -37 199 -37q69 0 104.5 31.5t48.5 89.5l15 51zM260 1563h262l162 -154q31 -31 31 -68q0 -28 -21.5 -50.5t-58.5 -22.5t-74 32z" />
<glyph unicode="&#x2000;" horiz-adv-x="998" />
<glyph unicode="&#x2001;" horiz-adv-x="1997" />
<glyph unicode="&#x2002;" horiz-adv-x="998" />
<glyph unicode="&#x2003;" horiz-adv-x="1997" />
<glyph unicode="&#x2004;" horiz-adv-x="665" />
<glyph unicode="&#x2005;" horiz-adv-x="499" />
<glyph unicode="&#x2006;" horiz-adv-x="332" />
<glyph unicode="&#x2007;" horiz-adv-x="332" />
<glyph unicode="&#x2008;" horiz-adv-x="249" />
<glyph unicode="&#x2009;" horiz-adv-x="399" />
<glyph unicode="&#x200a;" horiz-adv-x="110" />
<glyph unicode="&#x2010;" horiz-adv-x="854" d="M115 549v172h624v-172h-624z" />
<glyph unicode="&#x2011;" horiz-adv-x="854" d="M115 549v172h624v-172h-624z" />
<glyph unicode="&#x2012;" d="M115 547v170h979v-170h-979z" />
<glyph unicode="&#x2013;" d="M117 545v168h975v-168h-975z" />
<glyph unicode="&#x2014;" horiz-adv-x="2048" d="M117 545v166h1814v-166h-1814z" />
<glyph unicode="&#x2018;" horiz-adv-x="446" d="M61 1092l111 399q22 72 96 72q53 0 76 -33.5t12 -81.5l-92 -356h-203z" />
<glyph unicode="&#x2019;" horiz-adv-x="446" d="M72 1196l92 367h205l-113 -410q-21 -72 -96 -72q-54 0 -77.5 33.5t-10.5 81.5z" />
<glyph unicode="&#x201a;" horiz-adv-x="446" d="M68 -139l96 372h205l-117 -417q-22 -72 -96 -72q-53 0 -76 33.5t-12 83.5z" />
<glyph unicode="&#x201c;" horiz-adv-x="811" d="M61 1090l111 401q22 72 94 72q52 0 73.5 -33.5t10.5 -83.5l-92 -356h-197zM430 1090l113 401q9 34 33 53t59 19q52 0 74.5 -33.5t11.5 -83.5l-92 -356h-199z" />
<glyph unicode="&#x201d;" horiz-adv-x="811" d="M72 1196l94 367h196l-112 -410q-22 -74 -94 -74q-52 0 -74.5 34t-9.5 83zM442 1196l93 367h198l-112 -410q-22 -74 -95 -74q-52 0 -74.5 34t-9.5 83z" />
<glyph unicode="&#x201e;" horiz-adv-x="811" d="M68 -145l96 378h198l-116 -423q-22 -72 -94 -72q-52 0 -74.5 34t-9.5 83zM438 -145l97 378h198l-117 -423q-22 -72 -94 -72q-52 0 -74.5 34t-9.5 83z" />
<glyph unicode="&#x2020;" d="M119 836v223l411 -35l-36 500h227l-35 -500l404 35v-223l-410 36l41 -1253h-227l41 1253z" />
<glyph unicode="&#x2021;" d="M119 86v223l426 -35l-51 297l51 301l-426 -36v223l411 -35l-36 500h227l-35 -500l404 35v-223l-420 36l53 -301l-53 -297l420 35v-223l-404 37l35 -504h-227l36 504z" />
<glyph unicode="&#x2022;" horiz-adv-x="899" d="M188 682q0 136 70.5 212.5t194.5 76.5q123 0 193.5 -76.5t70.5 -212.5q0 -137 -70 -214t-194 -77t-194.5 77t-70.5 214z" />
<glyph unicode="&#x2026;" horiz-adv-x="1337" d="M104 109q0 59 32 93t89 34q55 0 87 -34t32 -93q0 -60 -31.5 -93.5t-87.5 -33.5q-57 0 -89 33.5t-32 93.5zM551 109q0 59 32 93t87 34q57 0 89 -34t32 -93q0 -60 -32 -93.5t-89 -33.5q-56 0 -87.5 33.5t-31.5 93.5zM997 109q0 59 32 93t87 34t87 -34t32 -93 q0 -60 -31.5 -93.5t-87.5 -33.5t-87.5 33.5t-31.5 93.5z" />
<glyph unicode="&#x202f;" horiz-adv-x="399" />
<glyph unicode="&#x2030;" horiz-adv-x="1863" d="M70 1042v246q0 117 62 182.5t179 65.5t177.5 -64.5t60.5 -183.5v-241q0 -121 -60.5 -185.5t-177.5 -64.5t-179 64t-62 181zM174 0l766 1524h154l-762 -1524h-158zM207 1044q0 -131 102 -131q105 0 105 131v242q0 131 -105 131q-102 0 -102 -131v-242zM723 236v247 q0 117 62.5 181.5t179.5 64.5t177 -64.5t60 -183.5v-241q0 -120 -60 -185t-177 -65t-179.5 64.5t-62.5 181.5zM860 240q0 -131 103 -131q104 0 104 131v241q0 131 -104 131q-103 0 -103 -131v-241zM1315 236v247q0 116 62.5 181t178.5 65q117 0 177.5 -64.5t60.5 -183.5 v-241q0 -120 -60.5 -185t-177.5 -65q-116 0 -178.5 65t-62.5 181zM1452 240q0 -131 102 -131q105 0 105 131v241q0 131 -105 131q-102 0 -102 -131v-241z" />
<glyph unicode="&#x2039;" horiz-adv-x="727" d="M98 575q0 56 47 103l291 287h228l-390 -390l390 -387h-228l-291 285q-47 47 -47 102z" />
<glyph unicode="&#x203a;" horiz-adv-x="727" d="M63 188l390 387l-390 390h228l291 -287q47 -47 47 -103q0 -55 -47 -102l-291 -285h-228z" />
<glyph unicode="&#x2044;" horiz-adv-x="40" d="M-440 0l768 1524h153l-766 -1524h-155z" />
<glyph unicode="&#x205f;" horiz-adv-x="499" />
<glyph unicode="&#x2070;" horiz-adv-x="612" d="M63 1241v248q0 117 62.5 181.5t179.5 64.5t177.5 -64.5t60.5 -183.5v-242q0 -120 -60.5 -185t-177.5 -65t-179.5 64.5t-62.5 181.5zM201 1245q0 -131 102 -131q105 0 105 131v242q0 131 -105 131q-102 0 -102 -131v-242z" />
<glyph unicode="&#x2074;" horiz-adv-x="612" d="M37 1202q0 30 18 55l277 429q30 49 90 49q82 0 82 -80v-410h76v-117h-76v-122h-135v122h-260q-35 0 -53.5 20t-18.5 54zM201 1245h168v260z" />
<glyph unicode="&#x2075;" horiz-adv-x="612" d="M53 1051l25 118l67 -20q95 -31 150 -31q61 0 93 34t32 93q0 123 -127 123q-45 0 -113 -18l-92 -27v401h438v-120h-313v-131q43 12 98 12q118 0 181 -59.5t63 -180.5q0 -115 -67.5 -181.5t-188.5 -66.5q-99 0 -184 31z" />
<glyph unicode="&#x2076;" horiz-adv-x="612" d="M63 1247v250q0 106 65.5 171t176.5 65q70 0 184 -29l62 -18l-23 -119l-73 20q-95 27 -146 27q-106 0 -106 -117v-31q71 19 114 19q244 0 244 -238q0 -110 -64 -179t-182 -69q-117 0 -184.5 68t-67.5 180zM203 1253q0 -64 29.5 -99.5t84.5 -35.5q52 0 80.5 34t28.5 93 q0 119 -123 119q-45 0 -100 -14v-97z" />
<glyph unicode="&#x2077;" horiz-adv-x="612" d="M63 1606v118h418q38 0 59 -19t21 -52q0 -27 -12 -54l-250 -593h-147l256 600h-345z" />
<glyph unicode="&#x2078;" horiz-adv-x="612" d="M51 1198q0 81 55 139l33 35l-26 37q-43 55 -43 131q0 91 62.5 143t172.5 52q113 0 176.5 -52t63.5 -143q0 -76 -43 -131l-25 -37l31 -35q57 -66 57 -139q0 -94 -69 -148.5t-187 -54.5q-119 0 -188.5 54.5t-69.5 148.5zM186 1200q0 -39 31 -62.5t90 -23.5t90 23t31 63 q0 33 -31 72l-35 39h-110l-37 -39q-29 -32 -29 -72zM205 1538q0 -39 24 -78l25 -37h106l25 35q27 39 27 80q0 35 -26 56.5t-79 21.5q-51 0 -76.5 -21.5t-25.5 -56.5z" />
<glyph unicode="&#x2079;" horiz-adv-x="612" d="M53 1485q0 110 64.5 179t183.5 69q117 0 183.5 -68t66.5 -180v-248q0 -106 -65 -172t-177 -66q-74 0 -182 31l-61 17l22 118l74 -20q87 -25 143 -25q109 0 109 115v33q-68 -21 -115 -21q-121 0 -183.5 60.5t-62.5 177.5zM190 1487q0 -119 123 -119q44 0 101 14v99 q0 63 -30.5 99t-86.5 36q-50 0 -78.5 -35t-28.5 -94z" />
<glyph unicode="&#x207a;" horiz-adv-x="612" d="M57 1262v114h179v191h129v-191h180v-114h-180v-193h-129v193h-179z" />
<glyph unicode="&#x207b;" horiz-adv-x="612" d="M59 1262v116h484v-116h-484z" />
<glyph unicode="&#x207c;" horiz-adv-x="612" d="M57 1174v112h488v-112h-488zM57 1350v116h488v-116h-488z" />
<glyph unicode="&#x207d;" horiz-adv-x="337" d="M39 1337q0 97 16.5 170t42 114.5t62.5 66.5t71.5 33t75.5 8v-111q-18 -2 -32 -6.5t-34 -22t-33 -45.5t-22.5 -81.5t-9.5 -125.5q0 -75 9.5 -130t22.5 -84t33 -46.5t34 -21.5t32 -6v-111q-38 0 -71.5 8t-71 34t-64 68t-44 116.5t-17.5 172.5z" />
<glyph unicode="&#x207e;" horiz-adv-x="337" d="M27 938v111q18 2 32.5 6t34.5 21.5t33 46.5t23 84t10 130q0 270 -133 281v111q42 0 76.5 -8t71.5 -33t62 -66.5t41.5 -114t16.5 -170.5t-17.5 -172.5t-44.5 -116.5t-64.5 -68t-70.5 -34t-71 -8z" />
<glyph unicode="&#x207f;" horiz-adv-x="794" d="M111 844v551q0 40 23.5 67.5t62.5 38.5q119 29 211 29q137 0 202.5 -68t65.5 -180v-438h-144v428q0 62 -31 96.5t-104 34.5q-54 0 -143 -21v-538h-143z" />
<glyph unicode="&#x2080;" horiz-adv-x="612" d="M63 31v248q0 117 62.5 181t179.5 64t177.5 -64.5t60.5 -183.5v-241q0 -120 -60.5 -185t-177.5 -65t-179.5 64.5t-62.5 181.5zM201 35q0 -131 102 -131q105 0 105 131v241q0 132 -105 132q-102 0 -102 -132v-241z" />
<glyph unicode="&#x2081;" horiz-adv-x="612" d="M57 -86h203v479h-20q-62 0 -117 -28l-33 118q67 31 152 31h63q47 0 71.5 -23t24.5 -65v-512h162v-119h-506v119z" />
<glyph unicode="&#x2082;" horiz-adv-x="612" d="M57 -131q0 34 33 63l229 215q51 49 71 81.5t20 80.5t-28.5 71t-78.5 23q-68 0 -153 -30l-66 -21l-25 117l62 20q101 35 190 35q101 0 167.5 -52.5t66.5 -162.5q0 -123 -129 -241l-168 -156h299v-117h-414q-35 0 -55.5 20t-20.5 54z" />
<glyph unicode="&#x2083;" horiz-adv-x="612" d="M47 -160l27 121l65 -20q103 -35 172 -35q54 0 82.5 22.5t28.5 63.5q0 42 -29 74l-35 34h-145v115h143l27 35q23 38 23 74q0 79 -101 79q-65 0 -151 -28l-68 -23l-23 119l62 21q97 32 188 32q111 0 169.5 -49t58.5 -143q0 -76 -43 -133l-27 -35l33 -35q57 -63 57 -137 q0 -95 -67.5 -150t-180.5 -55q-85 0 -200 33z" />
<glyph unicode="&#x2084;" horiz-adv-x="612" d="M37 -8q0 30 18 55l277 428q30 49 90 49q82 0 82 -80v-409h76v-117h-76v-123h-135v123h-260q-35 0 -53.5 20t-18.5 54zM201 35h168v260z" />
<glyph unicode="&#x2085;" horiz-adv-x="612" d="M53 -160l25 119l67 -20q95 -31 150 -31q61 0 93 34t32 93q0 123 -127 123q-42 0 -113 -19l-92 -26v401h438v-121h-313v-131q43 12 98 12q118 0 181 -59t63 -180q0 -115 -67.5 -181.5t-188.5 -66.5q-99 0 -184 31z" />
<glyph unicode="&#x2086;" horiz-adv-x="612" d="M63 37v250q0 105 65.5 170t176.5 65q74 0 184 -28l62 -19l-23 -119l-73 21q-91 26 -146 26q-106 0 -106 -116v-31q67 18 114 18q244 0 244 -237q0 -110 -64 -179t-182 -69q-117 0 -184.5 68t-67.5 180zM203 43q0 -64 29.5 -99.5t84.5 -35.5q52 0 80.5 34t28.5 93 q0 119 -123 119q-41 0 -100 -15v-96z" />
<glyph unicode="&#x2087;" horiz-adv-x="612" d="M63 395v119h418q38 0 59 -19.5t21 -52.5q0 -26 -12 -53l-250 -594h-147l256 600h-345z" />
<glyph unicode="&#x2088;" horiz-adv-x="612" d="M51 -12q0 81 55 139l33 35l-26 37q-43 55 -43 131q0 91 62.5 142.5t172.5 51.5q114 0 177 -51.5t63 -142.5q0 -76 -43 -131l-25 -37l31 -35q57 -66 57 -139q0 -94 -69 -148.5t-187 -54.5q-119 0 -188.5 54.5t-69.5 148.5zM186 -10q0 -39 31 -62.5t90 -23.5t90 23t31 63 q0 32 -31 71l-35 39h-110l-37 -39q-29 -32 -29 -71zM205 328q0 -39 24 -78l25 -37h106l25 35q27 39 27 80q0 35 -26 56.5t-79 21.5q-51 0 -76.5 -21.5t-25.5 -56.5z" />
<glyph unicode="&#x2089;" horiz-adv-x="612" d="M53 274q0 110 64.5 179t183.5 69q117 0 183.5 -68t66.5 -180v-247q0 -106 -65 -172t-177 -66q-74 0 -182 31l-61 16l22 119l74 -21q84 -24 143 -24q109 0 109 115v32q-64 -20 -115 -20q-121 0 -183.5 60t-62.5 177zM190 276q0 -118 123 -118q44 0 101 14v98 q0 63 -30.5 99.5t-86.5 36.5q-50 0 -78.5 -35.5t-28.5 -94.5z" />
<glyph unicode="&#x208d;" horiz-adv-x="337" d="M39 127q0 82 11 146t31.5 105.5t45 70.5t56.5 43t61 20t63 6v-110q-18 -2 -32 -6.5t-34 -22t-33 -45.5t-22.5 -81.5t-9.5 -125.5q0 -75 9.5 -130t22.5 -84t33 -46.5t34 -22t32 -6.5v-110q-38 0 -71.5 8t-71 34t-64 68t-44 116.5t-17.5 172.5z" />
<glyph unicode="&#x208e;" horiz-adv-x="337" d="M27 -162q18 2 32.5 6.5t34.5 22t33.5 46.5t23 84t9.5 130q0 270 -133 281v110q42 0 76.5 -8t71.5 -33t62 -66t41.5 -113.5t16.5 -170.5t-17.5 -172.5t-44.5 -116.5t-64.5 -68t-70.5 -34t-71 -8v110z" />
<glyph unicode="&#x20ac;" d="M59 545v149h152v140h-152v149h152q3 268 146.5 413.5t377.5 145.5q109 0 316 -57l90 -25l-31 -170l-92 27q-185 49 -273 49q-332 0 -335 -383h481v-149h-483v-140h483v-149h-481q1 -198 86 -291.5t249 -93.5q88 0 273 49l92 27l31 -170l-90 -25q-207 -57 -316 -57 q-234 0 -377.5 145.5t-146.5 415.5h-152z" />
<glyph unicode="&#x2113;" horiz-adv-x="800" d="M31 434l151 115v244q0 127 16 234t49 192.5t88.5 133.5t129.5 48q91 0 138.5 -75t47.5 -181q0 -108 -41.5 -210.5t-105 -184t-160.5 -172.5v-168q0 -185 46.5 -257.5t141.5 -72.5q130 0 230 149l39 -34q-128 -220 -342 -220q-70 0 -118.5 16t-85.5 55.5t-55 110 t-18 175.5v147l-125 -92zM344 662q91 106 146 229t55 248q0 86 -26 143t-73 57q-57 0 -79.5 -98t-22.5 -330v-249z" />
<glyph unicode="&#x2122;" horiz-adv-x="1802" d="M113 1401v123h639v-123h-246v-721h-150v721h-243zM885 680v764q0 43 28.5 66.5t73.5 23.5q89 0 113 -74l178 -579l182 575q10 35 40 53.5t73 18.5q48 0 74 -21t26 -61v-766h-133v608l-184 -557q-15 -51 -80 -51t-80 51l-182 553v-604h-129z" />
<glyph unicode="&#x2126;" horiz-adv-x="1632" d="M104 0v152h396q-15 8 -21.5 12t-39.5 25.5t-55.5 40.5t-60 55t-64.5 71.5t-58 87.5t-51 106t-33 123.5t-13 143.5q0 166 55 302t151 226t226 138.5t281 48.5t280 -48t224.5 -137.5t150 -225.5t54.5 -304q0 -91 -20 -175t-47 -144t-71.5 -119t-75 -91t-78 -68t-59 -43 t-38.5 -22q-1 -2 -2 -2.5t-2 -0.5h393v-152h-504q-107 0 -107 106q0 30 15 59t41 44q155 90 250.5 240t95.5 356q0 263 -139 412t-361 149q-224 0 -363 -149t-139 -412q0 -207 95 -357t249 -239q26 -15 41 -44t15 -59q0 -106 -109 -106h-502z" />
<glyph unicode="&#x212e;" horiz-adv-x="1560" d="M59 627q0 175 96.5 324t262.5 236t360 87q149 0 283.5 -53t230 -142.5t151.5 -212.5t56 -258h-1165q-10 0 -10 -8v-352q0 -23 16 -39q156 -162 440 -162q304 0 463 184h105q-98 -116 -248.5 -182.5t-321.5 -66.5q-194 0 -360 86.5t-262.5 235t-96.5 323.5zM324 686 q0 -12 10 -12h893q8 0 8 12v324q0 23 -18 41q-166 163 -437 163t-438 -170q-18 -15 -18 -43v-315z" />
<glyph unicode="&#x2153;" horiz-adv-x="1271" d="M43 805v119h203v479h-21q-59 0 -116 -29l-33 119q67 31 151 31h64q47 0 71.5 -23t24.5 -65v-512h162v-119h-506zM182 0l768 1524h154l-766 -1524h-156zM705 45l26 121l66 -21q100 -34 172 -34q54 0 82 22.5t28 63.5q0 42 -28 73l-35 35h-146v115h144l26 35q23 38 23 73 q0 80 -100 80q-66 0 -152 -28l-68 -23l-22 119l61 20q100 33 189 33q110 0 168.5 -49t58.5 -143q0 -77 -43 -134l-27 -34l33 -35q58 -64 58 -137q0 -95 -67.5 -150t-180.5 -55q-85 0 -201 33z" />
<glyph unicode="&#x2154;" horiz-adv-x="1271" d="M45 879q0 34 33 63l229 215q50 49 70 81.5t20 80.5q0 94 -106 94q-66 0 -154 -31l-65 -20l-25 117l62 20q101 35 190 35q101 0 167 -52.5t66 -162.5q0 -124 -129 -242l-167 -155h299v-117h-414q-35 0 -55.5 20t-20.5 54zM174 0l768 1524h154l-766 -1524h-156zM705 45 l26 121l66 -21q100 -34 172 -34q54 0 82 22.5t28 63.5q0 42 -28 73l-35 35h-146v115h144l26 35q23 38 23 73q0 80 -100 80q-66 0 -152 -28l-68 -23l-22 119l61 20q100 33 189 33q110 0 168.5 -49t58.5 -143q0 -77 -43 -134l-27 -34l33 -35q58 -64 58 -137q0 -95 -67.5 -150 t-180.5 -55q-85 0 -201 33z" />
<glyph unicode="&#x2155;" horiz-adv-x="1271" d="M43 805v119h203v479h-21q-59 0 -116 -29l-33 119q67 31 151 31h64q47 0 71.5 -23t24.5 -65v-512h162v-119h-506zM180 0l768 1524h154l-766 -1524h-156zM707 45l24 119l68 -21q92 -30 149 -30q61 0 93 34t32 93q0 63 -31 92.5t-96 29.5q-44 0 -112 -18l-93 -27v402h439 v-121h-314v-131q44 12 99 12q243 0 243 -239q0 -115 -67.5 -181.5t-188.5 -66.5q-99 0 -184 31z" />
<glyph unicode="&#x2156;" horiz-adv-x="1271" d="M43 879q0 34 33 63l229 215q50 49 70 81.5t20 80.5q0 94 -106 94q-66 0 -154 -31l-65 -20l-25 117l61 20q101 35 191 35q101 0 167 -52.5t66 -162.5q0 -124 -129 -242l-168 -155h299v-117h-413q-35 0 -55.5 20t-20.5 54zM172 0l768 1524h154l-766 -1524h-156zM707 45 l24 119l68 -21q92 -30 149 -30q61 0 93 34t32 93q0 63 -31 92.5t-96 29.5q-44 0 -112 -18l-93 -27v402h439v-121h-314v-131q44 12 99 12q243 0 243 -239q0 -115 -67.5 -181.5t-188.5 -66.5q-99 0 -184 31z" />
<glyph unicode="&#x2157;" horiz-adv-x="1271" d="M37 850l26 121l66 -21q103 -35 172 -35q54 0 82.5 22.5t28.5 63.5q0 42 -29 74l-35 35h-145v115h143l27 35q22 36 22 73q0 80 -100 80q-63 0 -152 -29l-67 -22l-23 119l62 20q100 33 188 33q110 0 168.5 -49.5t58.5 -143.5q0 -76 -43 -133l-26 -34l33 -35q57 -63 57 -138 q0 -95 -67.5 -149.5t-180.5 -54.5q-89 0 -201 32zM166 0l768 1524h153l-765 -1524h-156zM711 45l24 119l68 -21q92 -30 149 -30q61 0 93 34t32 93q0 63 -31 92.5t-96 29.5q-44 0 -112 -18l-93 -27v402h439v-121h-314v-131q44 12 99 12q243 0 243 -239q0 -115 -67.5 -181.5 t-188.5 -66.5q-99 0 -184 31z" />
<glyph unicode="&#x2158;" horiz-adv-x="1271" d="M33 1001q0 31 18 56l277 428q30 49 90 49q82 0 82 -80v-410h75v-116h-75v-123h-135v123h-261q-35 0 -53 19.5t-18 53.5zM178 0l768 1524h154l-766 -1524h-156zM197 1044h168v261zM711 45l24 119l68 -21q92 -30 149 -30q61 0 93 34t32 93q0 63 -31 92.5t-96 29.5 q-44 0 -112 -18l-93 -27v402h439v-121h-314v-131q44 12 99 12q243 0 243 -239q0 -115 -67.5 -181.5t-188.5 -66.5q-99 0 -184 31z" />
<glyph unicode="&#x2159;" horiz-adv-x="1271" d="M43 805v119h203v479h-21q-59 0 -116 -29l-33 119q67 31 151 31h64q47 0 71.5 -23t24.5 -65v-512h162v-119h-506zM195 0l768 1524h153l-766 -1524h-155zM725 242v250q0 105 65.5 170t176.5 65q70 0 184 -29l61 -18l-22 -119l-74 21q-91 26 -145 26q-107 0 -107 -116v-31 q68 18 115 18q244 0 244 -237q0 -110 -64 -179t-182 -69q-117 0 -184.5 68t-67.5 180zM864 248q0 -64 30 -99.5t85 -35.5q52 0 80 34t28 93q0 118 -122 118q-46 0 -101 -14v-96z" />
<glyph unicode="&#x215a;" horiz-adv-x="1271" d="M47 850l25 119l67 -21q92 -30 150 -30q61 0 93 33.5t32 92.5q0 123 -127 123q-45 0 -113 -18l-92 -27v402h438v-121h-313v-131q44 12 98 12q118 0 181 -59.5t63 -180.5q0 -115 -67.5 -181t-188.5 -66q-102 0 -184 30zM172 0l768 1524h154l-766 -1524h-156zM725 242v250 q0 105 65.5 170t176.5 65q70 0 184 -29l61 -18l-22 -119l-74 21q-91 26 -145 26q-107 0 -107 -116v-31q68 18 115 18q244 0 244 -237q0 -110 -64 -179t-182 -69q-117 0 -184.5 68t-67.5 180zM864 248q0 -64 30 -99.5t85 -35.5q52 0 80 34t28 93q0 118 -122 118 q-46 0 -101 -14v-96z" />
<glyph unicode="&#x215b;" horiz-adv-x="1271" d="M41 805v119h203v479h-21q-60 0 -117 -29l-32 119q67 31 151 31h64q47 0 71.5 -23t24.5 -65v-512h162v-119h-506zM207 0l768 1524h153l-766 -1524h-155zM709 193q0 81 55 139l33 35l-27 36q-43 55 -43 132q0 91 63 142.5t173 51.5q113 0 176 -51.5t63 -142.5 q0 -77 -43 -132l-24 -36l30 -35q58 -67 58 -139q0 -94 -69 -148.5t-187 -54.5q-119 0 -188.5 54.5t-69.5 148.5zM844 195q0 -39 31 -62.5t90 -23.5t89.5 22.5t30.5 63.5q0 33 -30 71l-35 39h-111l-37 -39q-28 -31 -28 -71zM862 532q0 -36 25 -77l24 -37h107l24 35 q27 39 27 79q0 35 -25.5 56.5t-78.5 21.5q-51 0 -77 -22t-26 -56z" />
<glyph unicode="&#x215c;" horiz-adv-x="1271" d="M37 850l26 121l66 -21q103 -35 172 -35q54 0 82.5 22.5t28.5 63.5q0 42 -29 74l-35 35h-145v115h143l27 35q22 36 22 73q0 80 -100 80q-63 0 -152 -29l-67 -22l-23 119l62 20q100 33 188 33q110 0 168.5 -49.5t58.5 -143.5q0 -76 -43 -133l-26 -34l33 -35q57 -63 57 -138 q0 -95 -67.5 -149.5t-180.5 -54.5q-89 0 -201 32zM176 0l768 1524h154l-766 -1524h-156zM709 193q0 81 55 139l33 35l-27 36q-43 55 -43 132q0 91 63 142.5t173 51.5q113 0 176 -51.5t63 -142.5q0 -77 -43 -132l-24 -36l30 -35q58 -67 58 -139q0 -94 -69 -148.5t-187 -54.5 q-119 0 -188.5 54.5t-69.5 148.5zM844 195q0 -39 31 -62.5t90 -23.5t89.5 22.5t30.5 63.5q0 33 -30 71l-35 39h-111l-37 -39q-28 -31 -28 -71zM862 532q0 -36 25 -77l24 -37h107l24 35q27 39 27 79q0 35 -25.5 56.5t-78.5 21.5q-51 0 -77 -22t-26 -56z" />
<glyph unicode="&#x215d;" horiz-adv-x="1271" d="M45 850l25 119l67 -21q92 -30 150 -30q61 0 93 33.5t32 92.5q0 123 -127 123q-45 0 -113 -18l-92 -27v402h438v-121h-313v-131q43 12 98 12q118 0 181 -59.5t63 -180.5q0 -115 -67.5 -181t-188.5 -66q-103 0 -185 30zM174 0l768 1524h154l-766 -1524h-156zM709 193 q0 81 55 139l33 35l-27 36q-43 55 -43 132q0 91 63 142.5t173 51.5q113 0 176 -51.5t63 -142.5q0 -77 -43 -132l-24 -36l30 -35q58 -67 58 -139q0 -94 -69 -148.5t-187 -54.5q-119 0 -188.5 54.5t-69.5 148.5zM844 195q0 -39 31 -62.5t90 -23.5t89.5 22.5t30.5 63.5 q0 33 -30 71l-35 39h-111l-37 -39q-28 -31 -28 -71zM862 532q0 -36 25 -77l24 -37h107l24 35q27 39 27 79q0 35 -25.5 56.5t-78.5 21.5q-51 0 -77 -22t-26 -56z" />
<glyph unicode="&#x215e;" horiz-adv-x="1271" d="M45 1405v119h418q38 0 59 -19.5t21 -52.5q0 -24 -13 -53l-249 -594h-148l256 600h-344zM145 0l768 1524h154l-766 -1524h-156zM709 193q0 81 55 139l33 35l-27 36q-43 55 -43 132q0 91 63 142.5t173 51.5q113 0 176 -51.5t63 -142.5q0 -77 -43 -132l-24 -36l30 -35 q58 -67 58 -139q0 -94 -69 -148.5t-187 -54.5q-119 0 -188.5 54.5t-69.5 148.5zM844 195q0 -39 31 -62.5t90 -23.5t89.5 22.5t30.5 63.5q0 33 -30 71l-35 39h-111l-37 -39q-28 -31 -28 -71zM862 532q0 -36 25 -77l24 -37h107l24 35q27 39 27 79q0 35 -25.5 56.5t-78.5 21.5 q-51 0 -77 -22t-26 -56z" />
<glyph unicode="&#x215f;" horiz-adv-x="634" d="M43 805v119h203v479h-21q-59 0 -116 -29l-33 119q67 31 151 31h64q47 0 71.5 -23t24.5 -65v-512h162v-119h-506zM174 0l768 1524h154l-766 -1524h-156z" />
<glyph unicode="&#x2202;" d="M102 489q0 231 129.5 360.5t368.5 129.5q130 0 311 -57v129q0 149 -74.5 231t-224.5 82q-104 0 -354 -66l-92 -26l-35 168l92 26q248 70 398 70q223 0 352 -134t129 -351v-549q0 -233 -134.5 -373.5t-369.5 -140.5q-237 0 -366.5 137t-129.5 364zM295 487 q0 -154 80.5 -243.5t226.5 -89.5q152 0 230.5 93t78.5 261v252q-204 51 -288 51q-328 0 -328 -324z" />
<glyph unicode="&#x2206;" d="M29 0l417 1434q34 104 154 104t154 -102l426 -1436h-1151zM274 164h662l-338 1151z" />
<glyph unicode="&#x220f;" horiz-adv-x="1382" d="M66 1354v170h1251v-170h-230v-1354h-206v1354h-379v-1354h-207v1354h-229z" />
<glyph unicode="&#x2211;" d="M74 -252q0 58 37 105l520 725l-520 727q-37 47 -37 104q0 51 32 83t87 32h929v-369h-176v195h-643l555 -770l-555 -773h660v213h178v-387h-948q-55 0 -87 31.5t-32 83.5z" />
<glyph unicode="&#x2212;" d="M117 522v168h975v-168h-975z" />
<glyph unicode="&#x2215;" horiz-adv-x="40" d="M-440 0l768 1524h153l-766 -1524h-155z" />
<glyph unicode="&#x2219;" horiz-adv-x="765" d="M268 750q0 60 31.5 93.5t87.5 33.5t87.5 -33.5t31.5 -93.5q0 -59 -32 -93t-87 -34t-87 34t-32 93z" />
<glyph unicode="&#x221a;" d="M20 958v158h306l241 -870l295 1278h350v-160h-198l-322 -1290q-26 -97 -129 -97q-101 0 -129 97l-268 884h-146z" />
<glyph unicode="&#x221e;" horiz-adv-x="1640" d="M94 608q0 200 96 319.5t277 119.5q118 0 219 -52l137 -69l138 69q101 52 219 52q180 0 277 -120t97 -319q0 -195 -98.5 -316.5t-275.5 -121.5q-122 0 -219 51l-136 72l-139 -72q-97 -51 -219 -51q-178 0 -275.5 121.5t-97.5 316.5zM258 608q0 -140 58.5 -211t154.5 -71 q80 0 164 36l106 48v399l-106 45q-78 37 -164 37q-99 0 -156 -70t-57 -213zM907 410l107 -48q81 -36 164 -36q96 0 154.5 71t58.5 211q0 143 -57 213t-156 70q-89 0 -164 -37l-107 -45v-399z" />
<glyph unicode="&#x222b;" d="M246 -217q96 3 137 54t41 159v1210q0 175 90 268t254 93q78 0 242 -37l-25 -160q-135 33 -207 33q-91 0 -129.5 -49.5t-38.5 -159.5v-1204q0 -176 -94 -268.5t-270 -92.5v154z" />
<glyph unicode="&#x2248;" d="M84 725q52 126 134 183t179 57q99 0 191 -62l119 -82q51 -39 102 -39q55 0 97 34.5t81 127.5l131 -88q-100 -240 -313 -240q-99 0 -191 62l-116 84q-52 37 -105 37q-110 0 -178 -160zM102 369q52 126 134 183.5t180 57.5q96 0 190 -63l119 -82q55 -39 102 -39 q55 0 97 35.5t80 126.5l133 -88q-100 -240 -314 -240q-98 0 -190 62l-117 84q-53 36 -104 36q-115 0 -179 -159z" />
<glyph unicode="&#x2260;" d="M115 356v164h385l86 185h-471v163h540l144 308h137l-143 -308h303v-163h-371l-84 -185h455v-164h-531l-129 -274h-141l131 274h-311z" />
<glyph unicode="&#x2264;" d="M102 670q0 90 88 121l918 305v-191l-797 -239l797 -240v-182l-915 303q-91 25 -91 123zM125 0v158h979v-158h-979z" />
<glyph unicode="&#x2265;" d="M100 244v182l797 240l-797 239v191l918 -305q88 -31 88 -121q0 -99 -90 -123zM104 0v158h979v-158h-979z" />
<glyph unicode="&#x25ca;" d="M39 762l440 723q45 63 127 63q78 0 123 -63l440 -723l-442 -723q-43 -66 -125 -66q-78 0 -123 66zM244 762l366 -602l361 602l-361 604z" />
<glyph unicode="&#xe000;" horiz-adv-x="1116" d="M0 0v1116h1116v-1116h-1116z" />
<glyph unicode="&#xf6c3;" horiz-adv-x="1085" d="M438 -309l56 209h196l-69 -252q-22 -72 -95 -72q-54 0 -77.5 33.5t-10.5 81.5z" />
<glyph unicode="&#xfb04;" horiz-adv-x="1951" d="M39 940v160h176v108q0 178 95 269.5t272 91.5q110 0 206 -21.5t228 -66.5q94 88 250 88q97 0 350 -39l192 47v-1577h-190v1370q-223 35 -340 35q-94 0 -134 -49.5t-40 -161.5v-94h346v-160h-346v-940h-184v940h-519v-940h-186v940h-176zM401 1100h519v108q0 83 16 135 q-196 68 -344 68q-102 0 -146.5 -51.5t-44.5 -165.5v-94z" />
<glyph horiz-adv-x="612" d="M63 236v247q0 117 62.5 181.5t179.5 64.5t177.5 -64.5t60.5 -183.5v-241q0 -120 -60.5 -185t-177.5 -65t-179.5 64.5t-62.5 181.5zM201 240q0 -131 102 -131q105 0 105 131v241q0 131 -105 131q-102 0 -102 -131v-241z" />
<glyph horiz-adv-x="612" d="M57 0v119h203v479h-20q-60 0 -117 -29l-33 119q67 31 152 31h63q47 0 71.5 -23t24.5 -65v-512h162v-119h-506z" />
<glyph horiz-adv-x="612" d="M57 74q0 34 33 63l229 215q51 49 71 81.5t20 80.5t-28.5 71t-78.5 23q-68 0 -153 -30l-66 -21l-25 117l62 20q101 35 190 35q101 0 167.5 -52.5t66.5 -162.5q0 -124 -129 -242l-168 -155h299v-117h-414q-35 0 -55.5 20t-20.5 54z" />
<glyph horiz-adv-x="612" d="M47 45l27 121l65 -21q100 -34 172 -34q54 0 82.5 22.5t28.5 63.5t-29 73l-35 35h-145v115h143l27 35q23 38 23 73q0 80 -101 80q-65 0 -151 -28l-68 -23l-23 119l62 20q100 33 188 33q111 0 169.5 -49t58.5 -143q0 -77 -43 -134l-27 -34l33 -35q57 -63 57 -137 q0 -95 -67.5 -150t-180.5 -55q-85 0 -200 33z" />
<glyph horiz-adv-x="612" d="M37 197q0 30 18 55l277 428q30 49 90 49q82 0 82 -80v-409h76v-117h-76v-123h-135v123h-260q-35 0 -53.5 20t-18.5 54zM201 240h168v260z" />
<glyph horiz-adv-x="612" d="M53 45l25 119l67 -21q92 -30 150 -30q61 0 93 34t32 93q0 63 -31 92.5t-96 29.5q-45 0 -113 -18l-92 -27v402h438v-121h-313v-131q43 12 98 12q118 0 181 -59t63 -180q0 -115 -67.5 -181.5t-188.5 -66.5q-99 0 -184 31z" />
<glyph horiz-adv-x="612" d="M63 242v250q0 105 65.5 170t176.5 65q70 0 184 -29l62 -18l-23 -119l-73 21q-91 26 -146 26q-106 0 -106 -116v-31q67 18 114 18q244 0 244 -237q0 -110 -64 -179t-182 -69q-117 0 -184.5 68t-67.5 180zM203 248q0 -64 29.5 -99.5t84.5 -35.5q52 0 80.5 34t28.5 93 q0 118 -123 118q-45 0 -100 -14v-96z" />
<glyph horiz-adv-x="612" d="M63 600v119h418q38 0 59 -19.5t21 -52.5q0 -26 -12 -53l-250 -594h-147l256 600h-345z" />
<glyph horiz-adv-x="612" d="M51 193q0 81 55 139l33 35l-26 36q-43 55 -43 132q0 91 62.5 142.5t172.5 51.5q114 0 177 -51.5t63 -142.5q0 -77 -43 -132l-25 -36l31 -35q57 -66 57 -139q0 -94 -69 -148.5t-187 -54.5q-119 0 -188.5 54.5t-69.5 148.5zM186 195q0 -39 31 -62.5t90 -23.5t90 23t31 63 q0 32 -31 71l-35 39h-110l-37 -39q-29 -32 -29 -71zM205 532q0 -38 24 -77l25 -37h106l25 35q27 39 27 79q0 35 -26 56.5t-79 21.5q-51 0 -76.5 -21.5t-25.5 -56.5z" />
<glyph horiz-adv-x="612" d="M53 479q0 110 64.5 179t183.5 69q117 0 183.5 -68t66.5 -180v-248q0 -106 -65 -171.5t-177 -65.5q-74 0 -182 31l-61 16l22 119l74 -21q84 -24 143 -24q109 0 109 114v33q-64 -20 -115 -20q-121 0 -183.5 60t-62.5 177zM190 481q0 -119 123 -119q40 0 101 15v98 q0 63 -30.5 99t-86.5 36q-50 0 -78.5 -35t-28.5 -94z" />
<glyph horiz-adv-x="612" d="M63 268q0 112 50 181.5t135 87.5v122h127v-118q46 -7 90 -21l61 -16l-24 -117l-66 19q-77 22 -114 22q-121 0 -121 -160q0 -153 123 -153q52 0 106 16l74 19l22 -109l-61 -21q-50 -17 -90 -20v-121h-127v123q-87 20 -136 86t-49 180z" />
<glyph horiz-adv-x="612" d="M47 51l27 125l69 -24q95 -37 174 -37q43 0 74 22t31 66q0 65 -74 82l-115 26q-86 21 -134 71.5t-48 129.5q0 90 54.5 144t136.5 65v115h127v-115q48 -5 125 -31l67 -22l-29 -127l-71 26q-98 37 -164 37q-48 0 -77.5 -22t-29.5 -66q0 -65 72 -80l117 -28q180 -43 180 -199 q0 -92 -54.5 -146.5t-135.5 -64.5v-117h-127v117q-63 9 -127 31z" />
<glyph horiz-adv-x="612" d="M33 233v103h67v53h-67v100h69q4 122 73.5 182t184.5 60q64 0 150 -22l59 -19l-22 -123l-66 21q-64 20 -116 20q-59 0 -89.5 -25.5t-33.5 -93.5h213v-100h-213v-53h213v-103h-213q11 -118 123 -118q47 0 114 20l68 21l22 -121l-61 -21q-73 -22 -148 -22 q-115 0 -184.5 59.5t-73.5 181.5h-69z" />
<glyph horiz-adv-x="450" d="M55 258v119h332v-119h-332z" />
<glyph horiz-adv-x="612" d="M57 256v115h179v190h129v-190h180v-115h-180v-193h-129v193h-179z" />
<glyph horiz-adv-x="612" d="M59 256v117h484v-117h-484z" />
<glyph horiz-adv-x="612" d="M57 168v113h488v-113h-488zM57 344v117h488v-117h-488z" />
<glyph horiz-adv-x="337" d="M39 332q0 82 11 146t31.5 105.5t45 70.5t56.5 43t61 20t63 6v-111q-18 -2 -32 -6.5t-34 -21.5t-33 -45.5t-22.5 -81.5t-9.5 -125q0 -75 9.5 -130t22.5 -84t33 -46.5t34 -22t32 -6.5v-111q-31 0 -59.5 6t-60 21t-57 45t-47 72t-33 108t-11.5 148z" />
<glyph horiz-adv-x="337" d="M27 43q18 2 32.5 6.5t34.5 22t33.5 46.5t23 84t9.5 130q0 72 -9.5 125t-23 81.5t-33.5 45.5t-34.5 21.5t-32.5 6.5v111q42 0 76.5 -8t71.5 -33t62 -66t41.5 -113.5t16.5 -170.5q0 -71 -9 -129.5t-24.5 -99.5t-37.5 -72t-45 -49.5t-50.5 -30t-51.5 -15.5t-50 -4v111z" />
<glyph horiz-adv-x="262" d="M33 -51l49 198h143l-61 -231q-16 -49 -66 -49q-41 0 -57 23t-8 59z" />
<glyph horiz-adv-x="262" d="M51 70q0 77 78 77q37 0 58.5 -19.5t21.5 -57.5q0 -37 -21.5 -57.5t-58.5 -20.5t-57.5 20.5t-20.5 57.5z" />
<glyph d="M61 352v140h148q-2 20 -2 67q0 44 2 64h-148v137h168q47 179 174.5 273.5t311.5 94.5q115 0 315 -55l92 -26l-30 -164l-93 24q-204 54 -270 54q-231 0 -301 -201h459v-137h-484q-2 -20 -2 -64q0 -47 2 -67h484v-140h-457q70 -194 299 -194q78 0 270 51l93 27l30 -166 l-92 -25q-207 -57 -315 -57q-187 0 -314 91t-172 273h-168z" />
<glyph d="M127 483v551q0 238 126 372t359 134q234 0 353.5 -133t119.5 -377v-541q0 -244 -119.5 -378t-351.5 -134q-234 0 -360.5 133.5t-126.5 372.5zM315 489q0 -91 21 -159l457 991q-68 53 -185 53q-293 0 -293 -344v-541zM422 199q71 -56 186 -56q291 0 291 346v541 q0 83 -20 158z" />
<glyph d="M127 483v551q0 238 126 372t359 134q234 0 353.5 -133t119.5 -377v-541q0 -244 -119.5 -378t-351.5 -134q-234 0 -360.5 133.5t-126.5 372.5zM315 489q0 -346 293 -346q291 0 291 346v541q0 344 -291 344q-293 0 -293 -344v-541z" />
<glyph d="M127 0v168h442v1184h-86q-156 0 -233 -41l-41 164q46 24 126 36.5t152 12.5h125q77 0 118.5 -39.5t41.5 -110.5v-1206h361v-168h-1006z" />
<glyph d="M115 113q0 63 47 110l510 484q121 112 173 200.5t52 198.5q0 133 -79.5 194.5t-211.5 61.5t-360 -68l-92 -28l-33 170l92 28q247 74 408 74q97 0 178.5 -24t148 -74t104.5 -135.5t38 -198.5q0 -126 -61.5 -248t-209.5 -260l-473 -436h748v-162h-871q-52 0 -80 31t-28 82z " />
<glyph d="M92 88l37 168l96 -29q253 -73 393 -73q152 0 232 63t80 174q0 102 -82 193l-98 102h-293v160h293l75 104q64 86 64 195q0 103 -67.5 161t-211.5 58q-111 0 -358 -68l-92 -26l-35 168l92 26q258 74 404 74q224 0 341 -99t117 -286q0 -146 -88 -264l-84 -115l103 -108 q110 -116 110 -271q0 -190 -134 -300.5t-359 -110.5q-169 0 -439 77z" />
<glyph d="M66 389q0 44 36 100l625 965q52 82 145 82q127 0 127 -125v-971h175v-161h-175v-279h-186v279h-639q-54 0 -81 29.5t-27 80.5zM283 440h530v822z" />
<glyph d="M115 82l32 168l95 -27q234 -67 352 -67q167 0 251.5 89t84.5 244q0 324 -338 324q-111 0 -270 -43l-140 -41v795h871v-176h-701v-412q162 43 275 43q234 0 362.5 -122t128.5 -368q0 -232 -138.5 -368.5t-377.5 -136.5q-147 0 -395 71z" />
<glyph d="M119 502v549q0 217 129.5 351t353.5 134q146 0 397 -70l91 -26l-35 -168l-92 26q-246 66 -353 66q-153 0 -227 -82t-74 -231v-129q181 57 314 57q247 0 372 -125.5t125 -361.5q0 -109 -31.5 -200t-92.5 -159.5t-156 -106.5t-215 -38q-235 0 -370.5 140.5t-135.5 373.5z M309 508q0 -166 83 -260t237 -94q145 0 222 89t77 244q0 322 -330 322q-93 0 -289 -49v-252z" />
<glyph d="M125 1356v168h883q58 0 89 -28.5t31 -80.5q0 -48 -26 -106l-541 -1309h-211l572 1356h-797z" />
<glyph d="M86 387q0 157 109 275l100 108l-82 115q-86 119 -86 264q0 181 127.5 286t347.5 105q225 0 353 -104.5t128 -286.5q0 -145 -86 -264l-82 -115l101 -108q108 -117 108 -275q0 -190 -137 -298.5t-377 -108.5q-241 0 -382.5 109t-141.5 298zM274 385q0 -110 87 -175t245 -65 q160 0 245 65t85 175q0 104 -82 195l-94 102h-309l-95 -102q-82 -91 -82 -195zM313 1143q0 -101 66 -197l72 -104h309l74 104q63 97 63 197q0 102 -73.5 164.5t-219.5 62.5q-145 0 -218 -63t-73 -164z" />
<glyph d="M94 1030q0 225 129 365.5t367 140.5q235 0 369.5 -140t134.5 -372v-551q0 -216 -130 -350.5t-352 -134.5q-153 0 -397 69l-92 27l35 168l92 -27q246 -65 354 -65q151 0 225 82t74 231v129q-179 -57 -311 -57q-248 0 -373 124.5t-125 360.5zM287 1034q0 -153 77 -236 t252 -83q94 0 287 49v254q0 165 -82.5 258.5t-234.5 93.5q-145 0 -222 -90t-77 -246z" />
<glyph d="M129 559q0 242 109 385.5t299 175.5v260h172v-260q83 -7 243 -49l90 -27l-30 -163l-92 24q-188 53 -271 53q-325 0 -325 -399t327 -399q77 0 269 51l92 25l30 -164l-90 -27q-160 -42 -243 -49v-266h-172v268q-192 27 -300 167t-108 394z" />
<glyph d="M96 102l39 181l105 -37q257 -88 413 -88q73 0 134 24t104 82t43 142q0 94 -49 149.5t-160 81.5l-266 63q-170 41 -263.5 141t-93.5 261q0 102 35.5 183.5t96.5 132.5t136 79t158 31v248h170v-252q133 -15 320 -78l102 -35l-39 -180l-104 37q-242 88 -404 88 q-56 0 -105 -14t-89 -42.5t-63 -77t-23 -112.5q0 -92 49 -147.5t160 -81.5l264 -64q358 -88 358 -403q0 -100 -35 -180.5t-95.5 -131.5t-135.5 -80t-160 -34v-252h-170v254q-124 13 -329 78z" />
<glyph d="M59 545v149h152v140h-152v149h152q3 268 146.5 413.5t377.5 145.5q109 0 316 -57l90 -25l-31 -170l-92 27q-185 49 -273 49q-332 0 -335 -383h481v-149h-483v-140h483v-149h-481q1 -198 86 -291.5t249 -93.5q88 0 273 49l92 27l31 -170l-90 -25q-207 -57 -316 -57 q-234 0 -377.5 145.5t-146.5 415.5h-152z" />
<glyph d="M127 483v148q0 238 126 372t359 134q234 0 353.5 -133.5t119.5 -378.5v-136q0 -244 -119.5 -378t-351.5 -134q-234 0 -360.5 133.5t-126.5 372.5zM315 496q0 -353 293 -353q291 0 291 346v129q0 172 -69.5 262.5t-221.5 90.5q-293 0 -293 -353v-122z" />
<glyph d="M127 0v168h442v778h-86q-156 0 -233 -41l-41 164q89 47 278 47h125q77 0 118.5 -39t41.5 -110v-799h361v-168h-1006z" />
<glyph d="M115 113q0 83 73 125l469 254q111 59 162 123.5t51 140.5q0 103 -69.5 154t-200.5 51q-132 0 -354 -66l-92 -29l-33 166l92 29q250 74 410 74q213 0 330.5 -96t117.5 -269q0 -123 -75.5 -224.5t-215.5 -174.5l-397 -209h711v-162h-871q-52 0 -80 31t-28 82z" />
<glyph d="M92 -274l37 168l96 -29q270 -74 393 -74q150 0 231 62.5t81 171.5q0 55 -19.5 96.5t-62.5 89.5l-96 96h-295v160h295l73 100q64 86 64 187q0 209 -279 209q-125 0 -358 -68l-92 -27l-35 170l92 27q251 72 406 72q221 0 338.5 -95.5t117.5 -279.5q0 -141 -88 -256 l-84 -111l103 -102q58 -62 84 -124t26 -140q0 -189 -133.5 -298.5t-359.5 -109.5q-165 0 -439 78z" />
<glyph d="M66 111q0 55 36 100l625 838q57 81 145 81q127 0 127 -126v-842h175v-162h-175v-365h-186v365h-639q-53 0 -80.5 30.5t-27.5 80.5zM281 162h532v712z" />
<glyph d="M115 -283l32 168l95 -26q244 -70 352 -70q167 0 251.5 87t84.5 241q0 315 -338 315q-122 0 -270 -43l-140 -39v766h871v-174h-701v-389q158 45 275 45q235 0 363 -118t128 -363q0 -232 -138.5 -365t-377.5 -133q-144 0 -395 72z" />
<glyph d="M119 502v549q0 217 129.5 351t353.5 134q146 0 397 -70l91 -26l-35 -168l-92 26q-246 66 -353 66q-153 0 -227 -82t-74 -231v-129q181 57 314 57q247 0 372 -125.5t125 -361.5q0 -109 -31.5 -200t-92.5 -159.5t-156 -106.5t-215 -38q-235 0 -370.5 140.5t-135.5 373.5z M309 508q0 -166 83 -260t237 -94q145 0 222 89t77 244q0 322 -330 322q-93 0 -289 -49v-252z" />
<glyph d="M125 948v168h883q58 0 89 -28.5t31 -79.5q0 -47 -26 -105l-541 -1268h-211l572 1313h-797z" />
<glyph d="M86 387q0 157 109 275l100 108l-82 115q-86 132 -86 264q0 181 127.5 286t347.5 105q225 0 353 -104.5t128 -286.5q0 -145 -86 -264l-82 -115l101 -108q108 -117 108 -275q0 -190 -137 -298.5t-377 -108.5q-241 0 -382.5 109t-141.5 298zM274 385q0 -110 87 -175t245 -65 q160 0 245 65t85 175q0 104 -82 195l-94 102h-309l-95 -102q-82 -91 -82 -195zM313 1143q0 -95 66 -197l72 -104h309l74 104q63 97 63 197q0 102 -73.5 164.5t-219.5 62.5q-145 0 -218 -63t-73 -164z" />
<glyph d="M94 637q0 146 54.5 256.5t168 176t273.5 65.5q235 0 369.5 -137.5t134.5 -368.5v-531q0 -215 -129.5 -346t-352.5 -131q-149 0 -397 70l-92 26l35 168l92 -26q236 -66 354 -66q299 0 299 305v119q-177 -59 -311 -59q-249 0 -373.5 122t-124.5 357zM287 641 q0 -153 76.5 -233t252.5 -80q86 0 287 51v244q0 164 -82 255t-235 91q-146 0 -222.5 -86.5t-76.5 -241.5z" />
<glyph d="M129 559q0 242 109 385.5t299 175.5v260h172v-260q83 -7 243 -49l90 -27l-30 -163l-92 24q-188 53 -271 53q-325 0 -325 -399t327 -399q77 0 269 51l92 25l30 -164l-90 -27q-160 -42 -243 -49v-266h-172v268q-192 27 -300 167t-108 394z" />
<glyph d="M160 80l33 160l92 -27q228 -66 366 -66q94 0 154.5 40.5t60.5 121.5q0 62 -42 98.5t-138 51.5l-217 39q-146 25 -224.5 101t-78.5 198q0 102 50.5 176.5t130 111.5t179.5 43v252h172v-260q124 -14 267 -57l90 -27l-33 -164l-92 29q-228 66 -367 66q-93 0 -154 -40 t-61 -120q0 -61 42.5 -99t137.5 -55l217 -37q146 -25 225 -101t79 -196q0 -150 -99 -234t-252 -95v-254h-172v256q-125 13 -276 61z" />
<glyph d="M61 352v140h148q-2 20 -2 67q0 44 2 64h-148v137h168q47 179 174.5 273.5t311.5 94.5q115 0 315 -55l92 -26l-30 -164l-93 24q-204 54 -270 54q-231 0 -301 -201h459v-137h-484q-2 -20 -2 -64q0 -47 2 -67h484v-140h-457q70 -194 299 -194q78 0 270 51l93 27l30 -166 l-92 -25q-207 -57 -315 -57q-187 0 -314 91t-172 273h-168z" />
<glyph d="M127 483v148q0 238 126 372t359 134q234 0 353.5 -133.5t119.5 -378.5v-136q0 -244 -119.5 -378t-351.5 -134q-234 0 -360.5 133.5t-126.5 372.5zM315 496q0 -154 52 -234l389 678q-64 31 -148 31q-293 0 -293 -353v-122zM461 174q64 -31 147 -31q291 0 291 346v129 q0 147 -49 232z" />
<glyph d="M127 483v148q0 238 126 372t359 134q234 0 353.5 -133.5t119.5 -378.5v-136q0 -244 -119.5 -378t-351.5 -134q-234 0 -360.5 133.5t-126.5 372.5zM315 496q0 -353 293 -353q291 0 291 346v129q0 172 -69.5 262.5t-221.5 90.5q-293 0 -293 -353v-122z" />
<glyph d="M127 0v168h442v778h-86q-156 0 -233 -41l-41 164q89 47 278 47h125q77 0 118.5 -39t41.5 -110v-799h361v-168h-1006z" />
<glyph d="M115 113q0 83 73 125l469 254q111 59 162 123.5t51 140.5q0 103 -69.5 154t-200.5 51q-132 0 -354 -66l-92 -29l-33 166l92 29q250 74 410 74q213 0 330.5 -96t117.5 -269q0 -123 -75.5 -224.5t-215.5 -174.5l-397 -209h711v-162h-871q-52 0 -80 31t-28 82z" />
<glyph d="M92 -274l37 168l96 -29q270 -74 393 -74q150 0 231 62.5t81 171.5q0 55 -19.5 96.5t-62.5 89.5l-96 96h-295v160h295l73 100q64 86 64 187q0 209 -279 209q-125 0 -358 -68l-92 -27l-35 170l92 27q251 72 406 72q221 0 338.5 -95.5t117.5 -279.5q0 -141 -88 -256 l-84 -111l103 -102q58 -62 84 -124t26 -140q0 -189 -133.5 -298.5t-359.5 -109.5q-165 0 -439 78z" />
<glyph d="M66 111q0 55 36 100l625 838q57 81 145 81q127 0 127 -126v-842h175v-162h-175v-365h-186v365h-639q-53 0 -80.5 30.5t-27.5 80.5zM281 162h532v712z" />
<glyph d="M115 -283l32 168l95 -26q244 -70 352 -70q167 0 251.5 87t84.5 241q0 315 -338 315q-122 0 -270 -43l-140 -39v766h871v-174h-701v-389q158 45 275 45q235 0 363 -118t128 -363q0 -232 -138.5 -365t-377.5 -133q-144 0 -395 72z" />
<glyph d="M119 502v549q0 217 129.5 351t353.5 134q146 0 397 -70l91 -26l-35 -168l-92 26q-246 66 -353 66q-153 0 -227 -82t-74 -231v-129q181 57 314 57q247 0 372 -125.5t125 -361.5q0 -109 -31.5 -200t-92.5 -159.5t-156 -106.5t-215 -38q-235 0 -370.5 140.5t-135.5 373.5z M309 508q0 -166 83 -260t237 -94q145 0 222 89t77 244q0 322 -330 322q-93 0 -289 -49v-252z" />
<glyph d="M125 948v168h883q58 0 89 -28.5t31 -79.5q0 -47 -26 -105l-541 -1268h-211l572 1313h-797z" />
<glyph d="M86 387q0 157 109 275l100 108l-82 115q-86 132 -86 264q0 181 127.5 286t347.5 105q225 0 353 -104.5t128 -286.5q0 -145 -86 -264l-82 -115l101 -108q108 -117 108 -275q0 -190 -137 -298.5t-377 -108.5q-241 0 -382.5 109t-141.5 298zM274 385q0 -110 87 -175t245 -65 q160 0 245 65t85 175q0 104 -82 195l-94 102h-309l-95 -102q-82 -91 -82 -195zM313 1143q0 -95 66 -197l72 -104h309l74 104q63 97 63 197q0 102 -73.5 164.5t-219.5 62.5q-145 0 -218 -63t-73 -164z" />
<glyph d="M94 637q0 146 54.5 256.5t168 176t273.5 65.5q235 0 369.5 -137.5t134.5 -368.5v-531q0 -215 -129.5 -346t-352.5 -131q-149 0 -397 70l-92 26l35 168l92 -26q236 -66 354 -66q299 0 299 305v119q-177 -59 -311 -59q-249 0 -373.5 122t-124.5 357zM287 641 q0 -153 76.5 -233t252.5 -80q86 0 287 51v244q0 164 -82 255t-235 91q-146 0 -222.5 -86.5t-76.5 -241.5z" />
<glyph d="M129 559q0 242 109 385.5t299 175.5v260h172v-260q83 -7 243 -49l90 -27l-30 -163l-92 24q-188 53 -271 53q-325 0 -325 -399t327 -399q77 0 269 51l92 25l30 -164l-90 -27q-160 -42 -243 -49v-266h-172v268q-192 27 -300 167t-108 394z" />
<glyph d="M160 80l33 160l92 -27q228 -66 366 -66q94 0 154.5 40.5t60.5 121.5q0 62 -42 98.5t-138 51.5l-217 39q-146 25 -224.5 101t-78.5 198q0 102 50.5 176.5t130 111.5t179.5 43v252h172v-260q124 -14 267 -57l90 -27l-33 -164l-92 29q-228 66 -367 66q-93 0 -154 -40 t-61 -120q0 -61 42.5 -99t137.5 -55l217 -37q146 -25 225 -101t79 -196q0 -150 -99 -234t-252 -95v-254h-172v256q-125 13 -276 61z" />
<glyph horiz-adv-x="612" d="M63 63q0 112 50 181.5t135 87.5v123h127v-119q46 -7 90 -21l61 -16l-24 -117l-66 19q-77 22 -114 22q-121 0 -121 -160q0 -153 123 -153q52 0 106 16l74 19l22 -109l-61 -20q-53 -18 -90 -21v-121h-127v123q-87 20 -136 86t-49 180z" />
<glyph horiz-adv-x="612" d="M47 -154l27 125l69 -24q95 -37 174 -37q43 0 74 22t31 66q0 65 -74 82l-115 26q-86 21 -134 71.5t-48 129.5q0 90 54.5 144t136.5 65v115h127v-115q48 -5 125 -31l67 -22l-29 -127l-71 26q-98 37 -164 37q-48 0 -77.5 -22t-29.5 -66q0 -65 72 -80l117 -28 q180 -43 180 -199q0 -92 -54.5 -146.5t-135.5 -64.5v-117h-127v117q-63 9 -127 31z" />
<glyph horiz-adv-x="612" d="M33 29v102h67v53h-67v101h69q4 122 73.5 181.5t184.5 59.5q64 0 150 -22l59 -19l-22 -123l-66 21q-64 20 -116 20q-59 0 -89.5 -25t-33.5 -93h213v-101h-213v-53h213v-102h-213q11 -119 123 -119q47 0 114 20l68 21l22 -121l-61 -20q-76 -23 -148 -23q-115 0 -184.5 60 t-73.5 182h-69z" />
<glyph horiz-adv-x="450" d="M55 53v119h332v-119h-332z" />
<glyph horiz-adv-x="612" d="M57 51v115h179v190h129v-190h180v-115h-180v-192h-129v192h-179z" />
<glyph horiz-adv-x="612" d="M59 51v117h484v-117h-484z" />
<glyph horiz-adv-x="612" d="M57 -37v113h488v-113h-488zM57 139v117h488v-117h-488z" />
<glyph horiz-adv-x="262" d="M33 -256l49 199h143l-61 -232q-16 -49 -66 -49q-41 0 -57 23t-8 59z" />
<glyph horiz-adv-x="262" d="M51 -135q0 38 20.5 58t57.5 20t58.5 -20t21.5 -58q0 -37 -21.5 -57.5t-58.5 -20.5t-57.5 20.5t-20.5 57.5z" />
<glyph horiz-adv-x="612" d="M63 31v248q0 117 62.5 181t179.5 64t177.5 -64.5t60.5 -183.5v-241q0 -120 -60.5 -185t-177.5 -65t-179.5 64.5t-62.5 181.5zM201 35q0 -19 4 -43l149 403q-30 13 -51 13q-102 0 -102 -132v-241zM262 -90q18 -6 41 -6q105 0 105 131v241q0 17 -2 25z" />
<glyph horiz-adv-x="612" d="M63 236v247q0 117 62.5 181.5t179.5 64.5t177.5 -64.5t60.5 -183.5v-241q0 -120 -60.5 -185t-177.5 -65t-179.5 64.5t-62.5 181.5zM201 240q0 -31 2 -43l151 403q-28 12 -51 12q-102 0 -102 -131v-241zM262 115q18 -6 41 -6q105 0 105 131v241q0 17 -2 23z" />
<glyph horiz-adv-x="612" d="M63 1040v248q0 117 62.5 181.5t179.5 64.5t177.5 -64.5t60.5 -183.5v-242q0 -120 -60.5 -184.5t-177.5 -64.5t-179.5 64t-62.5 181zM201 1044q0 -131 102 -131q105 0 105 131v242q0 131 -105 131q-102 0 -102 -131v-242z" />
<glyph horiz-adv-x="612" d="M57 805v119h203v479h-20q-60 0 -117 -29l-33 119q67 31 152 31h63q47 0 71.5 -23t24.5 -65v-512h162v-119h-506z" />
<glyph horiz-adv-x="612" d="M57 879q0 34 33 63l229 215q51 49 71 81.5t20 80.5t-28.5 71t-78.5 23q-65 0 -153 -31l-66 -20l-25 117l62 20q101 35 190 35q101 0 167.5 -52.5t66.5 -162.5q0 -124 -129 -242l-168 -155h299v-117h-414q-35 0 -55.5 20t-20.5 54z" />
<glyph horiz-adv-x="612" d="M47 850l27 121l65 -21q103 -35 172 -35q54 0 82.5 22.5t28.5 63.5q0 42 -29 74l-35 35h-145v115h143l27 35q23 38 23 73q0 80 -101 80q-62 0 -151 -29l-68 -22l-23 119l62 20q100 33 188 33q110 0 169 -49.5t59 -143.5q0 -76 -43 -133l-27 -34l33 -35q57 -63 57 -138 q0 -95 -67.5 -149.5t-180.5 -54.5q-88 0 -200 32z" />
<glyph horiz-adv-x="612" d="M37 1001q0 31 18 56l277 428q30 49 90 49q82 0 82 -80v-410h76v-116h-76v-123h-135v123h-260q-36 0 -54 19.5t-18 53.5zM201 1044h168v261z" />
<glyph horiz-adv-x="612" d="M53 850l25 119l67 -21q92 -30 150 -30q61 0 93 33.5t32 92.5q0 123 -127 123q-45 0 -113 -18l-92 -27v402h438v-121h-313v-131q43 12 98 12q118 0 181 -59.5t63 -180.5q0 -115 -67.5 -181t-188.5 -66q-102 0 -184 30z" />
<glyph horiz-adv-x="612" d="M63 1047v249q0 106 65.5 171t176.5 65q70 0 184 -29l62 -18l-23 -119l-73 20q-95 27 -146 27q-106 0 -106 -117v-30q68 18 114 18q244 0 244 -237q0 -110 -64 -179t-182 -69q-117 0 -184.5 68t-67.5 180zM203 1053q0 -64 29.5 -99.5t84.5 -35.5q52 0 80.5 33.5t28.5 92.5 q0 119 -123 119q-45 0 -100 -14v-96z" />
<glyph horiz-adv-x="612" d="M63 1405v119h418q38 0 59 -19.5t21 -52.5q0 -26 -12 -53l-250 -594h-147l256 600h-345z" />
<glyph horiz-adv-x="612" d="M51 997q0 82 55 140l33 34l-26 37q-43 55 -43 131q0 91 62.5 143t172.5 52q113 0 176.5 -52t63.5 -143q0 -76 -43 -131l-25 -37l31 -34q57 -66 57 -140q0 -94 -68.5 -148t-187.5 -54t-188.5 54t-69.5 148zM186 999q0 -39 31 -62.5t90 -23.5t90 23t31 63q0 33 -31 72 l-35 39h-110l-37 -39q-29 -32 -29 -72zM205 1337q0 -38 24 -77l25 -37h106l25 34q27 39 27 80q0 35 -26 56.5t-79 21.5q-51 0 -76.5 -21.5t-25.5 -56.5z" />
<glyph horiz-adv-x="612" d="M53 1284q0 110 64.5 179t183.5 69q117 0 183.5 -68t66.5 -180v-248q0 -106 -65 -171.5t-177 -65.5q-77 0 -182 30l-61 17l22 119l74 -21q84 -24 143 -24q109 0 109 114v33q-64 -20 -115 -20q-121 0 -183.5 60t-62.5 177zM190 1286q0 -119 123 -119q40 0 101 15v98 q0 63 -30.5 99t-86.5 36q-50 0 -78.5 -35t-28.5 -94z" />
<glyph horiz-adv-x="612" d="M63 1073q0 111 50 180.5t135 87.5v123h127v-118q46 -7 90 -21l61 -16l-24 -117l-66 18q-80 23 -114 23q-121 0 -121 -160q0 -153 123 -153q52 0 106 16l74 18l22 -108l-61 -21q-50 -17 -90 -20v-121h-127v123q-87 20 -136 86t-49 180z" />
<glyph horiz-adv-x="612" d="M47 856l27 125l69 -25q92 -36 174 -36q43 0 74 22t31 66q0 65 -74 82l-115 26q-86 21 -134 71.5t-48 129.5q0 90 54.5 144t136.5 65v114h127v-114q48 -5 125 -31l67 -22l-29 -127l-71 26q-98 37 -164 37q-48 0 -77.5 -22t-29.5 -66q0 -65 72 -80l117 -29 q180 -43 180 -198q0 -92 -54.5 -146.5t-135.5 -64.5v-117h-127v117q-63 9 -127 31z" />
<glyph horiz-adv-x="612" d="M33 1038v103h67v53h-67v100h69q4 122 73.5 182t184.5 60q60 0 150 -23l59 -18l-22 -123l-66 21q-64 20 -116 20q-59 0 -89.5 -25.5t-33.5 -93.5h213v-100h-213v-53h213v-103h-213q11 -118 123 -118q47 0 114 20l68 21l22 -121l-61 -21q-73 -22 -148 -22 q-115 0 -184.5 59.5t-73.5 181.5h-69z" />
<glyph horiz-adv-x="450" d="M55 1063v119h332v-119h-332z" />
<glyph horiz-adv-x="612" d="M57 1061v115h179v190h129v-190h180v-115h-180v-193h-129v193h-179z" />
<glyph horiz-adv-x="612" d="M59 1061v117h484v-117h-484z" />
<glyph horiz-adv-x="612" d="M57 973v112h488v-112h-488zM57 1149v117h488v-117h-488z" />
<glyph horiz-adv-x="337" d="M39 1137q0 82 11 146t31.5 105.5t45 70.5t56.5 43t61 20t63 6v-111q-18 -2 -32 -6.5t-34 -21.5t-33 -45.5t-22.5 -81.5t-9.5 -125q0 -75 9.5 -130t22.5 -84t33 -46.5t34 -22t32 -6.5v-111q-31 0 -59.5 6t-60 21t-57 45t-47 72t-33 108t-11.5 148z" />
<glyph horiz-adv-x="337" d="M27 737v111q18 2 32.5 6.5t34.5 22t33.5 46.5t23 84t9.5 130q0 72 -9.5 125t-23 81.5t-33.5 45.5t-34.5 21.5t-32.5 6.5v111q42 0 76.5 -8t71.5 -33t62 -66t41.5 -113.5t16.5 -170.5q0 -71 -9 -129.5t-24.5 -99.5t-37.5 -72t-45 -49.5t-50.5 -30t-51.5 -15.5t-50 -4z" />
<glyph horiz-adv-x="262" d="M33 754l49 198h143l-61 -231q-16 -49 -66 -49q-41 0 -57 23t-8 59z" />
<glyph horiz-adv-x="262" d="M51 874q0 38 20.5 58t57.5 20t58.5 -20t21.5 -58q0 -36 -21.5 -56.5t-58.5 -20.5t-57.5 20t-20.5 57z" />
<glyph horiz-adv-x="612" d="M63 1040v248q0 117 62.5 181.5t179.5 64.5t177.5 -64.5t60.5 -183.5v-242q0 -120 -60.5 -184.5t-177.5 -64.5t-179.5 64t-62.5 181zM201 1044q0 -17 4 -45l151 406q-21 12 -53 12q-102 0 -102 -131v-242zM264 920q17 -7 39 -7q105 0 105 131v242q0 15 -2 21z" />
<glyph horiz-adv-x="612" d="M63 1274q0 111 50 180.5t135 87.5v123h127v-119q52 -8 90 -20l61 -17l-24 -116l-66 18q-80 23 -114 23q-121 0 -121 -160q0 -154 123 -154q49 0 106 17l74 18l22 -108l-61 -21q-50 -17 -90 -20v-121h-127v123q-87 20 -136 86t-49 180z" />
<glyph horiz-adv-x="612" d="M47 1057l27 125l69 -25q95 -37 174 -37q43 0 74 22t31 66q0 65 -74 82l-115 27q-86 21 -134 71.5t-48 129.5q0 90 54 143.5t137 64.5v115h127v-115q52 -5 125 -30l67 -23l-29 -127l-71 27q-98 37 -164 37q-48 0 -77.5 -22t-29.5 -66q0 -65 72 -80l117 -29 q180 -43 180 -199q0 -92 -54.5 -146t-135.5 -64v-117h-127v117q-68 10 -127 30z" />
<glyph horiz-adv-x="612" d="M33 1239v102h67v54h-67v100h69q4 122 73.5 182t184.5 60q60 0 150 -23l59 -18l-22 -123l-66 20q-67 21 -116 21q-59 0 -89.5 -25.5t-33.5 -93.5h213v-100h-213v-54h213v-102h-213q11 -119 123 -119q43 0 114 21l68 20l22 -121l-61 -20q-76 -23 -148 -23q-115 0 -184.5 60 t-73.5 182h-69z" />
<glyph horiz-adv-x="450" d="M55 1264v118h332v-118h-332z" />
<glyph horiz-adv-x="262" d="M33 954l49 199h143l-61 -231q-16 -50 -66 -50q-41 0 -57 23t-8 59z" />
<glyph horiz-adv-x="262" d="M51 1075q0 38 20.5 58t57.5 20t58.5 -20t21.5 -58q0 -37 -21.5 -57.5t-58.5 -20.5t-57.5 20.5t-20.5 57.5z" />
<glyph horiz-adv-x="612" d="M63 1241v248q0 117 62.5 181.5t179.5 64.5t177.5 -64.5t60.5 -183.5v-242q0 -120 -60.5 -185t-177.5 -65t-179.5 64.5t-62.5 181.5zM201 1245q0 -17 4 -45l149 406q-28 12 -51 12q-102 0 -102 -131v-242zM264 1120q15 -6 39 -6q105 0 105 131v242q0 14 -2 22z" />
<glyph horiz-adv-x="1091" d="M393 1694q0 40 35 63l156 107h274l-313 -213q-42 -27 -76 -27q-36 0 -56 21.5t-20 48.5z" />
<glyph horiz-adv-x="1087" d="M211 1874h170q0 -53 50.5 -83t137.5 -30t139 30.5t52 82.5h168q0 -80 -51.5 -138t-131 -85t-176.5 -27q-151 0 -254.5 65.5t-103.5 184.5z" />
<glyph horiz-adv-x="1087" d="M203 1864h239l133 -105l134 105h239l-258 -201q-53 -39 -115 -39q-67 0 -112 39z" />
<glyph horiz-adv-x="1087" d="M203 1626l260 199q49 39 112 39q66 0 115 -39l258 -199h-239l-134 103l-133 -103h-239z" />
<glyph horiz-adv-x="1099" d="M276 1745q0 56 30.5 88.5t84.5 32.5t84.5 -32.5t30.5 -88.5t-30.5 -88.5t-84.5 -32.5t-84.5 32.5t-30.5 88.5zM672 1745q0 56 30 88.5t84 32.5t84.5 -32.5t30.5 -88.5t-30.5 -88.5t-84.5 -32.5t-84 32.5t-30 88.5z" />
<glyph horiz-adv-x="1087" d="M426 1745q0 56 32 89.5t87 33.5t86 -33.5t31 -89.5t-31 -88.5t-86 -32.5t-87 32.5t-32 88.5z" />
<glyph horiz-adv-x="1091" d="M328 1864h274l156 -107q33 -24 33 -63q0 -27 -20 -48.5t-56 -21.5q-34 0 -76 27z" />
<glyph horiz-adv-x="1087" d="M186 1688q0 30 29 53l160 123h243l-284 -217q-35 -27 -76 -27q-32 0 -52 20t-20 48zM559 1683q0 29 29 52l162 129h251l-299 -224q-32 -22 -73 -22q-34 0 -52 18.5t-18 46.5z" />
<glyph horiz-adv-x="1087" d="M223 1655v155h645v-155h-645z" />
<glyph horiz-adv-x="1087" d="M352 1806q0 86 61.5 138.5t155.5 52.5q93 0 156 -52.5t63 -138.5q0 -84 -64 -138t-155 -54q-92 0 -154.5 53.5t-62.5 138.5zM465 1806q0 -42 29 -68t75 -26t76.5 26t30.5 68q0 40 -30 66t-77 26t-75.5 -26t-28.5 -66z" />
<glyph horiz-adv-x="1087" d="M143 1696q26 65 70 108.5t89.5 60.5t94.5 17q92 0 154 -41l88 -51q40 -25 82 -25q40 0 70.5 23.5t60.5 87.5l121 -68q-37 -95 -106.5 -140.5t-145.5 -45.5q-85 0 -154 41l-88 53q-42 23 -82 23t-71 -24t-60 -87z" />
<glyph horiz-adv-x="1110" d="M387 1343q0 35 31 66l164 154h262l-301 -263q-37 -32 -76 -32q-36 0 -58 24t-22 51z" />
<glyph horiz-adv-x="1087" d="M201 1563h172q0 -78 51.5 -121t138.5 -43q85 0 138 44t53 120h170q0 -138 -103.5 -224t-257.5 -86q-155 0 -258.5 85.5t-103.5 224.5z" />
<glyph horiz-adv-x="1087" d="M199 1563h235l141 -164l142 164h235l-266 -260q-46 -46 -111 -46t-108 46z" />
<glyph horiz-adv-x="1087" d="M352 -362l29 96q86 -35 154 -35q90 0 90 59q0 22 -13.5 36t-37.5 19.5t-57 7t-73 -0.5l-10 18l84 162h94l-49 -100q79 0 128.5 -35t49.5 -103q0 -75 -53.5 -121.5t-150.5 -46.5q-81 0 -185 44z" />
<glyph horiz-adv-x="1087" d="M199 1264l266 260q47 43 110 43q69 0 109 -43l268 -260h-235l-142 161l-139 -161h-237z" />
<glyph horiz-adv-x="1105" d="M438 -309l56 209h196l-69 -252q-22 -72 -95 -72q-54 0 -77.5 33.5t-10.5 81.5z" />
<glyph horiz-adv-x="1171" d="M272 1448q0 57 31.5 90t85.5 33q55 0 86 -33t31 -90q0 -56 -31 -89.5t-86 -33.5q-54 0 -85.5 33.5t-31.5 89.5zM672 1448q0 57 30.5 90t85.5 33q54 0 85.5 -33t31.5 -90q0 -56 -31.5 -89.5t-85.5 -33.5q-55 0 -85.5 33.5t-30.5 89.5z" />
<glyph horiz-adv-x="1087" d="M426 1448q0 57 32 90t87 33t87 -33t32 -90q0 -56 -32 -89.5t-87 -33.5t-87 33.5t-32 89.5z" />
<glyph horiz-adv-x="1110" d="M352 1563h262l162 -154q31 -31 31 -68q0 -28 -21.5 -50.5t-58.5 -22.5t-74 32z" />
<glyph horiz-adv-x="1087" d="M174 1335q0 30 29 62l162 166h243l-284 -271q-34 -30 -76 -30q-36 0 -55 21.5t-19 51.5zM545 1323q0 32 26 61l174 179h246l-299 -283q-31 -31 -74 -31q-37 0 -55 21.5t-18 52.5z" />
<glyph horiz-adv-x="1087" d="M221 1335v164h649v-164h-649z" />
<glyph horiz-adv-x="1087" d="M309 -178q0 108 113 178l117 12l8 -12q-96 -58 -96 -141q0 -84 116 -84q87 0 189 37l26 -113q-121 -47 -225 -47q-111 0 -179.5 43.5t-68.5 126.5z" />
<glyph horiz-adv-x="1087" d="M334 1466q0 98 67.5 159t167.5 61q101 0 169.5 -61t68.5 -159q0 -95 -69.5 -158t-168.5 -63q-98 0 -166.5 63t-68.5 158zM451 1466q0 -52 32.5 -84t85.5 -32q54 0 87.5 32.5t33.5 83.5q0 49 -33.5 82t-87.5 33t-86 -33t-32 -82z" />
<glyph horiz-adv-x="1087" d="M113 1346q40 114 115 168.5t155 54.5q92 0 154 -51l96 -70q45 -31 84 -31q41 0 75 29.5t64 105.5l125 -67q-38 -114 -113.5 -168.5t-156.5 -54.5q-88 0 -156 51l-92 67q-42 33 -86 33q-85 0 -141 -135z" />
<glyph horiz-adv-x="1216" d="M49 0l428 1094q36 88 135 88q103 0 138 -86l417 -1096h-200l-95 244h-530l-94 -244h-199zM393 397h430l-213 572z" />
<glyph horiz-adv-x="1200" d="M154 127v920q0 59 35.5 91.5t101.5 32.5h407q161 0 250.5 -74.5t89.5 -219.5q0 -119 -71 -205l-60 -76l76 -72q102 -92 102 -219q0 -143 -100.5 -224t-279.5 -81h-410q-67 0 -104 34t-37 93zM346 154h356q95 0 145 39.5t50 109.5q0 73 -63 133l-78 76h-410v-358zM346 666 h406l53 73q47 62 47 135q0 146 -168 146h-338v-354z" />
<glyph horiz-adv-x="1193" d="M115 584q0 148 42 262.5t117.5 186.5t176 108.5t221.5 36.5q136 0 323 -56l101 -32l-33 -166l-109 34q-168 50 -274 50q-173 0 -269 -104.5t-96 -319.5q0 -216 96.5 -321t270.5 -105q89 0 272 51l109 33l33 -168l-101 -29q-202 -57 -323 -57q-124 0 -224 35.5 t-175.5 106.5t-116.5 186.5t-41 267.5z" />
<glyph horiz-adv-x="1280" d="M154 127v917q0 59 36 93t103 34h311q256 0 407.5 -156.5t151.5 -430.5q0 -275 -154 -429.5t-411 -154.5h-305q-67 0 -103 34t-36 93zM348 160h248q177 0 275 111t98 313q0 198 -101.5 314t-281.5 116h-238v-854z" />
<glyph horiz-adv-x="1095" d="M154 127v917q0 59 36 93t103 34h684v-157h-629v-338h553v-156h-553v-362h631v-158h-686q-67 0 -103 34t-36 93z" />
<glyph horiz-adv-x="1058" d="M154 0v1044q0 59 36 93t103 34h668v-159h-613v-359h559v-155h-559v-498h-194z" />
<glyph horiz-adv-x="1269" d="M115 582q0 148 44 262.5t122.5 186.5t183.5 108.5t231 36.5q135 0 338 -56l107 -30l-37 -166l-111 30q-187 54 -293 54q-184 0 -285.5 -105.5t-101.5 -320.5q0 -218 106 -326.5t292 -108.5q113 0 241 25v262h-282v156h331q66 0 102 -35t36 -94v-209q0 -65 -2 -98 q-2 -50 -46 -85.5t-115.5 -51.5t-137 -22.5t-136.5 -6.5q-128 0 -233.5 36t-185.5 107t-124 186t-44 265z" />
<glyph horiz-adv-x="1255" d="M154 0v1171h194v-497h561v497h193v-1171h-193v516h-561v-516h-194z" />
<glyph horiz-adv-x="501" d="M154 0v1171h196v-1171h-196z" />
<glyph horiz-adv-x="727" d="M53 27l25 166q129 -33 184 -33q67 0 96 36t29 115v860h195v-872q0 -146 -82 -225.5t-228 -79.5q-81 0 -219 33z" />
<glyph horiz-adv-x="1169" d="M154 0v1171h192v-606l520 606h242l-369 -415q61 -126 185 -378l186 -378h-209l-307 610l-139 -155q-57 -63 -83 -113.5t-26 -116.5v-225h-192z" />
<glyph horiz-adv-x="1032" d="M154 127v1044h196v-1007h584v-164h-641q-67 0 -103 34t-36 93z" />
<glyph horiz-adv-x="1509" d="M154 0v1059q0 61 38 91t101 30q120 0 156 -103l307 -835l319 837q37 101 148 101q59 0 96 -30t37 -89v-1061h-178v881l-310 -813q-26 -74 -118 -74q-90 0 -117 74l-305 815v-883h-174z" />
<glyph horiz-adv-x="1380" d="M115 584q0 278 158 436t419 158q262 0 417 -157t155 -437q0 -285 -157.5 -440.5t-422.5 -155.5q-259 0 -414 157.5t-155 438.5zM309 584q0 -211 103 -327t280 -116q179 0 278 115t99 328q0 207 -103 321.5t-282 114.5q-178 0 -276.5 -114t-98.5 -322z" />
<glyph horiz-adv-x="1130" d="M154 0v1044q0 59 36 93t103 34h354q168 0 271.5 -99t103.5 -267q0 -170 -107 -268.5t-284 -98.5h-287v-438h-190zM344 594h281q102 0 159.5 55t57.5 156q0 99 -56 156t-151 57h-291v-424z" />
<glyph horiz-adv-x="1378" d="M115 584q0 278 158 436t419 158t415.5 -156.5t154.5 -435.5q0 -178 -74 -306t-207 -194q90 -35 193 -35h69v-155h-74q-133 0 -266 59q-119 45 -207 45q-265 0 -423 151.5t-158 432.5zM309 584q0 -210 102 -320t281 -110q180 0 278.5 109t98.5 321q0 207 -103 321.5 t-282 114.5q-178 0 -276.5 -114t-98.5 -322z" />
<glyph horiz-adv-x="1173" d="M154 0v1047q0 59 36 91.5t103 32.5h393q169 0 262.5 -83.5t93.5 -241.5q0 -124 -96 -238l-82 -98l252 -510h-211l-217 451h-342v-451h-192zM346 604h377l61 76q70 85 70 162q0 82 -43.5 130t-136.5 48h-328v-416z" />
<glyph horiz-adv-x="1130" d="M115 84l39 168l104 -35q220 -67 348 -67q90 0 152.5 42t62.5 127q0 122 -164 158l-225 47q-309 65 -309 320q0 84 33 150t89.5 106t127.5 60t151 20q100 0 187.5 -16.5t199.5 -51.5l103 -31l-41 -168l-105 35q-197 68 -340 68q-92 0 -152.5 -42t-60.5 -126 q0 -125 162 -160l225 -47q153 -32 231.5 -108t78.5 -209q0 -84 -33 -150t-90 -106t-127.5 -60t-151.5 -20q-181 0 -395 65z" />
<glyph horiz-adv-x="1101" d="M80 1012v159h942v-159h-373v-1012h-194v1012h-375z" />
<glyph horiz-adv-x="1263" d="M145 424v747h191v-747q0 -135 74.5 -208t220.5 -73q295 0 295 281v747h192v-747q0 -209 -127 -328t-360 -119q-234 0 -360 118.5t-126 328.5z" />
<glyph horiz-adv-x="1187" d="M49 1171h201l344 -948l346 948h199l-418 -1097q-31 -84 -133 -84q-96 0 -125 84z" />
<glyph horiz-adv-x="1589" d="M68 1171h186l172 -919l254 842q21 77 119 77q93 0 116 -77l250 -848l174 925h183l-213 -1087q-9 -46 -43 -71t-88 -25q-111 0 -134 88l-247 842l-258 -842q-25 -86 -133 -86q-110 0 -125 96z" />
<glyph horiz-adv-x="1241" d="M84 0l418 592l-412 579h229l308 -440l301 440h223l-403 -577l409 -594h-229l-307 459l-310 -459h-227z" />
<glyph horiz-adv-x="1185" d="M39 1171h225l336 -501l326 501h221l-453 -669v-502h-196v494z" />
<glyph horiz-adv-x="1148" d="M115 106q0 47 32 87l639 821h-653v157h782q54 0 82.5 -28.5t28.5 -75.5q0 -44 -33 -86l-635 -823h672v-158h-807q-53 0 -80.5 28.5t-27.5 77.5z" />
<glyph horiz-adv-x="1243" d="M109 301q0 50 12.5 93t32.5 75t50.5 60t62 47.5t71.5 37.5q-64 67 -94.5 127t-30.5 142q0 144 98 221.5t250 77.5q150 0 242 -74t92 -209q0 -56 -17 -103t-42.5 -79t-66.5 -61t-77.5 -46.5t-87.5 -38.5l258 -268q76 112 76 260v150h172v-154q0 -226 -129 -377l174 -182 h-227l-72 74q-150 -92 -350 -92q-190 0 -293.5 90.5t-103.5 228.5zM295 305q0 -72 53.5 -122t161.5 -50q136 0 233 60l-297 311q-73 -37 -112 -83.5t-39 -115.5zM385 883q0 -50 25.5 -94t87.5 -109q54 22 88.5 39t69.5 43t52 59t17 74q0 64 -40.5 102.5t-121.5 38.5 q-90 0 -134 -41.5t-44 -111.5z" />
<glyph horiz-adv-x="1593" d="M168 553q0 183 85 327.5t235.5 225t338.5 80.5q262 0 433.5 -152.5t171.5 -390.5q0 -178 -101 -292.5t-237 -114.5q-40 0 -89 19t-67 19q-30 0 -94 -12t-111 -12q-133 0 -203.5 76.5t-70.5 195.5q0 147 94 248.5t256 101.5q49 0 143 -6l6 47h146l-72 -534q29 -23 70 -23 q69 0 124.5 78t55.5 205q0 185 -128.5 297.5t-326.5 112.5q-227 0 -367.5 -139.5t-140.5 -356.5q0 -192 117 -316t318 -124q74 0 190 30.5t176 30.5t109 -27l94 -53l-57 -110l-92 43q-27 10 -60 10q-37 0 -156 -27.5t-215 -27.5q-175 0 -307.5 77.5t-200 206t-67.5 287.5z M608 520q0 -65 35.5 -106t104.5 -41q31 0 139 18l49 350q-80 9 -127 9q-99 0 -150 -65.5t-51 -164.5z" />
<glyph horiz-adv-x="1046" d="M131 379v412q0 186 103 289.5t294 103.5q192 0 291 -104t99 -294v-403q0 -190 -98.5 -294.5t-289.5 -104.5q-192 0 -295.5 104t-103.5 291zM311 381q0 -242 215 -242q213 0 213 242v405q0 240 -213 240q-215 0 -215 -240v-405z" />
<glyph horiz-adv-x="1046" d="M131 0v158h350v854h-55q-118 0 -193 -37l-40 153q42 21 111 32t128 11h98q68 0 106 -33.5t38 -93.5v-886h282v-158h-825z" />
<glyph horiz-adv-x="1046" d="M119 102q0 52 45 91l403 362q92 83 132 146.5t40 142.5q0 92 -58.5 134t-156.5 42q-106 0 -278 -49l-88 -27l-35 158l88 24q192 56 324 56q80 0 147 -18.5t121.5 -57.5t85.5 -106t31 -156q0 -204 -218 -393l-340 -297h562v-154h-703q-49 0 -75.5 27t-26.5 75z" />
<glyph horiz-adv-x="1046" d="M100 68l35 157l94 -24q205 -56 306 -56q112 0 170.5 44t58.5 120q0 69 -64 133l-69 72h-240v150h240l53 71q47 59 47 137q0 68 -50.5 108t-154.5 40q-48 0 -129.5 -14.5t-148.5 -34.5l-86 -27l-37 160l88 24q184 54 324 54q184 0 280 -77.5t96 -225.5q0 -117 -75 -209 l-58 -72l74 -72q92 -85 92 -215q0 -150 -110.5 -236.5t-296.5 -86.5q-130 0 -349 57z" />
<glyph horiz-adv-x="1046" d="M82 307q0 37 33 84l491 723q44 66 127 66q117 0 117 -109v-711h137v-151h-137v-209h-178v209h-488q-51 0 -76.5 26t-25.5 72zM299 360h373v551z" />
<glyph horiz-adv-x="1046" d="M117 66l35 155l90 -24q163 -50 274 -50q122 0 185 63.5t63 170.5q0 227 -250 227q-97 0 -209 -33l-131 -34v630h717v-163h-551v-271q120 27 201 27q193 0 298 -95t105 -288q0 -181 -113 -287t-309 -106q-147 0 -317 51z" />
<glyph horiz-adv-x="1046" d="M125 389v410q0 172 105 276.5t290 104.5q125 0 318 -52l86 -22l-35 -160l-86 27q-160 47 -277 47q-110 0 -164.5 -57.5t-54.5 -161.5v-74q130 37 232 37q201 0 304 -98t103 -283q0 -174 -106 -283.5t-301 -109.5q-193 0 -303.5 108.5t-110.5 290.5zM307 393 q0 -116 61 -182t173 -66q106 0 163.5 64t57.5 172q0 225 -242 225q-64 0 -213 -33v-180z" />
<glyph horiz-adv-x="1046" d="M129 1014v157h715q108 0 108 -96q0 -27 -22 -86l-432 -989h-199l449 1014h-619z" />
<glyph horiz-adv-x="1046" d="M98 305q0 119 92 217l68 72l-55 74q-72 95 -72 206q0 145 104.5 227.5t286.5 82.5q184 0 288.5 -82.5t104.5 -227.5q0 -114 -67 -200l-62 -82l72 -68q90 -93 90 -219q0 -150 -112 -235.5t-308 -85.5q-198 0 -314 85.5t-116 235.5zM279 305q0 -76 64 -120t183 -44 t180.5 43.5t61.5 120.5q0 72 -61 133l-68 72h-229l-72 -72q-59 -62 -59 -133zM309 870q0 -71 49 -137l52 -71h227l53 71q47 62 47 137q0 69 -54 111.5t-159 42.5q-108 0 -161.5 -42t-53.5 -112z" />
<glyph horiz-adv-x="1046" d="M104 788q0 174 106 283t302 109q193 0 302.5 -108t109.5 -290v-409q0 -171 -105.5 -277t-288.5 -106q-120 0 -317 53l-88 25l35 157l88 -24q186 -51 274 -49q108 0 163.5 57t55.5 162v73q-133 -36 -229 -36q-203 0 -305.5 97t-102.5 283zM289 791q0 -224 243 -224 q77 0 209 35v176q0 115 -60 181.5t-171 66.5q-107 0 -164 -64t-57 -171z" />
<glyph horiz-adv-x="1046" d="M102 80l39 168l99 -33q186 -65 321 -65q84 0 144.5 42.5t60.5 126.5q0 122 -154 158l-211 47q-288 63 -288 316q0 76 28 138.5t75 103t106 64t124 28.5v188h166v-191q107 -10 242 -57l96 -31l-41 -165l-98 34q-173 62 -313 62q-87 0 -146 -41.5t-59 -126.5 q0 -62 36 -99.5t117 -56.5l207 -49q143 -34 219 -109.5t76 -205.5q0 -75 -28 -136.5t-76.5 -101.5t-107 -64t-124.5 -32v-191h-166v191q-41 4 -86.5 14t-71.5 17.5t-89 27.5z" />
<glyph horiz-adv-x="1046" d="M78 403v142h119v82h-119v143h121q6 202 121.5 309t304.5 107q119 0 252 -41l86 -25l-29 -157l-88 24q-129 37 -215 37q-238 0 -244 -254h377v-143h-381v-82h381v-142h-377q6 -253 246 -253q83 0 213 36l88 25l29 -158l-86 -24q-136 -41 -252 -41q-187 0 -303 108 t-123 307h-121z" />
<glyph horiz-adv-x="446" d="M106 106q0 59 32 92t89 33q56 0 87.5 -33.5t31.5 -91.5t-31.5 -91t-87.5 -33q-57 0 -89 33t-32 91zM131 385v786h191v-753z" />
<glyph horiz-adv-x="446" d="M106 1065q0 58 31.5 91.5t87.5 33.5q57 0 89 -33t32 -92t-32 -93t-89 -34q-55 0 -87 34t-32 93zM131 0v752l191 34v-786h-191z" />
<glyph horiz-adv-x="839" d="M70 1112l84 25q132 39 276 39q153 0 243.5 -72t90.5 -199q0 -92 -38.5 -160t-125.5 -139l-102 -84v-112l-191 -29v94q0 62 11.5 94t52.5 64l108 90q55 42 74.5 79t19.5 93q0 57 -42 87t-119 30q-121 0 -226 -33l-86 -27zM285 104q0 60 31 92.5t87 32.5t87.5 -32.5 t31.5 -92.5q0 -57 -31.5 -89.5t-87.5 -32.5q-55 0 -86.5 32.5t-31.5 89.5z" />
<glyph horiz-adv-x="839" d="M74 252q0 88 32.5 151.5t102.5 120.5l131 111v113l190 28v-94q0 -63 -11.5 -94.5t-51.5 -63.5l-109 -90q-54 -42 -74 -79.5t-20 -92.5q0 -57 41.5 -87t118.5 -30q119 0 227 33l86 27l31 -160l-84 -25q-128 -38 -276 -38q-152 0 -243 71.5t-91 198.5zM315 1053q0 57 32 90 t87 33t87 -33t32 -90q0 -60 -31.5 -92.5t-87.5 -32.5t-87.5 32.5t-31.5 92.5z" />
<glyph horiz-adv-x="544" d="M98 471v125q111 0 111 63q0 28 -20.5 76.5t-41 107t-20.5 109.5q0 102 67.5 160.5t178.5 58.5h96v-151h-84q-40 0 -64 -20.5t-24 -61.5q0 -54 38 -148.5t38 -136.5q0 -38 -16 -68.5t-27 -39.5t-19 -13q4 -2 8.5 -5t15 -12.5t18 -21.5t14 -32t6.5 -43q0 -43 -38 -139.5 t-38 -151.5q0 -80 88 -80h84v-151h-96q-111 0 -178.5 58.5t-67.5 160.5q0 52 20.5 110.5t41 107.5t20.5 77q0 61 -111 61z" />
<glyph horiz-adv-x="544" d="M74 47h86q86 0 86 80q0 55 -37 151.5t-37 139.5q0 37 15 65t27 37.5t19 11.5q-7 2 -19 12.5t-27 40t-15 68.5q0 42 37 136.5t37 148.5q0 41 -23 61.5t-63 20.5h-86v151h96q112 0 180 -58t68 -161q0 -51 -21 -109.5t-42 -107t-21 -76.5q0 -63 110 -63v-125 q-110 0 -110 -61q0 -28 21 -77t42 -107.5t21 -110.5q0 -103 -68 -161t-180 -58h-96v151z" />
<glyph horiz-adv-x="548" d="M125 -100v1271h350v-147h-174v-975h174v-149h-350z" />
<glyph horiz-adv-x="548" d="M74 49h174v975h-174v147h350v-1271h-350v149z" />
<glyph horiz-adv-x="563" d="M84 539q0 114 13.5 207t35.5 157.5t55 113.5t68 77.5t78 46.5t81.5 24t82.5 6v-147q-21 -2 -38.5 -6t-42.5 -16.5t-44.5 -32.5t-40 -57t-34.5 -86t-23 -122.5t-9 -164.5q0 -95 9 -172t23 -128t34.5 -89.5t40 -59.5t44.5 -34t42.5 -17t38.5 -6v-146q-40 0 -77 6.5 t-80 25.5t-78.5 49t-69.5 81t-57.5 117t-37.5 161.5t-14 211.5z" />
<glyph horiz-adv-x="563" d="M66 33q31 2 56.5 10t60.5 39t58.5 82t40.5 147.5t17 227.5q0 125 -17 217.5t-40.5 141.5t-58.5 78.5t-60.5 37.5t-56.5 10v147q44 0 82.5 -6t81.5 -24t78 -46.5t67.5 -77.5t54.5 -113.5t35.5 -157.5t13.5 -207q0 -160 -27 -281t-68 -190t-99 -111.5t-109.5 -56 t-109.5 -13.5v146z" />
<glyph horiz-adv-x="727" d="M98 575q0 53 47 103l291 285h228l-390 -388l390 -389h-228l-291 287q-47 47 -47 102z" />
<glyph horiz-adv-x="1159" d="M102 575q0 52 48 103l288 285h221l-389 -388l389 -389h-221l-288 287q-48 48 -48 102zM537 575q0 55 45 103l290 285h222l-389 -388l389 -389h-222l-290 287q-45 45 -45 102z" />
<glyph horiz-adv-x="1159" d="M63 186l392 389l-392 388h224l288 -285q48 -51 48 -103q0 -54 -48 -102l-288 -287h-224zM500 186l387 389l-387 388h221l289 -285q47 -50 47 -103q0 -55 -47 -102l-289 -287h-221z" />
<glyph horiz-adv-x="727" d="M63 186l390 389l-390 388h228l291 -285q47 -50 47 -103q0 -55 -47 -102l-291 -287h-228z" />
<glyph horiz-adv-x="854" d="M115 496v170h624v-170h-624z" />
<glyph horiz-adv-x="446" d="M70 -139l96 372h203l-115 -417q-22 -72 -96 -72q-53 0 -76 33.5t-12 83.5z" />
<glyph horiz-adv-x="446" d="M104 109q0 59 32 93t89 34q55 0 87 -34t32 -93q0 -60 -31.5 -93.5t-87.5 -33.5q-57 0 -89 33.5t-32 93.5z" />
<glyph horiz-adv-x="446" d="M70 -139l94 372h205l-115 -417q-22 -72 -96 -72q-53 0 -76 33.5t-12 83.5zM135 834q0 60 31 93.5t88 33.5q56 0 87.5 -33.5t31.5 -93.5q0 -59 -32 -93t-87 -34q-56 0 -87.5 34t-31.5 93z" />
<glyph horiz-adv-x="446" d="M104 109q0 59 32 93t89 34q55 0 87 -34t32 -93q0 -60 -31.5 -93.5t-87.5 -33.5q-57 0 -89 33.5t-32 93.5zM104 834q0 60 32 93.5t89 33.5q56 0 87.5 -33.5t31.5 -93.5q0 -59 -32 -93t-87 -34q-57 0 -89 34t-32 93z" />
<glyph horiz-adv-x="446" d="M61 784l111 400q22 71 96 71q53 0 76 -33t12 -81l-92 -357h-203z" />
<glyph horiz-adv-x="811" d="M61 782l111 402q22 71 94 71q52 0 73.5 -33t10.5 -83l-92 -357h-197zM430 782l113 402q19 71 92 71q52 0 74.5 -33.5t11.5 -82.5l-92 -357h-199z" />
<glyph horiz-adv-x="446" d="M72 874l92 367h205l-113 -410q-21 -71 -96 -71q-54 0 -77.5 33t-10.5 81z" />
<glyph horiz-adv-x="811" d="M72 874l94 367h196l-112 -410q-22 -73 -94 -73q-52 0 -74 33.5t-10 82.5zM442 874l93 367h198l-112 -410q-22 -73 -95 -73q-52 0 -74 33.5t-10 82.5z" />
<glyph horiz-adv-x="446" d="M68 -139l96 372h205l-117 -417q-22 -72 -96 -72q-53 0 -76 33.5t-12 83.5z" />
<glyph horiz-adv-x="811" d="M68 -145l96 378h198l-116 -423q-22 -72 -94 -72q-52 0 -74.5 34t-9.5 83zM438 -145l97 378h198l-117 -423q-22 -72 -94 -72q-52 0 -74.5 34t-9.5 83z" />
<glyph horiz-adv-x="442" d="M117 1235h209l-19 -434h-172z" />
<glyph horiz-adv-x="788" d="M117 1235h194l-18 -434h-160zM477 1235h195l-19 -434h-157z" />
<glyph horiz-adv-x="1294" d="M154 0v1063q0 58 34 88.5t93 30.5q90 0 135 -76l547 -821v886h178v-1058q0 -60 -34.5 -90.5t-94.5 -30.5q-88 0 -133 78l-547 821v-891h-178z" />
<glyph horiz-adv-x="1761" d="M49 0l459 1063q48 108 174 108h958v-157h-628v-338h563v-156h-563v-362h633v-158h-693q-65 0 -99 32.5t-34 90.5v121h-463l-104 -244h-203zM416 397h403v617h-147z" />
<glyph horiz-adv-x="1875" d="M117 584q0 274 150.5 430.5t406.5 156.5h1079v-157h-629v-338h553v-156h-553v-362h635v-158h-1081q-254 0 -407.5 154.5t-153.5 429.5zM311 584q0 -202 98 -313t275 -111h246v854h-236q-181 0 -282 -115.5t-101 -314.5z" />
<glyph horiz-adv-x="1380" d="M115 584q0 278 158 436t419 158q122 0 223 -37l58 104h162l-95 -168q108 -75 166 -200t58 -293q0 -285 -157.5 -440.5t-422.5 -155.5q-131 0 -229 39l-60 -107h-164l97 174q-102 75 -157.5 199.5t-55.5 290.5zM309 584q0 -216 107 -332l415 743q-67 25 -147 25 q-178 0 -276.5 -114t-98.5 -322zM535 170q68 -29 157 -29q179 0 278 115t99 328q0 216 -117 336z" />
<glyph horiz-adv-x="1130" d="M154 0v1171h190v-192h303q168 0 271.5 -99.5t103.5 -269.5q0 -169 -107.5 -267.5t-283.5 -98.5h-287v-244h-190zM344 399h281q101 0 159 56.5t58 156.5q0 98 -56.5 154.5t-150.5 56.5h-291v-424z" />
<glyph horiz-adv-x="1280" d="M47 526v144h107v374q0 59 38.5 93t104.5 34h311q255 0 406 -156.5t151 -430.5q0 -275 -154 -429.5t-409 -154.5h-305q-66 0 -104.5 34t-38.5 93v399h-107zM350 160h248q175 0 273 111t98 313q0 199 -101 314.5t-282 115.5h-236v-344h340v-144h-340v-366z" />
<glyph horiz-adv-x="1167" d="M115 582q0 262 124 412t334 177v191h164v-188q92 -7 244 -54l100 -30l-32 -166l-105 32q-178 54 -274 54q-172 0 -265.5 -106t-93.5 -322q0 -215 94 -320.5t265 -105.5q95 0 274 51l105 31l32 -164l-100 -29q-131 -41 -244 -53v-191h-164v193q-212 24 -335 171t-123 417z " />
<glyph horiz-adv-x="1067" d="M117 492v163h323v332h176v-332h330v-163h-330v-330h-176v330h-323z" />
<glyph horiz-adv-x="1067" d="M121 487v166h823v-166h-823z" />
<glyph horiz-adv-x="1067" d="M117 348v164h829v-164h-829zM117 623v161h829v-161h-829z" />
<glyph horiz-adv-x="1216" d="M49 0l428 1094q36 88 135 88q103 0 138 -86l417 -1096h-200l-95 244h-530l-94 -244h-199zM381 1563h262l162 -154q31 -31 31 -68q0 -28 -21.5 -50.5t-58.5 -22.5t-74 32zM393 397h430l-213 572z" />
<glyph horiz-adv-x="1216" d="M49 0l428 1094q36 88 135 88q103 0 138 -86l417 -1096h-200l-95 244h-530l-94 -244h-199zM393 397h430l-213 572zM428 1343q0 35 31 66l164 154h262l-301 -263q-37 -32 -76 -32q-36 0 -58 24t-22 51z" />
<glyph horiz-adv-x="1216" d="M49 0l428 1094q36 88 135 88q103 0 138 -86l417 -1096h-200l-95 244h-530l-94 -244h-199zM240 1264l266 260q47 43 110 43q69 0 109 -43l268 -260h-235l-142 161l-139 -161h-237zM393 397h430l-213 572z" />
<glyph horiz-adv-x="1216" d="M49 0l428 1094q36 88 135 88q103 0 138 -86l417 -1096h-200l-95 244h-530l-94 -244h-199zM154 1346q40 114 115 168.5t155 54.5q92 0 154 -51l96 -70q45 -31 84 -31q41 0 75 29.5t64 105.5l125 -67q-38 -114 -113.5 -168.5t-156.5 -54.5q-88 0 -156 51l-92 67 q-42 33 -86 33q-86 0 -142 -135zM393 397h430l-213 572z" />
<glyph horiz-adv-x="1216" d="M49 0l428 1094q36 88 135 88q103 0 138 -86l417 -1096h-200l-95 244h-530l-94 -244h-199zM313 1448q0 57 31.5 90t85.5 33q55 0 86 -33t31 -90q0 -56 -31 -89.5t-86 -33.5q-54 0 -85.5 33.5t-31.5 89.5zM393 397h430l-213 572zM713 1448q0 57 30.5 90t85.5 33 q54 0 85.5 -33t31.5 -90q0 -56 -31.5 -89.5t-85.5 -33.5q-55 0 -85.5 33.5t-30.5 89.5z" />
<glyph horiz-adv-x="1216" d="M49 0l428 1094q36 88 135 88q103 0 138 -86l417 -1096h-200l-95 244h-530l-94 -244h-199zM375 1466q0 98 67.5 159t167.5 61q101 0 169.5 -61t68.5 -159q0 -95 -69.5 -158t-168.5 -63q-98 0 -166.5 63t-68.5 158zM393 397h430l-213 572zM492 1466q0 -52 32 -84t86 -32 t87.5 32.5t33.5 83.5q0 49 -33.5 82t-87.5 33t-86 -33t-32 -82z" />
<glyph horiz-adv-x="1216" d="M49 0l428 1094q36 88 135 88q103 0 138 -86l417 -1096h-200l-95 244h-530l-94 -244h-199zM264 1335v164h649v-164h-649zM393 397h430l-213 572z" />
<glyph horiz-adv-x="1216" d="M49 0l428 1094q36 88 135 88q103 0 138 -86l417 -1096h-200l-95 244h-530l-94 -244h-199zM250 1563h172q0 -78 51.5 -121t138.5 -43q85 0 138 44t53 120h170q0 -138 -103.5 -224t-257.5 -86q-155 0 -258.5 85.5t-103.5 224.5zM393 397h430l-213 572z" />
<glyph horiz-adv-x="1216" d="M49 0l428 1094q36 88 135 88q103 0 138 -86l413 -1090l6 -6q-96 -58 -96 -141q0 -84 117 -84q86 0 188 37l27 -113q-121 -47 -225 -47q-111 0 -179.5 43.5t-68.5 126.5q0 109 112 178h-77l-95 244h-530l-94 -244h-199zM393 397h430l-213 572z" />
<glyph horiz-adv-x="1193" d="M115 584q0 148 42 262.5t117.5 186.5t176 108.5t221.5 36.5q136 0 323 -56l101 -32l-33 -166l-109 34q-168 50 -274 50q-173 0 -269 -104.5t-96 -319.5q0 -216 96.5 -321t270.5 -105q89 0 272 51l109 33l33 -168l-101 -29q-177 -50 -284 -55l-43 -90q79 0 128.5 -35 t49.5 -103q0 -74 -54 -121t-151 -47q-80 0 -184 44l28 96q86 -35 154 -35q90 0 90 59q0 22 -13 36t-37 19.5t-57 7t-73 -0.5l-10 18l77 152q-231 14 -366 162.5t-135 431.5z" />
<glyph horiz-adv-x="1193" d="M115 584q0 148 42 262.5t117.5 186.5t176 108.5t221.5 36.5q136 0 323 -56l101 -32l-33 -166l-109 34q-168 50 -274 50q-173 0 -269 -104.5t-96 -319.5q0 -216 96.5 -321t270.5 -105q89 0 272 51l109 33l33 -168l-101 -29q-202 -57 -323 -57q-124 0 -224 35.5 t-175.5 106.5t-116.5 186.5t-41 267.5zM510 1343q0 35 31 66l164 154h262l-301 -263q-37 -32 -76 -32q-36 0 -58 24t-22 51z" />
<glyph horiz-adv-x="1193" d="M115 584q0 148 42 262.5t117.5 186.5t176 108.5t221.5 36.5q136 0 323 -56l101 -32l-33 -166l-109 34q-168 50 -274 50q-173 0 -269 -104.5t-96 -319.5q0 -216 96.5 -321t270.5 -105q89 0 272 51l109 33l33 -168l-101 -29q-202 -57 -323 -57q-124 0 -224 35.5 t-175.5 106.5t-116.5 186.5t-41 267.5zM297 1264l266 260q47 43 111 43q68 0 108 -43l269 -260h-236l-141 161l-139 -161h-238z" />
<glyph horiz-adv-x="1193" d="M115 584q0 148 42 262.5t117.5 186.5t176 108.5t221.5 36.5q136 0 323 -56l101 -32l-33 -166l-109 34q-168 50 -274 50q-173 0 -269 -104.5t-96 -319.5q0 -216 96.5 -321t270.5 -105q89 0 272 51l109 33l33 -168l-101 -29q-202 -57 -323 -57q-124 0 -224 35.5 t-175.5 106.5t-116.5 186.5t-41 267.5zM553 1448q0 57 32 90t87 33t87 -33t32 -90q0 -56 -32 -89.5t-87 -33.5t-87 33.5t-32 89.5z" />
<glyph horiz-adv-x="1193" d="M115 584q0 148 42 262.5t117.5 186.5t176 108.5t221.5 36.5q136 0 323 -56l101 -32l-33 -166l-109 34q-168 50 -274 50q-173 0 -269 -104.5t-96 -319.5q0 -216 96.5 -321t270.5 -105q89 0 272 51l109 33l33 -168l-101 -29q-202 -57 -323 -57q-124 0 -224 35.5 t-175.5 106.5t-116.5 186.5t-41 267.5zM297 1563h235l142 -164l141 164h236l-267 -260q-46 -46 -110 -46q-66 0 -109 46z" />
<glyph horiz-adv-x="1280" d="M154 127v917q0 59 36 93t103 34h311q256 0 407.5 -156.5t151.5 -430.5q0 -275 -154 -429.5t-411 -154.5h-305q-67 0 -103 34t-36 93zM215 1563h236l141 -164l141 164h236l-267 -260q-46 -46 -110 -46q-66 0 -109 46zM348 160h248q177 0 275 111t98 313q0 198 -101.5 314 t-281.5 116h-238v-854z" />
<glyph horiz-adv-x="1280" d="M47 526v144h107v374q0 59 38.5 93t104.5 34h311q255 0 406 -156.5t151 -430.5q0 -275 -154 -429.5t-409 -154.5h-305q-66 0 -104.5 34t-38.5 93v399h-107zM350 160h248q175 0 273 111t98 313q0 199 -101 314.5t-282 115.5h-236v-344h340v-144h-340v-366z" />
<glyph horiz-adv-x="1095" d="M154 127v917q0 59 36 93t103 34h684v-157h-629v-338h553v-156h-553v-362h631v-158h-686q-67 0 -103 34t-36 93zM266 1563h262l162 -154q31 -31 31 -68q0 -28 -21.5 -50.5t-58.5 -22.5t-74 32z" />
<glyph horiz-adv-x="1095" d="M154 127v917q0 59 36 93t103 34h684v-157h-629v-338h553v-156h-553v-362h631v-158h-686q-67 0 -103 34t-36 93zM414 1343q0 36 30 66l164 154h262l-301 -263q-37 -32 -75 -32q-36 0 -58 24t-22 51z" />
<glyph horiz-adv-x="1095" d="M154 127v917q0 59 36 93t103 34h684v-157h-629v-338h553v-156h-553v-362h631v-158h-686q-67 0 -103 34t-36 93zM201 1264l266 260q47 43 111 43q68 0 108 -43l268 -260h-235l-141 161l-140 -161h-237z" />
<glyph horiz-adv-x="1095" d="M154 127v917q0 59 36 93t103 34h684v-157h-629v-338h553v-156h-553v-362h631v-158h-686q-67 0 -103 34t-36 93zM256 1448q0 57 31.5 90t85.5 33q55 0 85.5 -33t30.5 -90q0 -56 -30.5 -89.5t-85.5 -33.5q-54 0 -85.5 33.5t-31.5 89.5zM655 1448q0 57 31 90t86 33 q54 0 85.5 -33t31.5 -90q0 -56 -31.5 -89.5t-85.5 -33.5q-55 0 -86 33.5t-31 89.5z" />
<glyph horiz-adv-x="1095" d="M154 127v917q0 59 36 93t103 34h684v-157h-629v-338h553v-156h-553v-362h631v-158h-686q-67 0 -103 34t-36 93zM248 1335v164h649v-164h-649z" />
<glyph horiz-adv-x="1095" d="M154 127v917q0 59 36 93t103 34h684v-157h-629v-338h553v-156h-553v-362h631v-158h-686q-67 0 -103 34t-36 93zM211 1563h172q0 -78 51.5 -121t138.5 -43q85 0 138 44t53 120h170q0 -138 -103.5 -224t-257.5 -86q-155 0 -258.5 85.5t-103.5 224.5z" />
<glyph horiz-adv-x="1095" d="M154 127v917q0 59 36 93t103 34h684v-157h-629v-338h553v-156h-553v-362h631v-158h-686q-67 0 -103 34t-36 93zM465 1448q0 57 32 90t87 33t86.5 -33t31.5 -90q0 -56 -31.5 -89.5t-86.5 -33.5t-87 33.5t-32 89.5z" />
<glyph horiz-adv-x="1095" d="M154 127v917q0 59 36 93t103 34h684v-157h-629v-338h553v-156h-553v-362h631v-158h-141q-97 -59 -97 -141q0 -84 117 -84q87 0 189 37l26 -113q-121 -47 -225 -47q-111 0 -179.5 43.5t-68.5 126.5q0 108 113 178h-420q-67 0 -103 34t-36 93z" />
<glyph horiz-adv-x="1095" d="M154 127v917q0 59 36 93t103 34h684v-157h-629v-338h553v-156h-553v-362h631v-158h-686q-67 0 -103 34t-36 93zM203 1563h235l142 -164l141 164h235l-266 -260q-46 -46 -110 -46q-66 0 -109 46z" />
<glyph horiz-adv-x="1269" d="M115 582q0 148 44 262.5t122.5 186.5t183.5 108.5t231 36.5q135 0 338 -56l107 -30l-37 -166l-111 30q-187 54 -293 54q-184 0 -285.5 -105.5t-101.5 -320.5q0 -218 106 -326.5t292 -108.5q113 0 241 25v262h-282v156h331q66 0 102 -35t36 -94v-209q0 -65 -2 -98 q-2 -50 -46 -85.5t-115.5 -51.5t-137 -22.5t-136.5 -6.5q-128 0 -233.5 36t-185.5 107t-124 186t-44 265zM307 1264l266 260q47 43 111 43q69 0 109 -43l268 -260h-236l-141 161l-139 -161h-238z" />
<glyph horiz-adv-x="1269" d="M115 582q0 148 44 262.5t122.5 186.5t183.5 108.5t231 36.5q135 0 338 -56l107 -30l-37 -166l-111 30q-187 54 -293 54q-184 0 -285.5 -105.5t-101.5 -320.5q0 -218 106 -326.5t292 -108.5q113 0 241 25v262h-282v156h331q66 0 102 -35t36 -94v-209q0 -65 -2 -98 q-2 -50 -46 -85.5t-115.5 -51.5t-137 -22.5t-136.5 -6.5q-128 0 -233.5 36t-185.5 107t-124 186t-44 265zM313 1563h172q0 -78 52 -121t139 -43q85 0 137.5 43.5t52.5 120.5h170q0 -138 -103 -224t-257 -86q-155 0 -259 86t-104 224z" />
<glyph horiz-adv-x="1269" d="M115 582q0 148 44 262.5t122.5 186.5t183.5 108.5t231 36.5q135 0 338 -56l107 -30l-37 -166l-111 30q-187 54 -293 54q-184 0 -285.5 -105.5t-101.5 -320.5q0 -218 106 -326.5t292 -108.5q113 0 241 25v262h-282v156h331q66 0 102 -35t36 -94v-209q0 -65 -2 -98 q-2 -50 -46 -85.5t-115.5 -51.5t-137 -22.5t-136.5 -6.5q-128 0 -233.5 36t-185.5 107t-124 186t-44 265zM555 1452q0 57 32 90t87 33t87 -33t32 -90q0 -56 -32 -89.5t-87 -33.5t-87 33.5t-32 89.5z" />
<glyph horiz-adv-x="1269" d="M115 582q0 148 44 262.5t122.5 186.5t183.5 108.5t231 36.5q135 0 338 -56l107 -30l-37 -166l-111 30q-187 54 -293 54q-184 0 -285.5 -105.5t-101.5 -320.5q0 -218 106 -326.5t292 -108.5q113 0 241 25v262h-282v156h331q66 0 102 -35t36 -94v-209q0 -65 -2 -98 q-2 -50 -46 -85.5t-115.5 -51.5t-137 -22.5t-136.5 -6.5q-128 0 -233.5 36t-185.5 107t-124 186t-44 265zM530 -309l56 209h196l-69 -252q-22 -72 -95 -72q-54 0 -77.5 33.5t-10.5 81.5z" />
<glyph horiz-adv-x="1255" d="M154 0v1171h194v-497h561v497h193v-1171h-193v516h-561v-516h-194zM252 1264l266 260q47 43 111 43q68 0 108 -43l269 -260h-236l-141 161l-140 -161h-237z" />
<glyph horiz-adv-x="1251" d="M29 819v146h125v206h194v-206h561v206h193v-206h117v-146h-117v-819h-193v516h-561v-516h-194v819h-125zM348 674h561v145h-561v-145z" />
<glyph horiz-adv-x="1228" d="M154 0v1171h196v-1171h-196zM555 27l25 166q129 -33 184 -33q67 0 96 36t29 115v860h194v-872q0 -147 -81.5 -226t-227.5 -79q-81 0 -219 33z" />
<glyph horiz-adv-x="501" d="M-33 1563h262l162 -154q31 -31 31 -68q0 -28 -21.5 -50.5t-58.5 -22.5t-74 32zM154 0v1171h196v-1171h-196z" />
<glyph horiz-adv-x="501" d="M88 1343q0 35 31 66l164 154h262l-301 -263q-37 -32 -76 -32q-36 0 -58 24t-22 51zM154 0v1171h196v-1171h-196z" />
<glyph horiz-adv-x="501" d="M-125 1264l266 260q47 43 111 43q68 0 108 -43l269 -260h-236l-141 161l-139 -161h-238zM154 0v1171h196v-1171h-196z" />
<glyph horiz-adv-x="501" d="M-63 1448q0 57 31 90t85 33q55 0 86 -33t31 -90q0 -56 -31 -89.5t-86 -33.5q-54 0 -85 33.5t-31 89.5zM154 0v1171h196v-1171h-196zM336 1448q0 57 31 90t86 33q54 0 85 -33t31 -90q0 -56 -31 -89.5t-85 -33.5q-55 0 -86 33.5t-31 89.5z" />
<glyph horiz-adv-x="501" d="M-188 1346q40 114 115 168.5t155 54.5q92 0 154 -51l96 -70q45 -31 84 -31q41 0 75 29.5t64 105.5l125 -67q-38 -114 -113.5 -168.5t-156.5 -54.5q-88 0 -156 51l-92 67q-42 33 -86 33q-86 0 -142 -135zM154 0v1171h196v-1171h-196z" />
<glyph horiz-adv-x="501" d="M-72 1335v164h650v-164h-650zM154 0v1171h196v-1171h-196z" />
<glyph horiz-adv-x="501" d="M-109 1563h172q0 -78 52 -121t139 -43q85 0 137.5 43.5t52.5 120.5h170q0 -138 -103 -224t-257 -86q-155 0 -259 86t-104 224zM154 0v1171h196v-1171h-196z" />
<glyph horiz-adv-x="501" d="M113 -178q0 109 112 178h-71v1171h196v-1171q-96 -58 -96 -141q0 -84 117 -84q86 0 188 37l27 -113q-121 -47 -226 -47q-111 0 -179 43.5t-68 126.5z" />
<glyph horiz-adv-x="501" d="M135 1448q0 57 32 90t87 33t87 -33t32 -90q0 -56 -32 -89.5t-87 -33.5t-87 33.5t-32 89.5zM154 0v1171h196v-1171h-196z" />
<glyph horiz-adv-x="1036" d="M45 492v165l113 48v466h196v-383l262 113v-166l-262 -112v-459h584v-164h-643q-66 0 -101.5 33.5t-35.5 93.5v412z" />
<glyph horiz-adv-x="727" d="M53 27l25 166q129 -33 184 -33q67 0 96 36t29 115v860h195v-872q0 -146 -82 -225.5t-228 -79.5q-81 0 -219 33zM109 1264l266 260q47 43 110 43q69 0 109 -43l268 -260h-235l-142 161l-139 -161h-237z" />
<glyph horiz-adv-x="1169" d="M154 0v1171h192v-606l520 606h242l-369 -415q61 -126 185 -378l186 -378h-209l-307 610l-139 -155q-57 -63 -83 -113.5t-26 -116.5v-225h-192zM455 -309l55 209h197l-70 -252q-22 -72 -94 -72q-54 0 -77.5 33.5t-10.5 81.5z" />
<glyph horiz-adv-x="1032" d="M154 127v1044h196v-1007h584v-164h-641q-67 0 -103 34t-36 93zM387 1343q0 35 31 66l164 154h262l-301 -263q-37 -32 -76 -32q-36 0 -58 24t-22 51z" />
<glyph horiz-adv-x="1032" d="M154 127v1044h196v-1007h584v-164h-641q-67 0 -103 34t-36 93zM373 -309l55 209h197l-70 -252q-22 -72 -94 -72q-54 0 -77.5 33.5t-10.5 81.5z" />
<glyph horiz-adv-x="1032" d="M154 127v1044h196v-1007h584v-164h-641q-67 0 -103 34t-36 93zM518 920l90 329h187l-111 -375q-19 -71 -88 -71q-52 0 -71.5 33.5t-6.5 83.5z" />
<glyph horiz-adv-x="1032" d="M154 127v1044h196v-1007h584v-164h-641q-67 0 -103 34t-36 93zM582 610q0 59 30.5 88t77.5 29t78 -29t31 -88t-31 -87.5t-78 -28.5t-77.5 28.5t-30.5 87.5z" />
<glyph horiz-adv-x="1294" d="M154 0v1063q0 58 34 88.5t93 30.5q90 0 135 -76l547 -821v886h178v-1058q0 -60 -34.5 -90.5t-94.5 -30.5q-88 0 -133 78l-547 821v-891h-178zM219 1346q40 114 115 168.5t155 54.5q92 0 154 -51l96 -70q45 -31 84 -31q87 0 140 135l124 -67q-38 -114 -113.5 -168.5 t-156.5 -54.5q-87 0 -155 51l-93 67q-42 33 -86 33q-85 0 -141 -135z" />
<glyph horiz-adv-x="1294" d="M154 0v1063q0 58 34 88.5t93 30.5q90 0 135 -76l547 -821v886h178v-1058q0 -60 -34.5 -90.5t-94.5 -30.5q-88 0 -133 78l-547 821v-891h-178zM535 1343q0 36 30 66l164 154h262l-301 -263q-37 -32 -76 -32q-36 0 -57.5 23.5t-21.5 51.5z" />
<glyph horiz-adv-x="1294" d="M154 0v1063q0 58 34 88.5t93 30.5q90 0 135 -76l547 -821v886h178v-1058q0 -60 -34.5 -90.5t-94.5 -30.5q-88 0 -133 78l-547 821v-891h-178zM485 -309l56 209h196l-69 -252q-22 -72 -95 -72q-54 0 -77.5 33.5t-10.5 81.5z" />
<glyph horiz-adv-x="1294" d="M154 0v1063q0 58 34 88.5t93 30.5q90 0 135 -76l547 -821v886h178v-1058q0 -60 -34.5 -90.5t-94.5 -30.5q-88 0 -133 78l-547 821v-891h-178zM276 1563h236l141 -164l142 164h235l-266 -260q-46 -46 -111 -46t-108 46z" />
<glyph horiz-adv-x="1380" d="M115 584q0 278 158 436t419 158q262 0 417 -157t155 -437q0 -285 -157.5 -440.5t-422.5 -155.5q-259 0 -414 157.5t-155 438.5zM309 584q0 -211 103 -327t280 -116q179 0 278 115t99 328q0 207 -103 321.5t-282 114.5q-178 0 -276.5 -114t-98.5 -322zM416 1563h262 l162 -154q30 -30 30 -68q0 -28 -21 -50.5t-58 -22.5t-74 32z" />
<glyph horiz-adv-x="1380" d="M115 584q0 278 158 436t419 158q262 0 417 -157t155 -437q0 -285 -157.5 -440.5t-422.5 -155.5q-259 0 -414 157.5t-155 438.5zM309 584q0 -211 103 -327t280 -116q179 0 278 115t99 328q0 207 -103 321.5t-282 114.5q-178 0 -276.5 -114t-98.5 -322zM498 1343 q0 36 30 66l164 154h262l-301 -263q-37 -32 -75 -32q-36 0 -58 24t-22 51z" />
<glyph horiz-adv-x="1380" d="M115 584q0 278 158 436t419 158q262 0 417 -157t155 -437q0 -285 -157.5 -440.5t-422.5 -155.5q-259 0 -414 157.5t-155 438.5zM309 584q0 -211 103 -327t280 -116q179 0 278 115t99 328q0 207 -103 321.5t-282 114.5q-178 0 -276.5 -114t-98.5 -322zM311 1264l267 260 q47 43 110 43q69 0 109 -43l268 -260h-236l-141 161l-139 -161h-238z" />
<glyph horiz-adv-x="1380" d="M115 584q0 278 158 436t419 158q262 0 417 -157t155 -437q0 -285 -157.5 -440.5t-422.5 -155.5q-259 0 -414 157.5t-155 438.5zM260 1346q40 114 115 168.5t155 54.5q92 0 154 -51l96 -70q45 -31 84 -31q87 0 140 135l124 -67q-38 -114 -113.5 -168.5t-156.5 -54.5 q-88 0 -156 51l-92 67q-42 33 -86 33q-85 0 -141 -135zM309 584q0 -211 103 -327t280 -116q179 0 278 115t99 328q0 207 -103 321.5t-282 114.5q-178 0 -276.5 -114t-98.5 -322z" />
<glyph horiz-adv-x="1380" d="M115 584q0 278 158 436t419 158q262 0 417 -157t155 -437q0 -285 -157.5 -440.5t-422.5 -155.5q-259 0 -414 157.5t-155 438.5zM309 584q0 -211 103 -327t280 -116q179 0 278 115t99 328q0 207 -103 321.5t-282 114.5q-178 0 -276.5 -114t-98.5 -322zM375 1448 q0 57 31.5 90t85.5 33q55 0 85.5 -33t30.5 -90q0 -56 -30.5 -89.5t-85.5 -33.5q-54 0 -85.5 33.5t-31.5 89.5zM774 1448q0 57 31 90t86 33q54 0 85.5 -33t31.5 -90q0 -56 -31.5 -89.5t-85.5 -33.5q-55 0 -86 33.5t-31 89.5z" />
<glyph horiz-adv-x="1294" d="M154 0v1063q0 58 34 88.5t93 30.5q49 0 79 -17.5t56 -52.5l547 -776v835h178v-1255q0 -139 -83 -213t-237 -74v146q75 1 108.5 36.5t33.5 106.5v94l-631 887v-899h-178z" />
<glyph horiz-adv-x="1380" d="M115 584q0 278 158 436t419 158q262 0 417 -157t155 -437q0 -285 -157.5 -440.5t-422.5 -155.5q-259 0 -414 157.5t-155 438.5zM309 584q0 -211 103 -327t280 -116q179 0 278 115t99 328q0 207 -103 321.5t-282 114.5q-178 0 -276.5 -114t-98.5 -322zM367 1335v164h649 v-164h-649z" />
<glyph horiz-adv-x="1380" d="M115 584q0 278 158 436t419 158q262 0 417 -157t155 -437q0 -285 -157.5 -440.5t-422.5 -155.5q-259 0 -414 157.5t-155 438.5zM309 584q0 -211 103 -327t280 -116q179 0 278 115t99 328q0 207 -103 321.5t-282 114.5q-178 0 -276.5 -114t-98.5 -322zM330 1563h172 q0 -78 51.5 -121t138.5 -43q85 0 138 44t53 120h170q0 -138 -103.5 -224t-257.5 -86q-155 0 -258.5 85.5t-103.5 224.5z" />
<glyph horiz-adv-x="1380" d="M115 584q0 278 158 436t419 158q262 0 417 -157t155 -437q0 -285 -157.5 -440.5t-422.5 -155.5q-259 0 -414 157.5t-155 438.5zM309 584q0 -211 103 -327t280 -116q179 0 278 115t99 328q0 207 -103 321.5t-282 114.5q-178 0 -276.5 -114t-98.5 -322zM395 1335 q0 30 29 62l162 166h243l-284 -271q-35 -30 -76 -30q-36 0 -55 21.5t-19 51.5zM766 1323q0 31 27 61l174 179h245l-299 -283q-31 -31 -73 -31q-37 0 -55.5 21.5t-18.5 52.5z" />
<glyph horiz-adv-x="1173" d="M154 0v1047q0 59 36 91.5t103 32.5h393q169 0 262.5 -83.5t93.5 -241.5q0 -124 -96 -238l-82 -98l252 -510h-211l-217 451h-342v-451h-192zM346 604h377l61 76q70 85 70 162q0 82 -43.5 130t-136.5 48h-328v-416zM434 1343q0 35 31 66l164 154h262l-301 -263 q-37 -32 -76 -32q-36 0 -58 24t-22 51z" />
<glyph horiz-adv-x="1173" d="M154 0v1047q0 59 36 91.5t103 32.5h393q169 0 262.5 -83.5t93.5 -241.5q0 -124 -96 -238l-82 -98l252 -510h-211l-217 451h-342v-451h-192zM346 604h377l61 76q70 85 70 162q0 82 -43.5 130t-136.5 48h-328v-416zM428 -309l55 209h197l-70 -252q-22 -72 -94 -72 q-54 0 -77.5 33.5t-10.5 81.5z" />
<glyph horiz-adv-x="1173" d="M154 0v1047q0 59 36 91.5t103 32.5h393q169 0 262.5 -83.5t93.5 -241.5q0 -124 -96 -238l-82 -98l252 -510h-211l-217 451h-342v-451h-192zM197 1563h235l141 -164l142 164h235l-266 -260q-46 -46 -111 -46t-108 46zM346 604h377l61 76q70 85 70 162q0 82 -43.5 130 t-136.5 48h-328v-416z" />
<glyph horiz-adv-x="1130" d="M115 84l39 168l104 -35q220 -67 348 -67q90 0 152.5 42t62.5 127q0 122 -164 158l-225 47q-309 65 -309 320q0 84 33 150t89.5 106t127.5 60t151 20q100 0 187.5 -16.5t199.5 -51.5l103 -31l-41 -168l-105 35q-197 68 -340 68q-92 0 -152.5 -42t-60.5 -126 q0 -125 162 -160l225 -47q153 -32 231.5 -108t78.5 -209q0 -84 -33 -150t-90 -106t-127.5 -60t-151.5 -20q-181 0 -395 65zM410 1343q0 36 30 66l164 154h262l-301 -263q-37 -32 -76 -32q-36 0 -57.5 23.5t-21.5 51.5z" />
<glyph horiz-adv-x="1130" d="M115 84l39 168l104 -35q220 -67 348 -67q90 0 152.5 42t62.5 127q0 122 -164 158l-225 47q-309 65 -309 320q0 84 33 150t89.5 106t127.5 60t151 20q100 0 187.5 -16.5t199.5 -51.5l103 -31l-41 -168l-105 35q-197 68 -340 68q-92 0 -152.5 -42t-60.5 -126 q0 -125 162 -160l225 -47q153 -32 231.5 -108t78.5 -209q0 -84 -33 -150t-90 -106t-127.5 -60t-151.5 -20q-181 0 -395 65zM188 1264l267 260q47 43 110 43q69 0 109 -43l268 -260h-235l-142 161l-139 -161h-238z" />
<glyph horiz-adv-x="1130" d="M115 84l39 168l104 -35q220 -67 348 -67q90 0 152.5 42t62.5 127q0 122 -164 158l-225 47q-309 65 -309 320q0 84 33 150t89.5 106t127.5 60t151 20q100 0 187.5 -16.5t199.5 -51.5l103 -31l-41 -168l-105 35q-197 68 -340 68q-92 0 -152.5 -42t-60.5 -126 q0 -125 162 -160l225 -47q153 -32 231.5 -108t78.5 -209q0 -110 -56 -187t-142 -112t-193 -37l-43 -88q79 0 128.5 -35t49.5 -103q0 -74 -54 -121t-151 -47q-80 0 -184 44l28 96q86 -35 154 -35q90 0 90 59q0 22 -13 36t-37 19.5t-57 7t-73 -0.5l-10 18l77 154 q-141 8 -311 61z" />
<glyph horiz-adv-x="1130" d="M115 84l39 168l104 -35q220 -67 348 -67q90 0 152.5 42t62.5 127q0 122 -164 158l-225 47q-309 65 -309 320q0 84 33 150t89.5 106t127.5 60t151 20q100 0 187.5 -16.5t199.5 -51.5l103 -31l-41 -168l-105 35q-197 68 -340 68q-92 0 -152.5 -42t-60.5 -126 q0 -125 162 -160l225 -47q153 -32 231.5 -108t78.5 -209q0 -84 -33 -150t-90 -106t-127.5 -60t-151.5 -20q-181 0 -395 65zM412 -309l55 209h197l-70 -252q-22 -72 -94 -72q-54 0 -77.5 33.5t-10.5 81.5z" />
<glyph horiz-adv-x="1130" d="M115 84l39 168l104 -35q220 -67 348 -67q90 0 152.5 42t62.5 127q0 122 -164 158l-225 47q-309 65 -309 320q0 84 33 150t89.5 106t127.5 60t151 20q100 0 187.5 -16.5t199.5 -51.5l103 -31l-41 -168l-105 35q-197 68 -340 68q-92 0 -152.5 -42t-60.5 -126 q0 -125 162 -160l225 -47q153 -32 231.5 -108t78.5 -209q0 -84 -33 -150t-90 -106t-127.5 -60t-151.5 -20q-181 0 -395 65zM199 1563h235l141 -164l142 164h235l-266 -260q-46 -46 -111 -46t-108 46z" />
<glyph horiz-adv-x="1101" d="M80 1012v159h942v-159h-373v-1012h-194v1012h-375zM391 -309l55 209h197l-70 -252q-22 -72 -94 -72q-54 0 -77.5 33.5t-10.5 81.5z" />
<glyph horiz-adv-x="1101" d="M80 1012v159h942v-159h-373v-1012h-194v1012h-375zM174 1563h236l141 -164l141 164h236l-266 -260q-46 -46 -111 -46q-66 0 -109 46z" />
<glyph horiz-adv-x="1101" d="M80 1012v159h942v-159h-373v-346h266v-150h-266v-516h-194v516h-260v150h260v346h-375z" />
<glyph horiz-adv-x="1263" d="M145 424v747h191v-747q0 -135 74.5 -208t220.5 -73q295 0 295 281v747h192v-747q0 -209 -127 -328t-360 -119q-234 0 -360 118.5t-126 328.5zM319 1563h263l161 -154q31 -31 31 -68q0 -28 -21.5 -50.5t-58.5 -22.5q-36 0 -73 32z" />
<glyph horiz-adv-x="1263" d="M145 424v747h191v-747q0 -135 74.5 -208t220.5 -73q295 0 295 281v747h192v-747q0 -209 -127 -328t-360 -119q-234 0 -360 118.5t-126 328.5zM512 1343q0 35 31 66l164 154h262l-301 -263q-37 -32 -76 -32q-36 0 -58 24t-22 51z" />
<glyph horiz-adv-x="1263" d="M145 424v747h191v-747q0 -135 74.5 -208t220.5 -73q295 0 295 281v747h192v-747q0 -209 -127 -328t-360 -119q-234 0 -360 118.5t-126 328.5zM258 1264l266 260q47 43 111 43q68 0 108 -43l269 -260h-236l-141 161l-139 -161h-238z" />
<glyph horiz-adv-x="1263" d="M145 424v747h191v-747q0 -135 74.5 -208t220.5 -73q295 0 295 281v747h192v-747q0 -209 -127 -328t-360 -119q-234 0 -360 118.5t-126 328.5zM315 1448q0 57 31.5 90t85.5 33q55 0 86 -33t31 -90q0 -56 -31 -89.5t-86 -33.5q-54 0 -85.5 33.5t-31.5 89.5zM715 1448 q0 57 30.5 90t85.5 33q54 0 85.5 -33t31.5 -90q0 -56 -31.5 -89.5t-85.5 -33.5q-55 0 -85.5 33.5t-30.5 89.5z" />
<glyph horiz-adv-x="1263" d="M145 424v747h191v-747q0 -135 74.5 -208t220.5 -73q295 0 295 281v747h192v-747q0 -209 -127 -328t-360 -119q-234 0 -360 118.5t-126 328.5zM197 1346q40 114 115 168.5t155 54.5q92 0 154 -51l96 -70q45 -31 84 -31q41 0 75 29.5t64 105.5l125 -67 q-38 -114 -113.5 -168.5t-156.5 -54.5q-88 0 -156 51l-92 67q-42 33 -86 33q-86 0 -142 -135z" />
<glyph horiz-adv-x="1263" d="M145 424v747h191v-747q0 -135 74.5 -208t220.5 -73q295 0 295 281v747h192v-747q0 -209 -127 -328t-360 -119q-234 0 -360 118.5t-126 328.5zM309 1335v164h649v-164h-649z" />
<glyph horiz-adv-x="1263" d="M145 424v747h191v-747q0 -135 74.5 -208t220.5 -73q295 0 295 281v747h192v-747q0 -209 -127 -328t-360 -119q-234 0 -360 118.5t-126 328.5zM274 1563h172q0 -78 52 -121t139 -43q85 0 137.5 43.5t52.5 120.5h170q0 -138 -103 -224t-257 -86q-155 0 -259 86t-104 224z " />
<glyph horiz-adv-x="1263" d="M145 424v747h191v-747q0 -135 74.5 -208t220.5 -73q295 0 295 281v747h192v-747q0 -209 -127 -328t-360 -119q-234 0 -360 118.5t-126 328.5zM399 1466q0 98 68 159t168 61t168.5 -61t68.5 -159q0 -95 -69.5 -158t-167.5 -63t-167 63t-69 158zM516 1466q0 -51 32.5 -83.5 t86.5 -32.5t87.5 32.5t33.5 83.5q0 49 -33.5 82t-87.5 33t-86.5 -33t-32.5 -82z" />
<glyph horiz-adv-x="1263" d="M145 424v747h191v-747q0 -135 74.5 -208t220.5 -73q295 0 295 281v747h192v-747q0 -209 -127 -328t-360 -119q-234 0 -360 118.5t-126 328.5zM346 1335q0 30 29 62l162 166h243l-284 -271q-34 -30 -76 -30q-36 0 -55 21.5t-19 51.5zM717 1323q0 32 26 61l175 179h245 l-299 -283q-31 -31 -73 -31q-37 0 -55.5 21.5t-18.5 52.5z" />
<glyph horiz-adv-x="1263" d="M145 424v747h191v-747q0 -135 74.5 -208t220.5 -73q295 0 295 281v747h192v-747q0 -158 -74.5 -266t-212.5 -152q-92 -58 -92 -139q0 -84 117 -84q86 0 188 37l27 -113q-121 -47 -225 -47q-111 0 -179.5 43.5t-68.5 126.5q0 88 72 150q-18 -3 -39 -3q-234 0 -360 118.5 t-126 328.5z" />
<glyph horiz-adv-x="1589" d="M68 1171h186l172 -919l254 842q21 77 119 77q93 0 116 -77l250 -848l174 925h183l-213 -1087q-9 -46 -43 -71t-88 -25q-111 0 -134 88l-247 842l-258 -842q-25 -86 -133 -86q-110 0 -125 96zM424 1264l266 260q47 43 111 43q68 0 108 -43l269 -260h-236l-141 161 l-139 -161h-238z" />
<glyph horiz-adv-x="1589" d="M68 1171h186l172 -919l254 842q21 77 119 77q93 0 116 -77l250 -848l174 925h183l-213 -1087q-9 -46 -43 -71t-88 -25q-111 0 -134 88l-247 842l-258 -842q-25 -86 -133 -86q-110 0 -125 96zM485 1448q0 57 31.5 90t85.5 33q55 0 86 -33t31 -90q0 -56 -31 -89.5 t-86 -33.5q-54 0 -85.5 33.5t-31.5 89.5zM885 1448q0 57 30.5 90t85.5 33q54 0 85.5 -33t31.5 -90q0 -56 -31.5 -89.5t-85.5 -33.5q-55 0 -85.5 33.5t-30.5 89.5z" />
<glyph horiz-adv-x="1589" d="M68 1171h186l172 -919l254 842q21 77 119 77q93 0 116 -77l250 -848l174 925h183l-213 -1087q-9 -46 -43 -71t-88 -25q-111 0 -134 88l-247 842l-258 -842q-25 -86 -133 -86q-110 0 -125 96zM670 1343q0 36 30 66l164 154h262l-301 -263q-37 -32 -75 -32q-36 0 -58 24 t-22 51z" />
<glyph horiz-adv-x="1589" d="M68 1171h186l172 -919l254 842q21 77 119 77q93 0 116 -77l250 -848l174 925h183l-213 -1087q-9 -46 -43 -71t-88 -25q-111 0 -134 88l-247 842l-258 -842q-25 -86 -133 -86q-110 0 -125 96zM532 1563h263l161 -154q31 -31 31 -68q0 -28 -21.5 -50.5t-58.5 -22.5 q-36 0 -73 32z" />
<glyph horiz-adv-x="1185" d="M39 1171h225l336 -501l326 501h221l-453 -669v-502h-196v494zM487 1343q0 35 31 66l164 154h262l-301 -263q-37 -32 -76 -32q-36 0 -58 24t-22 51z" />
<glyph horiz-adv-x="1185" d="M39 1171h225l336 -501l326 501h221l-453 -669v-502h-196v494zM285 1448q0 57 31 90t85 33q55 0 86 -33t31 -90q0 -56 -31 -89.5t-86 -33.5q-54 0 -85 33.5t-31 89.5zM684 1448q0 57 31 90t86 33q54 0 85.5 -33t31.5 -90q0 -56 -31.5 -89.5t-85.5 -33.5q-55 0 -86 33.5 t-31 89.5z" />
<glyph horiz-adv-x="1185" d="M39 1171h225l336 -501l326 501h221l-453 -669v-502h-196v494zM223 1264l266 260q47 43 111 43q69 0 109 -43l268 -260h-236l-141 161l-139 -161h-238z" />
<glyph horiz-adv-x="1185" d="M39 1171h225l336 -501l326 501h221l-453 -669v-502h-196v494zM287 1563h262l162 -154q30 -30 30 -68q0 -28 -21 -50.5t-58 -22.5t-74 32z" />
<glyph horiz-adv-x="1148" d="M115 106q0 47 32 87l639 821h-653v157h782q54 0 82.5 -28.5t28.5 -75.5q0 -44 -33 -86l-635 -823h672v-158h-807q-53 0 -80.5 28.5t-27.5 77.5zM197 1563h235l141 -164l142 164h235l-266 -260q-46 -46 -111 -46t-108 46z" />
<glyph horiz-adv-x="1148" d="M115 106q0 47 32 87l639 821h-653v157h782q54 0 82.5 -28.5t28.5 -75.5q0 -44 -33 -86l-635 -823h672v-158h-807q-53 0 -80.5 28.5t-27.5 77.5zM436 1343q0 35 31 66l164 154h262l-301 -263q-37 -32 -76 -32q-36 0 -58 24t-22 51z" />
<glyph horiz-adv-x="1148" d="M115 106q0 47 32 87l639 821h-653v157h782q54 0 82.5 -28.5t28.5 -75.5q0 -44 -33 -86l-635 -823h672v-158h-807q-53 0 -80.5 28.5t-27.5 77.5zM459 1448q0 57 32 90t87 33t86.5 -33t31.5 -90q0 -56 -31.5 -89.5t-86.5 -33.5t-87 33.5t-32 89.5z" />
<glyph horiz-adv-x="1200" d="M154 0v819q0 167 114.5 267t341.5 100q97 0 178.5 -20.5t134.5 -54.5t86 -72t46 -78l-267 -318q152 -13 233 -93t81 -210q0 -158 -100 -255t-295 -97q-99 0 -205 32l-51 15l36 162l50 -15q82 -28 165 -28q104 0 158.5 51.5t54.5 138.5q0 81 -58 124.5t-163 43.5h-26 q-43 0 -65.5 22.5t-22.5 63.5q0 36 26 68l236 276q-27 33 -89 60.5t-145 27.5q-140 0 -200 -60t-60 -157v-813h-194z" />
<glyph horiz-adv-x="1046" d="M131 379v412q0 186 103 289.5t294 103.5q192 0 291 -104t99 -294v-403q0 -190 -98.5 -294.5t-289.5 -104.5q-192 0 -295.5 104t-103.5 291zM311 381q0 -80 23 -133l284 764q-38 14 -92 14q-215 0 -215 -240v-405zM440 152q41 -13 86 -13q213 0 213 242v405q0 75 -20 125z " />
<glyph horiz-adv-x="1046" d="M131 379v412q0 186 103 289.5t294 103.5q192 0 291 -104t99 -294v-403q0 -190 -98.5 -294.5t-289.5 -104.5q-192 0 -295.5 104t-103.5 291zM311 381q0 -242 215 -242q213 0 213 242v405q0 240 -213 240q-215 0 -215 -240v-405z" />
<glyph horiz-adv-x="1046" d="M131 0v158h350v854h-55q-118 0 -193 -37l-40 153q42 21 111 32t128 11h98q68 0 106 -33.5t38 -93.5v-886h282v-158h-825z" />
<glyph horiz-adv-x="1046" d="M119 102q0 52 45 91l403 362q92 83 132 146.5t40 142.5q0 92 -58.5 134t-156.5 42q-106 0 -278 -49l-88 -27l-35 158l88 24q192 56 324 56q80 0 147 -18.5t121.5 -57.5t85.5 -106t31 -156q0 -204 -218 -393l-340 -297h562v-154h-703q-49 0 -75.5 27t-26.5 75z" />
<glyph horiz-adv-x="1046" d="M100 68l35 157l94 -24q205 -56 306 -56q112 0 170.5 44t58.5 120q0 69 -64 133l-69 72h-240v150h240l53 71q47 59 47 137q0 68 -50.5 108t-154.5 40q-48 0 -129.5 -14.5t-148.5 -34.5l-86 -27l-37 160l88 24q184 54 324 54q184 0 280 -77.5t96 -225.5q0 -117 -75 -209 l-58 -72l74 -72q92 -85 92 -215q0 -150 -110.5 -236.5t-296.5 -86.5q-130 0 -349 57z" />
<glyph horiz-adv-x="1046" d="M82 307q0 37 33 84l491 723q44 66 127 66q117 0 117 -109v-711h137v-151h-137v-209h-178v209h-488q-51 0 -76.5 26t-25.5 72zM299 360h373v551z" />
<glyph horiz-adv-x="1046" d="M117 66l35 155l90 -24q163 -50 274 -50q122 0 185 63.5t63 170.5q0 227 -250 227q-97 0 -209 -33l-131 -34v630h717v-163h-551v-271q120 27 201 27q193 0 298 -95t105 -288q0 -181 -113 -287t-309 -106q-147 0 -317 51z" />
<glyph horiz-adv-x="1046" d="M125 389v410q0 172 105 276.5t290 104.5q125 0 318 -52l86 -22l-35 -160l-86 27q-160 47 -277 47q-110 0 -164.5 -57.5t-54.5 -161.5v-74q130 37 232 37q201 0 304 -98t103 -283q0 -174 -106 -283.5t-301 -109.5q-193 0 -303.5 108.5t-110.5 290.5zM307 393 q0 -116 61 -182t173 -66q106 0 163.5 64t57.5 172q0 225 -242 225q-64 0 -213 -33v-180z" />
<glyph horiz-adv-x="1046" d="M129 1014v157h715q108 0 108 -96q0 -27 -22 -86l-432 -989h-199l449 1014h-619z" />
<glyph horiz-adv-x="1046" d="M98 305q0 119 92 217l68 72l-55 74q-72 95 -72 206q0 145 104.5 227.5t286.5 82.5q184 0 288.5 -82.5t104.5 -227.5q0 -114 -67 -200l-62 -82l72 -68q90 -93 90 -219q0 -150 -112 -235.5t-308 -85.5q-198 0 -314 85.5t-116 235.5zM279 305q0 -76 64 -120t183 -44 t180.5 43.5t61.5 120.5q0 72 -61 133l-68 72h-229l-72 -72q-59 -62 -59 -133zM309 870q0 -71 49 -137l52 -71h227l53 71q47 62 47 137q0 69 -54 111.5t-159 42.5q-108 0 -161.5 -42t-53.5 -112z" />
<glyph horiz-adv-x="1046" d="M104 788q0 174 106 283t302 109q193 0 302.5 -108t109.5 -290v-409q0 -171 -105.5 -277t-288.5 -106q-120 0 -317 53l-88 25l35 157l88 -24q186 -51 274 -49q108 0 163.5 57t55.5 162v73q-133 -36 -229 -36q-203 0 -305.5 97t-102.5 283zM289 791q0 -224 243 -224 q77 0 209 35v176q0 115 -60 181.5t-171 66.5q-107 0 -164 -64t-57 -171z" />
<glyph horiz-adv-x="1167" d="M115 582q0 262 124 412t334 177v191h164v-188q92 -7 244 -54l100 -30l-32 -166l-105 32q-178 54 -274 54q-172 0 -265.5 -106t-93.5 -322q0 -215 94 -320.5t265 -105.5q95 0 274 51l105 31l32 -164l-100 -29q-131 -41 -244 -53v-191h-164v193q-212 24 -335 171t-123 417z " />
<glyph horiz-adv-x="1046" d="M102 80l39 168l99 -33q186 -65 321 -65q84 0 144.5 42.5t60.5 126.5q0 122 -154 158l-211 47q-288 63 -288 316q0 76 28 138.5t75 103t106 64t124 28.5v188h166v-191q107 -10 242 -57l96 -31l-41 -165l-98 34q-173 62 -313 62q-87 0 -146 -41.5t-59 -126.5 q0 -62 36 -99.5t117 -56.5l207 -49q143 -34 219 -109.5t76 -205.5q0 -75 -28 -136.5t-76.5 -101.5t-107 -64t-124.5 -32v-191h-166v191q-41 4 -86.5 14t-71.5 17.5t-89 27.5z" />
<glyph horiz-adv-x="1046" d="M78 403v142h119v82h-119v143h121q6 202 121.5 309t304.5 107q119 0 252 -41l86 -25l-29 -157l-88 24q-129 37 -215 37q-238 0 -244 -254h377v-143h-381v-82h381v-142h-377q6 -253 246 -253q83 0 213 36l88 25l29 -158l-86 -24q-136 -41 -252 -41q-187 0 -303 108 t-123 307h-121z" />
<glyph horiz-adv-x="815" d="M84 1032q0 57 22.5 99t62 66t87.5 35t106 11h166v51q0 113 -127 113q-87 0 -200 -35l-70 -20l-25 121l70 22q132 37 232 37q117 0 188.5 -57.5t71.5 -178.5v-317l84 -49l-60 -105l-74 41q-30 20 -75 8l-43 -10q-96 -28 -181 -28q-110 0 -172.5 52t-62.5 144zM225 1038 q0 -82 111 -82q67 0 139 19l55 14v139h-168q-137 0 -137 -90z" />
<glyph horiz-adv-x="811" d="M113 973v796l139 29v-295q100 27 162 27q152 0 228.5 -89t76.5 -257q0 -159 -84.5 -251.5t-233.5 -92.5q-101 0 -204 28q-40 9 -62 36.5t-22 68.5zM252 985q100 -22 143 -22q94 0 138.5 60t44.5 161q0 219 -177 219q-50 0 -149 -27v-391z" />
<glyph horiz-adv-x="727" d="M84 1184q0 167 85 257.5t226 90.5q77 0 189 -31l71 -20l-26 -127l-72 20q-110 29 -154 29q-174 0 -174 -219t177 -219q45 0 151 28l72 21l26 -127l-71 -19q-128 -32 -189 -32q-144 0 -227.5 87t-83.5 261z" />
<glyph horiz-adv-x="811" d="M84 1182q0 167 79.5 257.5t229.5 90.5q48 0 158 -29v271l139 26v-825q0 -71 -88 -99q-106 -34 -205 -34q-150 0 -231.5 89.5t-81.5 252.5zM225 1184q0 -101 44.5 -161t136.5 -60q47 0 145 22v391q-113 27 -150 27q-176 0 -176 -219z" />
<glyph horiz-adv-x="796" d="M84 1184q0 173 89.5 261.5t225.5 88.5q143 0 226.5 -85t83.5 -249q0 -74 -72 -74h-410q9 -80 62 -121.5t133 -41.5q78 0 176 30l80 27l27 -119l-78 -24q-132 -41 -211 -41q-153 0 -242.5 89t-89.5 259zM227 1243h338q-5 78 -46.5 126t-123.5 48q-72 0 -117 -46.5 t-51 -127.5z" />
<glyph horiz-adv-x="546" d="M49 1393v120h103v54q0 108 56.5 164.5t158.5 56.5q39 0 161 -25l-20 -123q-92 23 -133 23q-44 0 -63 -24t-19 -80v-46h201v-120h-201v-549h-141v549h-103z" />
<glyph horiz-adv-x="815" d="M84 1300q0 110 78.5 166t214.5 56h67q49 0 95 4l186 49l31 -117l-125 -33q45 -41 45 -122q0 -107 -77.5 -161.5t-215.5 -54.5h-43q2 -10 2 -24q0 -30 -12 -51h186q111 0 167 -45.5t56 -124.5q0 -104 -87 -159.5t-265 -55.5q-61 0 -112.5 10t-93.5 31.5t-65.5 59 t-23.5 87.5q0 76 47 135l62 72q18 27 18 49q0 17 -14 33t-33.5 32t-39.5 36t-34 53t-14 75zM221 1303q0 -111 158 -111q72 0 115 27t43 84q0 108 -158 108t-158 -108zM225 817q0 -78 172 -78q207 0 207 99q0 57 -94 57h-258q-27 -30 -27 -78z" />
<glyph horiz-adv-x="780" d="M111 844v925l141 29v-297q110 29 164 29q134 0 194 -68.5t60 -181.5v-436h-142v430q0 127 -129 127q-51 0 -147 -27v-530h-141z" />
<glyph horiz-adv-x="378" d="M102 1702q0 40 22.5 64t63.5 24q40 0 63 -24t23 -64t-23 -64t-63 -24q-41 0 -63.5 24t-22.5 64zM117 844v680h143v-680h-143z" />
</font>
</defs>
</svg>
